M48
; DRILL file KiCad 10.0.0 date 2026-03-30T13:23:51
; FORMAT={-:-/ absolute / metric / decimal}
; #@! TF.CreationDate,2026-03-30T13:23:51-05:00
; #@! TF.GenerationSoftware,Kicad,Pcbnew,10.0.0
; #@! TF.FileFunction,Plated,1,4,PTH
FMAT,2
METRIC
; #@! TA.AperFunction,Plated,PTH,ViaDrill
T1C0.300
; #@! TA.AperFunction,Plated,PTH,ComponentDrill
T2C0.800
; #@! TA.AperFunction,Plated,PTH,ComponentDrill
T3C1.070
; #@! TA.AperFunction,Plated,PTH,ComponentDrill
T4C1.270
; #@! TA.AperFunction,Plated,PTH,ComponentDrill
T5C2.800
%
G90
G05
T1
X62.5Y-54.2
X62.5Y-59.343
X62.5Y-64.4
X62.5Y-68.5
X62.5Y-74.32
X62.5Y-79.0
X68.404Y-57.5
X68.9Y-86.2
X70.2Y-79.1
X70.3Y-46.9
X70.7Y-73.3
X71.4Y-65.8
X74.1Y-68.6
X75.0Y-86.2
X75.4Y-46.9
X76.5Y-67.4
X76.8Y-60.4
X77.0Y-68.2
X78.7Y-67.4
X80.3Y-46.9
X80.4Y-72.7
X81.7Y-68.5
X82.0Y-86.2
X82.4Y-72.8
X82.5Y-64.0
X83.85Y-59.682
X85.2Y-46.9
X85.4Y-70.5
X87.2Y-77.2
X88.1Y-52.6
X88.919Y-86.2
X90.4Y-46.9
X93.57Y-70.546
X94.6Y-79.5
X94.7Y-71.8
X94.97Y-63.346
X95.074Y-86.2
X95.5Y-46.9
X95.77Y-72.846
X96.4Y-68.2
X96.6Y-75.5
X97.0Y-56.9
X97.101Y-71.515
X98.07Y-66.246
X100.658Y-68.467
X101.1Y-46.9
X101.401Y-86.2
X102.0Y-75.6
X102.6Y-64.1
X102.6Y-65.4
X103.1Y-63.6
X105.17Y-64.146
X105.77Y-72.046
X105.97Y-64.846
X106.0Y-78.1
X106.67Y-71.146
X106.9Y-51.9
X107.018Y-72.901
X107.1Y-46.9
X107.1Y-86.2
X107.57Y-70.246
X108.618Y-71.301
X108.8Y-57.8
X112.03Y-61.085
X112.205Y-68.85
X112.5Y-86.2
X112.6Y-46.9
X112.93Y-50.485
X113.6Y-55.2
X113.605Y-65.25
X114.13Y-52.485
X114.73Y-61.385
X115.2Y-73.0
X115.23Y-48.985
X115.23Y-59.685
X116.0Y-67.4
X116.005Y-64.35
X116.8Y-66.938
X116.8Y-69.138
X118.5Y-46.9
X119.505Y-63.35
X119.505Y-72.55
X119.6Y-52.4
X121.13Y-52.285
X122.4Y-76.2
X122.9Y-50.4
X122.9Y-81.2
X124.03Y-60.685
X124.5Y-46.9
X124.605Y-66.15
X125.0Y-70.8
X125.2Y-81.2
X127.13Y-60.385
X128.3Y-62.5
X128.3Y-63.3
X129.73Y-58.585
X130.005Y-72.65
X130.005Y-73.55
X130.4Y-86.2
X130.7Y-46.9
X132.13Y-52.585
X132.13Y-53.685
X136.0Y-61.4
X136.5Y-76.2
X136.7Y-46.9
X137.0Y-53.2
X137.805Y-65.65
X137.805Y-66.65
X138.4Y-66.2
X141.205Y-68.95
X144.6Y-54.3
X144.6Y-59.5
X144.6Y-66.3
X144.6Y-73.5
X144.6Y-79.0
T2
X62.9Y-61.95
X62.9Y-71.05
X90.9Y-63.9
X90.9Y-66.1
X90.9Y-68.2
X96.4Y-61.7
X98.5Y-61.7
X100.6Y-61.7
X116.65Y-77.7
X116.65Y-85.8
X119.15Y-77.7
X119.15Y-85.8
X121.65Y-77.7
X121.65Y-85.8
X124.15Y-77.7
X124.15Y-85.8
X126.65Y-77.7
X126.65Y-85.8
X134.15Y-77.7
X134.15Y-85.8
X144.0Y-62.9
X144.0Y-70.0
T3
X75.86Y-78.9
X75.86Y-81.44
X78.4Y-78.9
X78.4Y-81.44
X80.94Y-78.9
X80.94Y-81.44
T4
X85.6Y-56.8
X88.15Y-56.8
X90.7Y-56.8
T5
X75.45Y-52.682
X100.85Y-52.682
M30
