ISO-10303-21;
HEADER;
FILE_DESCRIPTION (( 'STEP AP214' ),
    '1' );
FILE_NAME ('06035C224KAT2A.STEP',
    '2019-12-28T10:41:36',
    ( '' ),
    ( '' ),
    'SwSTEP 2.0',
    'SolidWorks 2018',
    '' );
FILE_SCHEMA (( 'AUTOMOTIVE_DESIGN' ));
ENDSEC;

DATA;
#1 = ORIENTED_EDGE ( 'NONE', *, *, #373, .F. ) ;
#2 = CARTESIAN_POINT ( 'NONE',  ( 0.4499999999999999001, 0.03999999999999999389, -0.4049999999999998601 ) ) ;
#3 = ORIENTED_EDGE ( 'NONE', *, *, #56, .F. ) ;
#4 = EDGE_LOOP ( 'NONE', ( #112, #1014, #163, #130, #289, #521, #201, #542 ) ) ;
#5 = CARTESIAN_POINT ( 'NONE',  ( 0.4499999999999999001, 0.9399999999999999467, -0.4049999999999998601 ) ) ;
#6 = EDGE_CURVE ( 'NONE', #410, #691, #312, .T. ) ;
#7 = FILL_AREA_STYLE ('',( #1103 ) ) ;
#8 = DIRECTION ( 'NONE',  ( 0.0000000000000000000, 0.0000000000000000000, 1.000000000000000000 ) ) ;
#9 = DIRECTION ( 'NONE',  ( 0.0000000000000000000, -0.0000000000000000000, -1.000000000000000000 ) ) ;
#10 = CARTESIAN_POINT ( 'NONE',  ( 0.4500000000007275958, 0.9000000000000000222, 0.3916666666666664964 ) ) ;
#11 = VECTOR ( 'NONE', #55, 1000.000000000000000 ) ;
#12 = FACE_OUTER_BOUND ( 'NONE', #972, .T. ) ;
#13 = EDGE_CURVE ( 'NONE', #853, #313, #829, .T. ) ;
#14 = ORIENTED_EDGE ( 'NONE', *, *, #617, .T. ) ;
#15 = SPHERICAL_SURFACE ( 'NONE', #1183, 0.04000000000000000083 ) ;
#16 = ORIENTED_EDGE ( 'NONE', *, *, #695, .F. ) ;
#17 = CARTESIAN_POINT ( 'NONE',  ( -0.7599999999999997868, 0.03999999999999999389, 0.3649999999999999911 ) ) ;
#18 = ORIENTED_EDGE ( 'NONE', *, *, #205, .F. ) ;
#19 = DIRECTION ( 'NONE',  ( 1.000000000000000000, 0.0000000000000000000, -1.338521200599388680E-16 ) ) ;
#20 = ORIENTED_EDGE ( 'NONE', *, *, #292, .F. ) ;
#21 = DIRECTION ( 'NONE',  ( 0.0000000000000000000, 0.0000000000000000000, -1.000000000000000000 ) ) ;
#22 = CARTESIAN_POINT ( 'NONE',  ( 500000.0000000000582, 0.03999999999999999389, 0.3649999999566318487 ) ) ;
#23 = EDGE_CURVE ( 'NONE', #378, #629, #389, .T. ) ;
#24 =( GEOMETRIC_REPRESENTATION_CONTEXT ( 3 ) GLOBAL_UNCERTAINTY_ASSIGNED_CONTEXT ( ( #1133 ) ) GLOBAL_UNIT_ASSIGNED_CONTEXT ( ( #766, #377, #1063 ) ) REPRESENTATION_CONTEXT ( 'NONE', 'WORKASPACE' ) );
#25 = DIRECTION ( 'NONE',  ( -1.000000000000000000, 0.0000000000000000000, 0.0000000000000000000 ) ) ;
#26 = ADVANCED_FACE ( 'NONE', ( #875 ), #810, .T. ) ;
#27 = LINE ( 'NONE', #215, #1053 ) ;
#28 = SPHERICAL_SURFACE ( 'NONE', #68, 0.04000000000000000083 ) ;
#29 = LINE ( 'NONE', #10, #361 ) ;
#30 = FACE_OUTER_BOUND ( 'NONE', #1241, .T. ) ;
#31 = CARTESIAN_POINT ( 'NONE',  ( 0.7999999999999998224, 0.03999999999999999389, -0.3649999999999998801 ) ) ;
#32 = ORIENTED_EDGE ( 'NONE', *, *, #1070, .F. ) ;
#33 = AXIS2_PLACEMENT_3D ( 'NONE', #508, #301, #291 ) ;
#34 = ORIENTED_EDGE ( 'NONE', *, *, #180, .T. ) ;
#35 = ORIENTED_EDGE ( 'NONE', *, *, #1013, .T. ) ;
#36 = DIRECTION ( 'NONE',  ( 0.0000000000000000000, 0.0000000000000000000, 1.000000000000000000 ) ) ;
#37 = VERTEX_POINT ( 'NONE', #1163 ) ;
#38 = CARTESIAN_POINT ( 'NONE',  ( 0.7599999999999997868, 0.9000000000000000222, 0.0000000000000000000 ) ) ;
#39 = ADVANCED_FACE ( 'NONE', ( #954 ), #60, .T. ) ;
#40 = EDGE_CURVE ( 'NONE', #816, #290, #1041, .T. ) ;
#41 = DIRECTION ( 'NONE',  ( -1.000000000000000000, -0.0000000000000000000, -0.0000000000000000000 ) ) ;
#42 = CIRCLE ( 'NONE', #49, 0.03999999999999999389 ) ;
#43 = FACE_OUTER_BOUND ( 'NONE', #333, .T. ) ;
#44 = CARTESIAN_POINT ( 'NONE',  ( -0.7599999999999997868, 0.04000000000000000083, 0.3649999999999999911 ) ) ;
#45 = EDGE_CURVE ( 'NONE', #174, #1008, #29, .T. ) ;
#46 = VERTEX_POINT ( 'NONE', #908 ) ;
#47 = CARTESIAN_POINT ( 'NONE',  ( 0.7599999999999997868, 0.9399999999999999467, 0.4049999999999999711 ) ) ;
#48 = ORIENTED_EDGE ( 'NONE', *, *, #87, .T. ) ;
#49 = AXIS2_PLACEMENT_3D ( 'NONE', #800, #416, #1089 ) ;
#50 = VERTEX_POINT ( 'NONE', #528 ) ;
#51 = CARTESIAN_POINT ( 'NONE',  ( 0.7599999999999997868, 0.0000000000000000000, -0.3649999999999998801 ) ) ;
#52 = CARTESIAN_POINT ( 'NONE',  ( -0.7999999999999998224, 0.9000000000000000222, -0.3649999999999998801 ) ) ;
#53 = DIRECTION ( 'NONE',  ( 0.0000000000000000000, 0.0000000000000000000, 1.000000000000000000 ) ) ;
#54 = DIRECTION ( 'NONE',  ( -0.0000000000000000000, -1.000000000000000000, -0.0000000000000000000 ) ) ;
#55 = DIRECTION ( 'NONE',  ( -1.000000000000000000, -0.0000000000000000000, 8.673617379884036705E-17 ) ) ;
#56 = EDGE_CURVE ( 'NONE', #239, #852, #779, .T. ) ;
#57 = CARTESIAN_POINT ( 'NONE',  ( 0.4500000000007275958, 0.9266666666666666385, -0.3649999999764420022 ) ) ;
#58 = VECTOR ( 'NONE', #102, 1000.000000000000000 ) ;
#59 = DIRECTION ( 'NONE',  ( 0.0000000000000000000, 0.0000000000000000000, 1.000000000000000000 ) ) ;
#60 = CYLINDRICAL_SURFACE ( 'NONE', #669, 0.02666666666666664756 ) ;
#61 = VECTOR ( 'NONE', #133, 1000.000000000000000 ) ;
#62 = ORIENTED_EDGE ( 'NONE', *, *, #943, .F. ) ;
#63 = EDGE_LOOP ( 'NONE', ( #889, #269, #1027 ) ) ;
#64 = EDGE_CURVE ( 'NONE', #80, #1059, #1131, .T. ) ;
#65 = VERTEX_POINT ( 'NONE', #415 ) ;
#66 = DIRECTION ( 'NONE',  ( 0.0000000000000000000, 0.0000000000000000000, -1.000000000000000000 ) ) ;
#67 = VERTEX_POINT ( 'NONE', #613 ) ;
#68 = AXIS2_PLACEMENT_3D ( 'NONE', #44, #457, #258 ) ;
#69 = CARTESIAN_POINT ( 'NONE',  ( 500000.0000000000582, 0.03999999999999999389, -0.3916666667100346388 ) ) ;
#70 = ADVANCED_FACE ( 'NONE', ( #407 ), #623, .F. ) ;
#71 = EDGE_CURVE ( 'NONE', #706, #174, #252, .T. ) ;
#72 = DIRECTION ( 'NONE',  ( -0.0000000000000000000, 0.0000000000000000000, 1.000000000000000000 ) ) ;
#73 = DIRECTION ( 'NONE',  ( -1.000000000000000000, 0.0000000000000000000, 0.0000000000000000000 ) ) ;
#74 = AXIS2_PLACEMENT_3D ( 'NONE', #75, #178, #874 ) ;
#75 = CARTESIAN_POINT ( 'NONE',  ( -0.7599999999999997868, 0.04000000000000000083, -0.3649999999999998801 ) ) ;
#76 = CYLINDRICAL_SURFACE ( 'NONE', #151, 0.03999999999999999389 ) ;
#77 = UNCERTAINTY_MEASURE_WITH_UNIT (LENGTH_MEASURE( 1.000000000000000082E-05 ), #420, 'distance_accuracy_value', 'NONE');
#78 = VECTOR ( 'NONE', #72, 1000.000000000000000 ) ;
#79 = CARTESIAN_POINT ( 'NONE',  ( 0.7999999999999998224, 0.9000000000000000222, -0.4049999999999998601 ) ) ;
#80 = VERTEX_POINT ( 'NONE', #822 ) ;
#81 = ORIENTED_EDGE ( 'NONE', *, *, #336, .T. ) ;
#82 = ORIENTED_EDGE ( 'NONE', *, *, #1038, .F. ) ;
#83 = AXIS2_PLACEMENT_3D ( 'NONE', #734, #250, #241 ) ;
#84 = EDGE_LOOP ( 'NONE', ( #330, #129, #176, #363 ) ) ;
#85 = DIRECTION ( 'NONE',  ( 0.0000000000000000000, 1.000000000000000000, 0.0000000000000000000 ) ) ;
#86 = DIRECTION ( 'NONE',  ( -1.000000000000000000, 0.0000000000000000000, 0.0000000000000000000 ) ) ;
#87 = EDGE_CURVE ( 'NONE', #993, #239, #1071, .T. ) ;
#88 = DIRECTION ( 'NONE',  ( 0.0000000000000000000, 0.0000000000000000000, -1.000000000000000000 ) ) ;
#89 = LINE ( 'NONE', #1009, #61 ) ;
#90 = CARTESIAN_POINT ( 'NONE',  ( 0.7599999999999997868, 0.9000000000000000222, -0.4049999999999998601 ) ) ;
#91 = PRESENTATION_STYLE_ASSIGNMENT (( #713 ) ) ;
#92 = FACE_OUTER_BOUND ( 'NONE', #63, .T. ) ;
#93 = ORIENTED_EDGE ( 'NONE', *, *, #1232, .T. ) ;
#94 = ORIENTED_EDGE ( 'NONE', *, *, #180, .F. ) ;
#95 = DIRECTION ( 'NONE',  ( 0.0000000000000000000, 0.0000000000000000000, -1.000000000000000000 ) ) ;
#96 = VERTEX_POINT ( 'NONE', #913 ) ;
#97 = DIRECTION ( 'NONE',  ( 0.0000000000000000000, 0.0000000000000000000, 1.000000000000000000 ) ) ;
#98 = AXIS2_PLACEMENT_3D ( 'NONE', #788, #697, #396 ) ;
#99 = DIRECTION ( 'NONE',  ( 0.0000000000000000000, 0.0000000000000000000, -1.000000000000000000 ) ) ;
#100 = MANIFOLD_SOLID_BREP ( 'Boss-Extrude2', #767 ) ;
#101 = DIRECTION ( 'NONE',  ( 0.0000000000000000000, -0.0000000000000000000, 1.000000000000000000 ) ) ;
#102 = DIRECTION ( 'NONE',  ( 0.0000000000000000000, -1.000000000000000000, 0.0000000000000000000 ) ) ;
#103 = CYLINDRICAL_SURFACE ( 'NONE', #850, 0.03999999999999999389 ) ;
#104 = EDGE_CURVE ( 'NONE', #37, #675, #862, .T. ) ;
#105 = LINE ( 'NONE', #944, #934 ) ;
#106 = LINE ( 'NONE', #1016, #1096 ) ;
#107 = SURFACE_STYLE_USAGE ( .BOTH. , #610 ) ;
#108 = VECTOR ( 'NONE', #440, 1000.000000000000000 ) ;
#109 = ORIENTED_EDGE ( 'NONE', *, *, #1030, .T. ) ;
#110 = VERTEX_POINT ( 'NONE', #630 ) ;
#111 = CARTESIAN_POINT ( 'NONE',  ( 0.7599999999999997868, 0.04000000000000000083, -0.3649999999999998801 ) ) ;
#112 = ORIENTED_EDGE ( 'NONE', *, *, #191, .F. ) ;
#113 = CARTESIAN_POINT ( 'NONE',  ( 0.4500000000007275958, 0.9000000000000000222, -0.3649999999999999911 ) ) ;
#114 = EDGE_CURVE ( 'NONE', #46, #904, #294, .T. ) ;
#115 = DIRECTION ( 'NONE',  ( 0.0000000000000000000, 0.0000000000000000000, 1.000000000000000000 ) ) ;
#116 = DIRECTION ( 'NONE',  ( -1.000000000000000000, -0.0000000000000000000, -0.0000000000000000000 ) ) ;
#117 = DIRECTION ( 'NONE',  ( 0.0000000000000000000, 0.0000000000000000000, -1.000000000000000000 ) ) ;
#118 =( NAMED_UNIT ( * ) SI_UNIT ( $, .STERADIAN. ) SOLID_ANGLE_UNIT ( ) );
#119 = CYLINDRICAL_SURFACE ( 'NONE', #280, 0.03999999999999999389 ) ;
#120 = CIRCLE ( 'NONE', #696, 0.03999999999999999389 ) ;
#121 = EDGE_CURVE ( 'NONE', #65, #703, #748, .T. ) ;
#122 = CYLINDRICAL_SURFACE ( 'NONE', #933, 0.03999999999999999389 ) ;
#123 = LINE ( 'NONE', #188, #902 ) ;
#124 = ADVANCED_FACE ( 'NONE', ( #1160 ), #649, .F. ) ;
#125 = ORIENTED_EDGE ( 'NONE', *, *, #1146, .T. ) ;
#126 = DIRECTION ( 'NONE',  ( -1.000000000000000000, 0.0000000000000000000, 0.0000000000000000000 ) ) ;
#127 = EDGE_LOOP ( 'NONE', ( #32, #694, #274 ) ) ;
#128 = FILL_AREA_STYLE_COLOUR ( '', #554 ) ;
#129 = ORIENTED_EDGE ( 'NONE', *, *, #205, .T. ) ;
#130 = ORIENTED_EDGE ( 'NONE', *, *, #759, .F. ) ;
#131 = CARTESIAN_POINT ( 'NONE',  ( -0.7599999999999997868, 0.9000000000000000222, -0.3649999999999998801 ) ) ;
#132 = AXIS2_PLACEMENT_3D ( 'NONE', #357, #964, #825 ) ;
#133 = DIRECTION ( 'NONE',  ( -1.485208455459595551E-16, 0.0000000000000000000, -1.000000000000000000 ) ) ;
#134 = DIRECTION ( 'NONE',  ( -1.000000000000000000, 0.0000000000000000000, 0.0000000000000000000 ) ) ;
#135 = DIRECTION ( 'NONE',  ( 0.0000000000000000000, 0.0000000000000000000, 1.000000000000000000 ) ) ;
#136 = ADVANCED_FACE ( 'NONE', ( #216 ), #122, .T. ) ;
#137 = DIRECTION ( 'NONE',  ( -1.000000000000000000, 0.0000000000000000000, 0.0000000000000000000 ) ) ;
#138 = CARTESIAN_POINT ( 'NONE',  ( -0.7599999999999997868, 0.03999999999999999389, -0.3649999999999998801 ) ) ;
#139 = COLOUR_RGB ( '',0.7921568627450980005, 0.8196078431372548767, 0.9333333333333333481 ) ;
#140 = EDGE_CURVE ( 'NONE', #992, #691, #903, .T. ) ;
#141 = AXIS2_PLACEMENT_3D ( 'NONE', #882, #787, #494 ) ;
#142 = ORIENTED_EDGE ( 'NONE', *, *, #268, .F. ) ;
#143 = CARTESIAN_POINT ( 'NONE',  ( 0.7999999999999998224, 0.9399999999999999467, -0.3649999999999998801 ) ) ;
#144 = CARTESIAN_POINT ( 'NONE',  ( -0.7999999999999998224, 0.9000000000000000222, 0.3649999999999999911 ) ) ;
#145 = VERTEX_POINT ( 'NONE', #245 ) ;
#146 = ORIENTED_EDGE ( 'NONE', *, *, #546, .T. ) ;
#147 = DIRECTION ( 'NONE',  ( 1.338521200599388434E-16, -0.0000000000000000000, -1.000000000000000000 ) ) ;
#148 = ADVANCED_FACE ( 'NONE', ( #978 ), #834, .F. ) ;
#149 = DIRECTION ( 'NONE',  ( 0.0000000000000000000, 0.0000000000000000000, 1.000000000000000000 ) ) ;
#150 = CARTESIAN_POINT ( 'NONE',  ( 0.4499999999999999001, 0.0000000000000000000, -0.4049999999999998601 ) ) ;
#151 = AXIS2_PLACEMENT_3D ( 'NONE', #38, #1138, #948 ) ;
#152 = DIRECTION ( 'NONE',  ( 0.0000000000000000000, 0.0000000000000000000, 1.000000000000000000 ) ) ;
#153 = CARTESIAN_POINT ( 'NONE',  ( 500000.0000000000582, 0.9266666666666666385, -0.3650000000433680225 ) ) ;
#154 = SURFACE_STYLE_FILL_AREA ( #7 ) ;
#155 = LINE ( 'NONE', #1094, #455 ) ;
#156 = VECTOR ( 'NONE', #1218, 1000.000000000000000 ) ;
#157 = CARTESIAN_POINT ( 'NONE',  ( 0.4499999999999999001, 0.9000000000000000222, -0.3649999999999998801 ) ) ;
#158 = CYLINDRICAL_SURFACE ( 'NONE', #1247, 0.03999999999999999389 ) ;
#159 = EDGE_CURVE ( 'NONE', #1061, #868, #717, .T. ) ;
#160 = ORIENTED_EDGE ( 'NONE', *, *, #587, .F. ) ;
#161 = CARTESIAN_POINT ( 'NONE',  ( -0.4499999999999999001, 0.03999999999999999389, -0.3649999999999998801 ) ) ;
#162 = ORIENTED_EDGE ( 'NONE', *, *, #446, .F. ) ;
#163 = ORIENTED_EDGE ( 'NONE', *, *, #1222, .F. ) ;
#164 = ORIENTED_EDGE ( 'NONE', *, *, #624, .F. ) ;
#165 = ADVANCED_FACE ( 'NONE', ( #456 ), #374, .T. ) ;
#166 = CARTESIAN_POINT ( 'NONE',  ( 0.0000000000000000000, 0.0000000000000000000, 0.3649999999999999911 ) ) ;
#167 = DIRECTION ( 'NONE',  ( -1.000000000000000000, 0.0000000000000000000, 0.0000000000000000000 ) ) ;
#168 = AXIS2_PLACEMENT_3D ( 'NONE', #1004, #226, #1200 ) ;
#169 = APPLICATION_CONTEXT ( 'automotive_design' ) ;
#170 = CARTESIAN_POINT ( 'NONE',  ( 0.7999999999999998224, 0.9399999999999999467, -0.4049999999999998601 ) ) ;
#171 = FACE_OUTER_BOUND ( 'NONE', #222, .T. ) ;
#172 = VECTOR ( 'NONE', #616, 1000.000000000000000 ) ;
#173 = ORIENTED_EDGE ( 'NONE', *, *, #64, .F. ) ;
#174 = VERTEX_POINT ( 'NONE', #633 ) ;
#175 = EDGE_CURVE ( 'NONE', #145, #600, #342, .T. ) ;
#176 = ORIENTED_EDGE ( 'NONE', *, *, #292, .T. ) ;
#177 = EDGE_LOOP ( 'NONE', ( #855, #347, #832, #782 ) ) ;
#178 = DIRECTION ( 'NONE',  ( 0.0000000000000000000, -0.0000000000000000000, -1.000000000000000000 ) ) ;
#179 = CARTESIAN_POINT ( 'NONE',  ( 0.7999999999999998224, 0.9399999999999999467, 0.3649999999999999911 ) ) ;
#180 = EDGE_CURVE ( 'NONE', #864, #904, #608, .T. ) ;
#181 = AXIS2_PLACEMENT_3D ( 'NONE', #235, #332, #21 ) ;
#182 = FACE_OUTER_BOUND ( 'NONE', #982, .T. ) ;
#183 = VECTOR ( 'NONE', #354, 1000.000000000000000 ) ;
#184 = FACE_OUTER_BOUND ( 'NONE', #365, .T. ) ;
#185 = LINE ( 'NONE', #319, #217 ) ;
#186 = DIRECTION ( 'NONE',  ( 0.0000000000000000000, 0.0000000000000000000, -1.000000000000000000 ) ) ;
#187 = ORIENTED_EDGE ( 'NONE', *, *, #857, .F. ) ;
#188 = CARTESIAN_POINT ( 'NONE',  ( -0.7599999999999997868, 0.9399999999999999467, 0.4049999999999999711 ) ) ;
#189 = ORIENTED_EDGE ( 'NONE', *, *, #943, .T. ) ;
#190 = ORIENTED_EDGE ( 'NONE', *, *, #1019, .T. ) ;
#191 = EDGE_CURVE ( 'NONE', #503, #290, #423, .T. ) ;
#192 = ORIENTED_EDGE ( 'NONE', *, *, #480, .T. ) ;
#193 = CARTESIAN_POINT ( 'NONE',  ( -0.4499999999999999001, 0.9000000000000000222, -0.3649999999999998801 ) ) ;
#194 = UNCERTAINTY_MEASURE_WITH_UNIT (LENGTH_MEASURE( 1.000000000000000082E-05 ), #1215, 'distance_accuracy_value', 'NONE');
#195 = AXIS2_PLACEMENT_3D ( 'NONE', #710, #812, #211 ) ;
#196 = DIRECTION ( 'NONE',  ( 0.0000000000000000000, 0.0000000000000000000, -1.000000000000000000 ) ) ;
#197 = FACE_OUTER_BOUND ( 'NONE', #599, .T. ) ;
#198 = CARTESIAN_POINT ( 'NONE',  ( -0.4499999999999999001, 0.9000000000000000222, 0.3916666666666666075 ) ) ;
#199 = LINE ( 'NONE', #963, #580 ) ;
#200 = EDGE_LOOP ( 'NONE', ( #1240, #391, #968 ) ) ;
#201 = ORIENTED_EDGE ( 'NONE', *, *, #1083, .T. ) ;
#202 = DIRECTION ( 'NONE',  ( 1.338521200599388680E-16, 0.0000000000000000000, 1.000000000000000000 ) ) ;
#203 = VERTEX_POINT ( 'NONE', #743 ) ;
#204 = CARTESIAN_POINT ( 'NONE',  ( 0.7999999999999998224, 0.03999999999999999389, 0.3649999999999999911 ) ) ;
#205 = EDGE_CURVE ( 'NONE', #706, #1042, #919, .T. ) ;
#206 = EDGE_LOOP ( 'NONE', ( #583, #538, #668 ) ) ;
#207 = AXIS2_PLACEMENT_3D ( 'NONE', #621, #228, #1217 ) ;
#208 = DIRECTION ( 'NONE',  ( 0.0000000000000000000, -1.000000000000000000, -0.0000000000000000000 ) ) ;
#209 = DIRECTION ( 'NONE',  ( 0.0000000000000000000, -1.000000000000000000, 0.0000000000000000000 ) ) ;
#210 = DIRECTION ( 'NONE',  ( 0.0000000000000000000, 0.0000000000000000000, -1.000000000000000000 ) ) ;
#211 = DIRECTION ( 'NONE',  ( -1.338521200599388680E-16, 0.0000000000000000000, 1.000000000000000000 ) ) ;
#212 = AXIS2_PLACEMENT_3D ( 'NONE', #113, #921, #117 ) ;
#213 = CYLINDRICAL_SURFACE ( 'NONE', #883, 0.03999999999999999389 ) ;
#214 = CIRCLE ( 'NONE', #627, 0.03999999999999999389 ) ;
#215 = CARTESIAN_POINT ( 'NONE',  ( -0.4499999999999999001, 0.9000000000000000222, -0.4049999999999998601 ) ) ;
#216 = FACE_OUTER_BOUND ( 'NONE', #557, .T. ) ;
#217 = VECTOR ( 'NONE', #729, 1000.000000000000000 ) ;
#218 = DIRECTION ( 'NONE',  ( 0.0000000000000000000, 0.0000000000000000000, 1.000000000000000000 ) ) ;
#219 = ORIENTED_EDGE ( 'NONE', *, *, #1157, .T. ) ;
#220 = ORIENTED_EDGE ( 'NONE', *, *, #429, .F. ) ;
#221 = CARTESIAN_POINT ( 'NONE',  ( -0.4499999999999999001, 0.0000000000000000000, -0.3649999999999998801 ) ) ;
#222 = EDGE_LOOP ( 'NONE', ( #522, #1243, #16, #1227 ) ) ;
#223 = ADVANCED_FACE ( 'NONE', ( #184 ), #1142, .F. ) ;
#224 = EDGE_CURVE ( 'NONE', #442, #754, #1056, .T. ) ;
#225 = AXIS2_PLACEMENT_3D ( 'NONE', #315, #208, #1195 ) ;
#226 = DIRECTION ( 'NONE',  ( 1.000000000000000000, -0.0000000000000000000, 1.338521200599388680E-16 ) ) ;
#227 = ADVANCED_FACE ( 'NONE', ( #688 ), #76, .T. ) ;
#228 = DIRECTION ( 'NONE',  ( 1.000000000000000000, -0.0000000000000000000, 0.0000000000000000000 ) ) ;
#229 = CARTESIAN_POINT ( 'NONE',  ( 0.0000000000000000000, 0.9000000000000000222, -0.3649999999999998801 ) ) ;
#230 = VECTOR ( 'NONE', #284, 1000.000000000000000 ) ;
#231 = AXIS2_PLACEMENT_3D ( 'NONE', #1256, #776, #397 ) ;
#232 = FACE_OUTER_BOUND ( 'NONE', #477, .T. ) ;
#233 = LINE ( 'NONE', #650, #183 ) ;
#234 = ORIENTED_EDGE ( 'NONE', *, *, #140, .F. ) ;
#235 = CARTESIAN_POINT ( 'NONE',  ( -0.4499999999999999001, 0.03999999999999999389, 0.3649999999999999911 ) ) ;
#236 = ORIENTED_EDGE ( 'NONE', *, *, #13, .F. ) ;
#237 = PLANE ( 'NONE',  #286 ) ;
#238 = ORIENTED_EDGE ( 'NONE', *, *, #242, .F. ) ;
#239 = VERTEX_POINT ( 'NONE', #931 ) ;
#240 = DIRECTION ( 'NONE',  ( 1.000000000000000000, 0.0000000000000000000, 0.0000000000000000000 ) ) ;
#241 = DIRECTION ( 'NONE',  ( -1.000000000000000000, 0.0000000000000000000, 8.673617379884036705E-17 ) ) ;
#242 = EDGE_CURVE ( 'NONE', #1268, #1085, #105, .T. ) ;
#243 = ADVANCED_FACE ( 'NONE', ( #182 ), #237, .F. ) ;
#244 = DIRECTION ( 'NONE',  ( 0.0000000000000000000, 0.0000000000000000000, 1.000000000000000000 ) ) ;
#245 = CARTESIAN_POINT ( 'NONE',  ( 0.7599999999999997868, 0.9399999999999999467, -0.3649999999999998801 ) ) ;
#246 = DIRECTION ( 'NONE',  ( -1.000000000000000000, -0.0000000000000000000, 8.673617379884036705E-17 ) ) ;
#247 = LINE ( 'NONE', #79, #1129 ) ;
#248 = VECTOR ( 'NONE', #116, 1000.000000000000000 ) ;
#249 = EDGE_CURVE ( 'NONE', #853, #239, #793, .T. ) ;
#250 = DIRECTION ( 'NONE',  ( -8.673617379884036705E-17, 0.0000000000000000000, -1.000000000000000000 ) ) ;
#251 = ADVANCED_FACE ( 'NONE', ( #513 ), #670, .F. ) ;
#252 = CIRCLE ( 'NONE', #1124, 0.02666666666666669960 ) ;
#253 = FACE_OUTER_BOUND ( 'NONE', #393, .T. ) ;
#254 = EDGE_LOOP ( 'NONE', ( #574, #3, #1180, #833 ) ) ;
#255 = ORIENTED_EDGE ( 'NONE', *, *, #382, .F. ) ;
#256 = EDGE_LOOP ( 'NONE', ( #959, #463, #411, #940 ) ) ;
#257 = ORIENTED_EDGE ( 'NONE', *, *, #260, .F. ) ;
#258 = DIRECTION ( 'NONE',  ( 1.000000000000000000, 0.0000000000000000000, 0.0000000000000000000 ) ) ;
#259 = DIRECTION ( 'NONE',  ( 0.0000000000000000000, 0.0000000000000000000, 1.000000000000000000 ) ) ;
#260 = EDGE_CURVE ( 'NONE', #541, #754, #536, .T. ) ;
#261 = CARTESIAN_POINT ( 'NONE',  ( -0.7599999999999997868, 0.03999999999999999389, 0.4049999999999999711 ) ) ;
#262 = CARTESIAN_POINT ( 'NONE',  ( 0.7599999999999997868, 0.9000000000000000222, 0.4049999999999999711 ) ) ;
#263 = ADVANCED_FACE ( 'NONE', ( #171 ), #213, .T. ) ;
#264 = SPHERICAL_SURFACE ( 'NONE', #930, 0.04000000000000000083 ) ;
#265 = VECTOR ( 'NONE', #949, 1000.000000000000000 ) ;
#266 = CIRCLE ( 'NONE', #953, 0.03999999999999999389 ) ;
#267 = CIRCLE ( 'NONE', #680, 0.03999999999999999389 ) ;
#268 = EDGE_CURVE ( 'NONE', #609, #442, #672, .T. ) ;
#269 = ORIENTED_EDGE ( 'NONE', *, *, #847, .T. ) ;
#270 = ORIENTED_EDGE ( 'NONE', *, *, #268, .T. ) ;
#271 = AXIS2_PLACEMENT_3D ( 'NONE', #1245, #1052, #758 ) ;
#272 = EDGE_LOOP ( 'NONE', ( #720, #969, #877, #906 ) ) ;
#273 =( NAMED_UNIT ( * ) PLANE_ANGLE_UNIT ( ) SI_UNIT ( $, .RADIAN. ) );
#274 = ORIENTED_EDGE ( 'NONE', *, *, #336, .F. ) ;
#275 = CARTESIAN_POINT ( 'NONE',  ( -0.7599999999999997868, 0.9000000000000000222, -0.4049999999999998601 ) ) ;
#276 =( NAMED_UNIT ( * ) SI_UNIT ( $, .STERADIAN. ) SOLID_ANGLE_UNIT ( ) );
#277 = EDGE_CURVE ( 'NONE', #691, #703, #438, .T. ) ;
#278 = CARTESIAN_POINT ( 'NONE',  ( -0.7599999999999997868, 0.9000000000000000222, -0.3649999999999998801 ) ) ;
#279 = DIRECTION ( 'NONE',  ( 0.0000000000000000000, 0.0000000000000000000, 1.000000000000000000 ) ) ;
#280 = AXIS2_PLACEMENT_3D ( 'NONE', #741, #465, #757 ) ;
#281 = CARTESIAN_POINT ( 'NONE',  ( -0.7599999999999997868, 0.9000000000000000222, 0.3649999999999999911 ) ) ;
#282 = CIRCLE ( 'NONE', #594, 0.03999999999999999389 ) ;
#283 = PRESENTATION_STYLE_ASSIGNMENT (( #725 ) ) ;
#284 = DIRECTION ( 'NONE',  ( 1.000000000000000000, -0.0000000000000000000, -0.0000000000000000000 ) ) ;
#285 = ORIENTED_EDGE ( 'NONE', *, *, #409, .F. ) ;
#286 = AXIS2_PLACEMENT_3D ( 'NONE', #170, #73, #66 ) ;
#287 = ORIENTED_EDGE ( 'NONE', *, *, #1155, .F. ) ;
#288 = DIRECTION ( 'NONE',  ( -0.0000000000000000000, 0.0000000000000000000, -1.000000000000000000 ) ) ;
#289 = ORIENTED_EDGE ( 'NONE', *, *, #159, .T. ) ;
#290 = VERTEX_POINT ( 'NONE', #658 ) ;
#291 = DIRECTION ( 'NONE',  ( -1.000000000000000000, 0.0000000000000000000, 0.0000000000000000000 ) ) ;
#292 = EDGE_CURVE ( 'NONE', #1042, #67, #638, .T. ) ;
#293 = SPHERICAL_SURFACE ( 'NONE', #1049, 0.04000000000000000083 ) ;
#294 = CIRCLE ( 'NONE', #352, 0.03999999999999999389 ) ;
#295 = SPHERICAL_SURFACE ( 'NONE', #300, 0.04000000000000000083 ) ;
#296 = CARTESIAN_POINT ( 'NONE',  ( 0.4500000000007275958, 0.03999999999999999389, -0.3649999999999999911 ) ) ;
#297 = EDGE_LOOP ( 'NONE', ( #1072, #750, #507, #34 ) ) ;
#298 = ORIENTED_EDGE ( 'NONE', *, *, #994, .F. ) ;
#299 = VERTEX_POINT ( 'NONE', #262 ) ;
#300 = AXIS2_PLACEMENT_3D ( 'NONE', #925, #326, #1114 ) ;
#301 = DIRECTION ( 'NONE',  ( 0.0000000000000000000, -1.000000000000000000, 0.0000000000000000000 ) ) ;
#302 = PRODUCT_DEFINITION_SHAPE ( 'NONE', 'NONE',  #1125 ) ;
#303 = CARTESIAN_POINT ( 'NONE',  ( 0.4500000000007275958, 0.03999999999999999389, -0.3916666666666666075 ) ) ;
#304 = DIRECTION ( 'NONE',  ( 0.0000000000000000000, 0.0000000000000000000, 1.000000000000000000 ) ) ;
#305 = EDGE_CURVE ( 'NONE', #835, #629, #266, .T. ) ;
#306 = DIRECTION ( 'NONE',  ( -1.000000000000000000, 0.0000000000000000000, 0.0000000000000000000 ) ) ;
#307 = AXIS2_PLACEMENT_3D ( 'NONE', #1035, #1127, #851 ) ;
#308 = CARTESIAN_POINT ( 'NONE',  ( 0.4500000000000000111, 0.9399999999999999467, 0.3649999999999999911 ) ) ;
#309 = CARTESIAN_POINT ( 'NONE',  ( 0.0000000000000000000, 0.0000000000000000000, -0.3649999999999998801 ) ) ;
#310 = FACE_OUTER_BOUND ( 'NONE', #476, .T. ) ;
#311 = CIRCLE ( 'NONE', #973, 0.03999999999999999389 ) ;
#312 = LINE ( 'NONE', #566, #848 ) ;
#313 = VERTEX_POINT ( 'NONE', #275 ) ;
#314 = ORIENTED_EDGE ( 'NONE', *, *, #579, .F. ) ;
#315 = CARTESIAN_POINT ( 'NONE',  ( 0.7599999999999997868, 0.03999999999999999389, -0.3649999999999998801 ) ) ;
#316 = EDGE_CURVE ( 'NONE', #299, #676, #199, .T. ) ;
#317 = ORIENTED_EDGE ( 'NONE', *, *, #305, .T. ) ;
#318 = AXIS2_PLACEMENT_3D ( 'NONE', #131, #1015, #823 ) ;
#319 = CARTESIAN_POINT ( 'NONE',  ( 0.7999999999999998224, 0.9399999999999999467, -0.3649999999999998801 ) ) ;
#320 = PLANE ( 'NONE',  #603 ) ;
#321 = CARTESIAN_POINT ( 'NONE',  ( -0.7599999999999997868, 0.04000000000000000083, 0.3649999999999999911 ) ) ;
#322 = CARTESIAN_POINT ( 'NONE',  ( -0.4500000000000000111, 0.03999999999999999389, 0.4049999999999999711 ) ) ;
#323 = CARTESIAN_POINT ( 'NONE',  ( -0.7999999999999998224, 0.03999999999999999389, -0.4049999999999998601 ) ) ;
#324 = AXIS2_PLACEMENT_3D ( 'NONE', #1262, #1270, #1175 ) ;
#325 = CIRCLE ( 'NONE', #589, 0.03999999999999999389 ) ;
#326 = DIRECTION ( 'NONE',  ( 0.0000000000000000000, 1.000000000000000000, 0.0000000000000000000 ) ) ;
#327 = CIRCLE ( 'NONE', #1034, 0.03999999999999999389 ) ;
#328 = DIRECTION ( 'NONE',  ( -1.000000000000000000, -0.0000000000000000000, 8.673617379884036705E-17 ) ) ;
#329 = ADVANCED_FACE ( 'NONE', ( #1006 ), #1278, .T. ) ;
#330 = ORIENTED_EDGE ( 'NONE', *, *, #71, .F. ) ;
#331 = ORIENTED_EDGE ( 'NONE', *, *, #742, .F. ) ;
#332 = DIRECTION ( 'NONE',  ( 1.000000000000000000, 0.0000000000000000000, -8.673617379884036705E-17 ) ) ;
#333 = EDGE_LOOP ( 'NONE', ( #768, #1, #94, #737 ) ) ;
#334 = ORIENTED_EDGE ( 'NONE', *, *, #1048, .F. ) ;
#335 = DIRECTION ( 'NONE',  ( 0.0000000000000000000, -0.0000000000000000000, 1.000000000000000000 ) ) ;
#336 = EDGE_CURVE ( 'NONE', #676, #939, #1068, .T. ) ;
#337 = DIRECTION ( 'NONE',  ( 0.0000000000000000000, -1.000000000000000000, 0.0000000000000000000 ) ) ;
#338 = EDGE_CURVE ( 'NONE', #203, #46, #247, .T. ) ;
#339 = ADVANCED_FACE ( 'NONE', ( #310 ), #684, .T. ) ;
#340 = AXIS2_PLACEMENT_3D ( 'NONE', #296, #798, #196 ) ;
#341 = VECTOR ( 'NONE', #1275, 1000.000000000000000 ) ;
#342 = LINE ( 'NONE', #47, #1204 ) ;
#343 = CARTESIAN_POINT ( 'NONE',  ( 0.7599999999999997868, 0.9000000000000000222, -0.3649999999999998801 ) ) ;
#344 = ORIENTED_EDGE ( 'NONE', *, *, #708, .F. ) ;
#345 = DIRECTION ( 'NONE',  ( 0.0000000000000000000, 0.0000000000000000000, -1.000000000000000000 ) ) ;
#346 = ORIENTED_EDGE ( 'NONE', *, *, #1207, .F. ) ;
#347 = ORIENTED_EDGE ( 'NONE', *, *, #602, .T. ) ;
#348 = ADVANCED_FACE ( 'NONE', ( #807 ), #884, .F. ) ;
#349 = DIRECTION ( 'NONE',  ( 1.000000000000000000, 0.0000000000000000000, 0.0000000000000000000 ) ) ;
#350 = EDGE_LOOP ( 'NONE', ( #475, #564, #162 ) ) ;
#351 = CARTESIAN_POINT ( 'NONE',  ( 0.7599999999999997868, 0.9399999999999999467, -0.4049999999999998601 ) ) ;
#352 = AXIS2_PLACEMENT_3D ( 'NONE', #1231, #544, #1130 ) ;
#353 = DIRECTION ( 'NONE',  ( 0.0000000000000000000, 0.0000000000000000000, 1.000000000000000000 ) ) ;
#354 = DIRECTION ( 'NONE',  ( 0.0000000000000000000, 1.000000000000000000, 0.0000000000000000000 ) ) ;
#355 = DIRECTION ( 'NONE',  ( 1.000000000000000000, 0.0000000000000000000, -1.338521200599388680E-16 ) ) ;
#356 = CARTESIAN_POINT ( 'NONE',  ( -0.7599999999999997868, 0.04000000000000000083, -0.3649999999999998801 ) ) ;
#357 = CARTESIAN_POINT ( 'NONE',  ( 0.0000000000000000000, 0.9000000000000000222, -0.3649999999999998801 ) ) ;
#358 = LINE ( 'NONE', #636, #596 ) ;
#359 = EDGE_CURVE ( 'NONE', #629, #466, #1235, .T. ) ;
#360 = DIRECTION ( 'NONE',  ( -1.000000000000000000, -0.0000000000000000000, 8.673617379884036705E-17 ) ) ;
#361 = VECTOR ( 'NONE', #209, 1000.000000000000000 ) ;
#362 = LINE ( 'NONE', #821, #1081 ) ;
#363 = ORIENTED_EDGE ( 'NONE', *, *, #836, .F. ) ;
#364 = CARTESIAN_POINT ( 'NONE',  ( -0.4500000000000000111, 0.9000000000000000222, 0.4049999999999999711 ) ) ;
#365 = EDGE_LOOP ( 'NONE', ( #1166, #573, #938, #1271 ) ) ;
#366 = ORIENTED_EDGE ( 'NONE', *, *, #71, .T. ) ;
#367 = ORIENTED_EDGE ( 'NONE', *, *, #104, .T. ) ;
#368 = DIRECTION ( 'NONE',  ( 0.0000000000000000000, -1.000000000000000000, 0.0000000000000000000 ) ) ;
#369 = ADVANCED_FACE ( 'NONE', ( #1095 ), #383, .F. ) ;
#370 = FACE_OUTER_BOUND ( 'NONE', #1086, .T. ) ;
#371 = VECTOR ( 'NONE', #9, 1000.000000000000000 ) ;
#372 = DIRECTION ( 'NONE',  ( 0.0000000000000000000, 0.0000000000000000000, 1.000000000000000000 ) ) ;
#373 = EDGE_CURVE ( 'NONE', #904, #1135, #1172, .T. ) ;
#374 = CYLINDRICAL_SURFACE ( 'NONE', #1258, 0.03999999999999999389 ) ;
#375 = ORIENTED_EDGE ( 'NONE', *, *, #359, .F. ) ;
#376 = ORIENTED_EDGE ( 'NONE', *, *, #892, .F. ) ;
#377 =( NAMED_UNIT ( * ) PLANE_ANGLE_UNIT ( ) SI_UNIT ( $, .RADIAN. ) );
#378 = VERTEX_POINT ( 'NONE', #1167 ) ;
#379 = DIRECTION ( 'NONE',  ( 0.0000000000000000000, -1.000000000000000000, 0.0000000000000000000 ) ) ;
#380 = ADVANCED_FACE ( 'NONE', ( #370 ), #605, .T. ) ;
#381 =( LENGTH_UNIT ( ) NAMED_UNIT ( * ) SI_UNIT ( .MILLI., .METRE. ) );
#382 = EDGE_CURVE ( 'NONE', #939, #203, #763, .T. ) ;
#383 = PLANE ( 'NONE',  #1198 ) ;
#384 = AXIS2_PLACEMENT_3D ( 'NONE', #356, #840, #240 ) ;
#385 = ADVANCED_FACE ( 'NONE', ( #747 ), #1266, .T. ) ;
#386 = CARTESIAN_POINT ( 'NONE',  ( -0.7599999999999997868, 0.9000000000000000222, 0.0000000000000000000 ) ) ;
#387 = VECTOR ( 'NONE', #1037, 1000.000000000000000 ) ;
#388 = CARTESIAN_POINT ( 'NONE',  ( -0.7599999999999997868, 0.03999999999999999389, 0.3649999999999999911 ) ) ;
#389 = LINE ( 'NONE', #1250, #78 ) ;
#390 = CYLINDRICAL_SURFACE ( 'NONE', #548, 0.03999999999999999389 ) ;
#391 = ORIENTED_EDGE ( 'NONE', *, *, #497, .T. ) ;
#392 = AXIS2_PLACEMENT_3D ( 'NONE', #679, #85, #591 ) ;
#393 = EDGE_LOOP ( 'NONE', ( #478, #866, #926, #665, #1151, #376, #20, #909 ) ) ;
#394 = CARTESIAN_POINT ( 'NONE',  ( -0.7599999999999997868, 0.0000000000000000000, -0.3649999999999998801 ) ) ;
#395 = ORIENTED_EDGE ( 'NONE', *, *, #607, .F. ) ;
#396 = DIRECTION ( 'NONE',  ( 0.0000000000000000000, 0.0000000000000000000, -1.000000000000000000 ) ) ;
#397 = DIRECTION ( 'NONE',  ( 0.0000000000000000000, 0.0000000000000000000, -1.000000000000000000 ) ) ;
#398 =( NAMED_UNIT ( * ) SI_UNIT ( $, .STERADIAN. ) SOLID_ANGLE_UNIT ( ) );
#399 = CARTESIAN_POINT ( 'NONE',  ( -0.4500000000000000111, 0.9399999999999999467, 0.4049999999999999711 ) ) ;
#400 = AXIS2_PLACEMENT_3D ( 'NONE', #278, #971, #372 ) ;
#401 = DIRECTION ( 'NONE',  ( 8.673617379884036705E-17, -0.0000000000000000000, 1.000000000000000000 ) ) ;
#402 = DIRECTION ( 'NONE',  ( 0.0000000000000000000, -1.000000000000000000, 0.0000000000000000000 ) ) ;
#403 = FACE_OUTER_BOUND ( 'NONE', #350, .T. ) ;
#404 = FACE_OUTER_BOUND ( 'NONE', #1149, .T. ) ;
#405 = VECTOR ( 'NONE', #601, 1000.000000000000000 ) ;
#406 = DIRECTION ( 'NONE',  ( 1.000000000000000000, 0.0000000000000000000, 0.0000000000000000000 ) ) ;
#407 = FACE_OUTER_BOUND ( 'NONE', #1026, .T. ) ;
#408 = DIRECTION ( 'NONE',  ( -1.000000000000000000, 0.0000000000000000000, 0.0000000000000000000 ) ) ;
#409 = EDGE_CURVE ( 'NONE', #37, #609, #714, .T. ) ;
#410 = VERTEX_POINT ( 'NONE', #394 ) ;
#411 = ORIENTED_EDGE ( 'NONE', *, *, #1197, .T. ) ;
#412 = AXIS2_PLACEMENT_3D ( 'NONE', #1122, #724, #115 ) ;
#413 = CARTESIAN_POINT ( 'NONE',  ( -0.7599999999999997868, 0.0000000000000000000, 0.0000000000000000000 ) ) ;
#414 = ORIENTED_EDGE ( 'NONE', *, *, #45, .T. ) ;
#415 = CARTESIAN_POINT ( 'NONE',  ( -0.4499999999999999001, 0.9000000000000000222, -0.4049999999999998601 ) ) ;
#416 = DIRECTION ( 'NONE',  ( 0.0000000000000000000, 1.000000000000000000, -0.0000000000000000000 ) ) ;
#417 = DIRECTION ( 'NONE',  ( 0.0000000000000000000, -1.000000000000000000, -0.0000000000000000000 ) ) ;
#418 = DIRECTION ( 'NONE',  ( 0.0000000000000000000, 0.0000000000000000000, 1.000000000000000000 ) ) ;
#419 = CARTESIAN_POINT ( 'NONE',  ( 0.0000000000000000000, 0.0000000000000000000, 0.0000000000000000000 ) ) ;
#420 =( LENGTH_UNIT ( ) NAMED_UNIT ( * ) SI_UNIT ( .MILLI., .METRE. ) );
#421 = CARTESIAN_POINT ( 'NONE',  ( -0.7599999999999997868, 0.03999999999999999389, -0.3649999999999998801 ) ) ;
#422 = LINE ( 'NONE', #896, #1024 ) ;
#423 = LINE ( 'NONE', #150, #156 ) ;
#424 = LINE ( 'NONE', #399, #826 ) ;
#425 = ORIENTED_EDGE ( 'NONE', *, *, #359, .T. ) ;
#426 = CARTESIAN_POINT ( 'NONE',  ( -0.7999999999999998224, 0.03999999999999999389, -0.4049999999999998601 ) ) ;
#427 = ORIENTED_EDGE ( 'NONE', *, *, #121, .F. ) ;
#428 = CARTESIAN_POINT ( 'NONE',  ( 500000.0000000000582, 0.9000000000000000222, 0.3649999999566318487 ) ) ;
#429 = EDGE_CURVE ( 'NONE', #466, #50, #484, .T. ) ;
#430 = ORIENTED_EDGE ( 'NONE', *, *, #140, .T. ) ;
#431 = EDGE_LOOP ( 'NONE', ( #1190, #189, #704, #425 ) ) ;
#432 = CARTESIAN_POINT ( 'NONE',  ( 0.7599999999999997868, 0.9399999999999999467, 0.3649999999999999911 ) ) ;
#433 = DIRECTION ( 'NONE',  ( -1.000000000000000000, -0.0000000000000000000, 8.673617379884036705E-17 ) ) ;
#434 = PRODUCT_DEFINITION_CONTEXT ( 'detailed design', #1168, 'design' ) ;
#435 = PLANE ( 'NONE',  #1055 ) ;
#436 = CARTESIAN_POINT ( 'NONE',  ( 0.7999999999999998224, 0.9399999999999999467, -0.4049999999999998601 ) ) ;
#437 = AXIS2_PLACEMENT_3D ( 'NONE', #1080, #983, #986 ) ;
#438 = CIRCLE ( 'NONE', #683, 0.03999999999999999389 ) ;
#439 = FACE_OUTER_BOUND ( 'NONE', #985, .T. ) ;
#440 = DIRECTION ( 'NONE',  ( -1.338521200599388434E-16, 0.0000000000000000000, -1.000000000000000000 ) ) ;
#441 = ORIENTED_EDGE ( 'NONE', *, *, #23, .F. ) ;
#442 = VERTEX_POINT ( 'NONE', #1066 ) ;
#443 = CARTESIAN_POINT ( 'NONE',  ( 0.7599999999999997868, 0.9000000000000000222, 0.3649999999999999911 ) ) ;
#444 = ORIENTED_EDGE ( 'NONE', *, *, #6, .T. ) ;
#445 = ORIENTED_EDGE ( 'NONE', *, *, #568, .F. ) ;
#446 = EDGE_CURVE ( 'NONE', #816, #693, #1248, .T. ) ;
#447 = MECHANICAL_DESIGN_GEOMETRIC_PRESENTATION_REPRESENTATION (  '', ( #831 ), #738 ) ;
#448 = DIRECTION ( 'NONE',  ( 0.0000000000000000000, -1.000000000000000000, 0.0000000000000000000 ) ) ;
#449 = CARTESIAN_POINT ( 'NONE',  ( -0.4499999999999999001, 0.03999999999999999389, -0.4049999999999998601 ) ) ;
#450 = DIRECTION ( 'NONE',  ( -0.0000000000000000000, 1.000000000000000000, -0.0000000000000000000 ) ) ;
#451 = ADVANCED_FACE ( 'NONE', ( #404 ), #879, .F. ) ;
#452 = CARTESIAN_POINT ( 'NONE',  ( -0.7599999999999997868, 0.9000000000000000222, 0.4049999999999999711 ) ) ;
#453 = EDGE_CURVE ( 'NONE', #765, #410, #844, .T. ) ;
#454 = VECTOR ( 'NONE', #1165, 1000.000000000000000 ) ;
#455 = VECTOR ( 'NONE', #1211, 1000.000000000000000 ) ;
#456 = FACE_OUTER_BOUND ( 'NONE', #256, .T. ) ;
#457 = DIRECTION ( 'NONE',  ( 0.0000000000000000000, 1.000000000000000000, 0.0000000000000000000 ) ) ;
#458 = DIRECTION ( 'NONE',  ( 0.0000000000000000000, 0.0000000000000000000, -1.000000000000000000 ) ) ;
#459 = VECTOR ( 'NONE', #1234, 1000.000000000000000 ) ;
#460 = ORIENTED_EDGE ( 'NONE', *, *, #497, .F. ) ;
#461 = CARTESIAN_POINT ( 'NONE',  ( -0.7999999999999998224, 0.03999999999999999389, -0.3649999999999998801 ) ) ;
#462 = ORIENTED_EDGE ( 'NONE', *, *, #828, .T. ) ;
#463 = ORIENTED_EDGE ( 'NONE', *, *, #1155, .T. ) ;
#464 = DIRECTION ( 'NONE',  ( -1.000000000000000000, 0.0000000000000000000, 0.0000000000000000000 ) ) ;
#465 = DIRECTION ( 'NONE',  ( 0.0000000000000000000, 0.0000000000000000000, 1.000000000000000000 ) ) ;
#466 = VERTEX_POINT ( 'NONE', #773 ) ;
#467 = AXIS2_PLACEMENT_3D ( 'NONE', #386, #88, #1078 ) ;
#468 = DIRECTION ( 'NONE',  ( 0.0000000000000000000, 0.0000000000000000000, 1.000000000000000000 ) ) ;
#469 = DIRECTION ( 'NONE',  ( 1.000000000000000000, 0.0000000000000000000, -8.673617379884036705E-17 ) ) ;
#470 = ADVANCED_FACE ( 'NONE', ( #1201 ), #900, .T. ) ;
#471 = DIRECTION ( 'NONE',  ( 1.000000000000000000, -0.0000000000000000000, -0.0000000000000000000 ) ) ;
#472 = STYLED_ITEM ( 'NONE', ( #91 ), #100 ) ;
#473 = FACE_OUTER_BOUND ( 'NONE', #1137, .T. ) ;
#474 = CYLINDRICAL_SURFACE ( 'NONE', #307, 0.03999999999999999389 ) ;
#475 = ORIENTED_EDGE ( 'NONE', *, *, #1136, .F. ) ;
#476 = EDGE_LOOP ( 'NONE', ( #739, #561, #1257, #287 ) ) ;
#477 = EDGE_LOOP ( 'NONE', ( #664, #1152, #878, #1043 ) ) ;
#478 = ORIENTED_EDGE ( 'NONE', *, *, #828, .F. ) ;
#479 = SURFACE_STYLE_USAGE ( .BOTH. , #974 ) ;
#480 = EDGE_CURVE ( 'NONE', #80, #1060, #501, .T. ) ;
#481 = DIRECTION ( 'NONE',  ( 1.000000000000000000, 0.0000000000000000000, -1.338521200599388680E-16 ) ) ;
#482 = AXIS2_PLACEMENT_3D ( 'NONE', #193, #491, #304 ) ;
#483 = DIRECTION ( 'NONE',  ( 0.0000000000000000000, 0.0000000000000000000, 1.000000000000000000 ) ) ;
#484 = LINE ( 'NONE', #597, #454 ) ;
#485 = CIRCLE ( 'NONE', #1244, 0.03999999999999999389 ) ;
#486 = PRESENTATION_LAYER_ASSIGNMENT (  '', '', ( #472 ) ) ;
#487 = VECTOR ( 'NONE', #1116, 1000.000000000000000 ) ;
#488 = LINE ( 'NONE', #1144, #718 ) ;
#489 = DIRECTION ( 'NONE',  ( 0.0000000000000000000, 1.000000000000000000, 0.0000000000000000000 ) ) ;
#490 = ORIENTED_EDGE ( 'NONE', *, *, #446, .T. ) ;
#491 = DIRECTION ( 'NONE',  ( 1.000000000000000000, -0.0000000000000000000, 1.338521200599388680E-16 ) ) ;
#492 = ORIENTED_EDGE ( 'NONE', *, *, #652, .T. ) ;
#493 = EDGE_LOOP ( 'NONE', ( #1029, #781, #961, #1044 ) ) ;
#494 = DIRECTION ( 'NONE',  ( 0.0000000000000000000, 0.0000000000000000000, 1.000000000000000000 ) ) ;
#495 = ORIENTED_EDGE ( 'NONE', *, *, #857, .T. ) ;
#496 = CARTESIAN_POINT ( 'NONE',  ( -0.4500000000000000111, 0.03999999999999999389, 0.3649999999999999911 ) ) ;
#497 = EDGE_CURVE ( 'NONE', #1206, #629, #282, .T. ) ;
#498 = CARTESIAN_POINT ( 'NONE',  ( -0.4500000000000000111, 0.0000000000000000000, 0.3649999999999999911 ) ) ;
#499 = CARTESIAN_POINT ( 'NONE',  ( 0.0000000000000000000, 0.9000000000000000222, 0.3649999999999999911 ) ) ;
#500 = PLANE ( 'NONE',  #838 ) ;
#501 = LINE ( 'NONE', #604, #775 ) ;
#502 = CIRCLE ( 'NONE', #1119, 0.03999999999999999389 ) ;
#503 = VERTEX_POINT ( 'NONE', #790 ) ;
#504 = MECHANICAL_DESIGN_GEOMETRIC_PRESENTATION_REPRESENTATION (  '', ( #667 ), #880 ) ;
#505 = EDGE_LOOP ( 'NONE', ( #646, #611, #236 ) ) ;
#506 = CARTESIAN_POINT ( 'NONE',  ( -0.7599999999999997868, 0.9000000000000000222, 0.3649999999999999911 ) ) ;
#507 = ORIENTED_EDGE ( 'NONE', *, *, #1077, .F. ) ;
#508 = CARTESIAN_POINT ( 'NONE',  ( 0.7599999999999997868, 0.9000000000000000222, 0.3649999999999999911 ) ) ;
#509 = DIRECTION ( 'NONE',  ( -0.0000000000000000000, 0.0000000000000000000, -1.000000000000000000 ) ) ;
#510 = EDGE_CURVE ( 'NONE', #765, #852, #951, .T. ) ;
#511 = DIRECTION ( 'NONE',  ( 0.0000000000000000000, -0.0000000000000000000, 1.000000000000000000 ) ) ;
#512 = CARTESIAN_POINT ( 'NONE',  ( 0.7599999999999997868, 0.04000000000000000083, 0.3649999999999999911 ) ) ;
#513 = FACE_OUTER_BOUND ( 'NONE', #1162, .T. ) ;
#514 = CIRCLE ( 'NONE', #806, 0.03999999999999999389 ) ;
#515 = DIRECTION ( 'NONE',  ( 1.000000000000000000, 0.0000000000000000000, -1.338521200599388680E-16 ) ) ;
#516 = VECTOR ( 'NONE', #1106, 1000.000000000000000 ) ;
#517 = LINE ( 'NONE', #559, #459 ) ;
#518 = DIRECTION ( 'NONE',  ( -1.000000000000000000, 0.0000000000000000000, -0.0000000000000000000 ) ) ;
#519 = FILL_AREA_STYLE ('',( #1000 ) ) ;
#520 = EDGE_CURVE ( 'NONE', #835, #1206, #42, .T. ) ;
#521 = ORIENTED_EDGE ( 'NONE', *, *, #772, .F. ) ;
#522 = ORIENTED_EDGE ( 'NONE', *, *, #277, .F. ) ;
#523 = AXIS2_PLACEMENT_3D ( 'NONE', #749, #552, #746 ) ;
#524 = EDGE_LOOP ( 'NONE', ( #928, #190, #490, #1076 ) ) ;
#525 = DIRECTION ( 'NONE',  ( 0.0000000000000000000, -1.000000000000000000, 0.0000000000000000000 ) ) ;
#526 = CARTESIAN_POINT ( 'NONE',  ( 500000.0000000000582, 0.01333333333333334286, 0.3649999999566318487 ) ) ;
#527 = CARTESIAN_POINT ( 'NONE',  ( 0.4500000000000000111, 0.03999999999999999389, 0.3649999999999999911 ) ) ;
#528 = CARTESIAN_POINT ( 'NONE',  ( -0.4499999999999999001, 0.9399999999999999467, -0.3649999999999998801 ) ) ;
#529 = ADVANCED_FACE ( 'NONE', ( #232 ), #1220, .T. ) ;
#530 = MANIFOLD_SOLID_BREP ( 'Mirror2', #575 ) ;
#531 = AXIS2_PLACEMENT_3D ( 'NONE', #111, #511, #1097 ) ;
#532 = DIRECTION ( 'NONE',  ( 0.0000000000000000000, 1.000000000000000000, 0.0000000000000000000 ) ) ;
#533 = CARTESIAN_POINT ( 'NONE',  ( 0.4500000000007275958, 0.9000000000000000222, 0.3649999999999998801 ) ) ;
#534 = CIRCLE ( 'NONE', #1226, 0.03999999999999999389 ) ;
#535 = PRESENTATION_STYLE_ASSIGNMENT (( #479 ) ) ;
#536 = LINE ( 'NONE', #69, #976 ) ;
#537 = SPHERICAL_SURFACE ( 'NONE', #33, 0.04000000000000000083 ) ;
#538 = ORIENTED_EDGE ( 'NONE', *, *, #1001, .T. ) ;
#539 = ORIENTED_EDGE ( 'NONE', *, *, #1207, .T. ) ;
#540 =( GEOMETRIC_REPRESENTATION_CONTEXT ( 3 ) GLOBAL_UNCERTAINTY_ASSIGNED_CONTEXT ( ( #194 ) ) GLOBAL_UNIT_ASSIGNED_CONTEXT ( ( #1215, #819, #118 ) ) REPRESENTATION_CONTEXT ( 'NONE', 'WORKASPACE' ) );
#541 = VERTEX_POINT ( 'NONE', #303 ) ;
#542 = ORIENTED_EDGE ( 'NONE', *, *, #617, .F. ) ;
#543 = DIRECTION ( 'NONE',  ( 1.000000000000000000, 0.0000000000000000000, -1.338521200599388680E-16 ) ) ;
#544 = DIRECTION ( 'NONE',  ( 0.0000000000000000000, 1.000000000000000000, 0.0000000000000000000 ) ) ;
#545 = ADVANCED_FACE ( 'NONE', ( #685 ), #500, .T. ) ;
#546 = EDGE_CURVE ( 'NONE', #609, #541, #1148, .T. ) ;
#547 = CARTESIAN_POINT ( 'NONE',  ( 500000.0000000000582, 0.01333333333333333419, 0.3649999999566318487 ) ) ;
#548 = AXIS2_PLACEMENT_3D ( 'NONE', #947, #651, #458 ) ;
#549 = ADVANCED_FACE ( 'NONE', ( #473 ), #698, .F. ) ;
#550 = LINE ( 'NONE', #1153, #1277 ) ;
#551 = CARTESIAN_POINT ( 'NONE',  ( 500000.0000000000582, 0.04000000000000021594, 0.3916666666232984650 ) ) ;
#552 = DIRECTION ( 'NONE',  ( 1.000000000000000000, 0.0000000000000000000, -8.673617379884036705E-17 ) ) ;
#553 = VECTOR ( 'NONE', #771, 1000.000000000000000 ) ;
#554 = COLOUR_RGB ( '',0.7921568627450980005, 0.8196078431372548767, 0.9333333333333333481 ) ;
#555 = CARTESIAN_POINT ( 'NONE',  ( 0.4499999999999999001, 0.9399999999999999467, -0.4049999999999998601 ) ) ;
#556 = COLOUR_RGB ( '',0.4862745098039215619, 0.2352941176470588203, 0.01568627450980392135 ) ;
#557 = EDGE_LOOP ( 'NONE', ( #14, #35, #701, #1221 ) ) ;
#558 = CARTESIAN_POINT ( 'NONE',  ( -0.7599999999999997868, 0.9399999999999999467, -0.3649999999999998801 ) ) ;
#559 = CARTESIAN_POINT ( 'NONE',  ( 0.7999999999999998224, 0.9000000000000000222, 0.4049999999999999711 ) ) ;
#560 = ORIENTED_EDGE ( 'NONE', *, *, #899, .F. ) ;
#561 = ORIENTED_EDGE ( 'NONE', *, *, #1232, .F. ) ;
#562 = DIRECTION ( 'NONE',  ( 1.000000000000000000, -0.0000000000000000000, 0.0000000000000000000 ) ) ;
#563 = EDGE_CURVE ( 'NONE', #1008, #37, #1057, .T. ) ;
#564 = ORIENTED_EDGE ( 'NONE', *, *, #1077, .T. ) ;
#565 = PLANE ( 'NONE',  #523 ) ;
#566 = CARTESIAN_POINT ( 'NONE',  ( 0.0000000000000000000, 0.0000000000000000000, -0.3649999999999998801 ) ) ;
#567 = CARTESIAN_POINT ( 'NONE',  ( 0.4500000000000000111, 0.9000000000000000222, 0.3649999999999999911 ) ) ;
#568 = EDGE_CURVE ( 'NONE', #852, #835, #358, .T. ) ;
#569 = STYLED_ITEM ( 'NONE', ( #283 ), #1065 ) ;
#570 = DIRECTION ( 'NONE',  ( -1.000000000000000000, -0.0000000000000000000, -0.0000000000000000000 ) ) ;
#571 = LINE ( 'NONE', #426, #1082 ) ;
#572 = ORIENTED_EDGE ( 'NONE', *, *, #1222, .T. ) ;
#573 = ORIENTED_EDGE ( 'NONE', *, *, #836, .T. ) ;
#574 = ORIENTED_EDGE ( 'NONE', *, *, #510, .T. ) ;
#575 = CLOSED_SHELL ( 'NONE', ( #243, #451, #369, #1117, #339, #348, #385, #740, #529, #937, #1033, #165, #227, #329, #136, #861, #1213, #1139 ) ) ;
#576 = AXIS2_PLACEMENT_3D ( 'NONE', #567, #355, #259 ) ;
#577 = CARTESIAN_POINT ( 'NONE',  ( 500000.0000000000582, 0.01333333333333333419, -0.3650000000433680225 ) ) ;
#578 = CARTESIAN_POINT ( 'NONE',  ( -0.7999999999999998224, 0.9399999999999999467, 0.4049999999999999711 ) ) ;
#579 = EDGE_CURVE ( 'NONE', #765, #1268, #327, .T. ) ;
#580 = VECTOR ( 'NONE', #379, 1000.000000000000000 ) ;
#581 = LINE ( 'NONE', #707, #248 ) ;
#582 = VECTOR ( 'NONE', #1196, 1000.000000000000000 ) ;
#583 = ORIENTED_EDGE ( 'NONE', *, *, #579, .T. ) ;
#584 = EDGE_LOOP ( 'NONE', ( #818, #375, #460, #82 ) ) ;
#585 = DIRECTION ( 'NONE',  ( -1.000000000000000000, -0.0000000000000000000, -0.0000000000000000000 ) ) ;
#586 = ORIENTED_EDGE ( 'NONE', *, *, #916, .F. ) ;
#587 = EDGE_CURVE ( 'NONE', #313, #65, #27, .T. ) ;
#588 = CARTESIAN_POINT ( 'NONE',  ( 0.4500000000007275958, 0.01333333333333333419, 0.3650000000235578690 ) ) ;
#589 = AXIS2_PLACEMENT_3D ( 'NONE', #157, #856, #859 ) ;
#590 = DIRECTION ( 'NONE',  ( -0.0000000000000000000, -1.000000000000000000, -0.0000000000000000000 ) ) ;
#591 = DIRECTION ( 'NONE',  ( 0.0000000000000000000, 0.0000000000000000000, 1.000000000000000000 ) ) ;
#592 = DIRECTION ( 'NONE',  ( 1.000000000000000000, -0.0000000000000000000, 1.338521200599388680E-16 ) ) ;
#593 = FACE_OUTER_BOUND ( 'NONE', #272, .T. ) ;
#594 = AXIS2_PLACEMENT_3D ( 'NONE', #506, #1280, #1184 ) ;
#595 = VECTOR ( 'NONE', #1230, 1000.000000000000000 ) ;
#596 = VECTOR ( 'NONE', #731, 1000.000000000000000 ) ;
#597 = CARTESIAN_POINT ( 'NONE',  ( -0.4499999999999999001, 0.9399999999999999467, -0.4049999999999998601 ) ) ;
#598 = ORIENTED_EDGE ( 'NONE', *, *, #783, .T. ) ;
#599 = EDGE_LOOP ( 'NONE', ( #173, #192, #462, #344 ) ) ;
#600 = VERTEX_POINT ( 'NONE', #432 ) ;
#601 = DIRECTION ( 'NONE',  ( -1.000000000000000000, 0.0000000000000000000, 0.0000000000000000000 ) ) ;
#602 = EDGE_CURVE ( 'NONE', #703, #993, #571, .T. ) ;
#603 = AXIS2_PLACEMENT_3D ( 'NONE', #436, #36, #134 ) ;
#604 = CARTESIAN_POINT ( 'NONE',  ( 500000.0000000000582, 0.8999999999999998002, -0.3916666667100346388 ) ) ;
#605 = CYLINDRICAL_SURFACE ( 'NONE', #467, 0.03999999999999999389 ) ;
#606 = VECTOR ( 'NONE', #1090, 1000.000000000000000 ) ;
#607 = EDGE_CURVE ( 'NONE', #853, #378, #888, .T. ) ;
#608 = LINE ( 'NONE', #351, #1098 ) ;
#609 = VERTEX_POINT ( 'NONE', #712 ) ;
#610 = SURFACE_SIDE_STYLE ('',( #154 ) ) ;
#611 = ORIENTED_EDGE ( 'NONE', *, *, #677, .T. ) ;
#612 = CARTESIAN_POINT ( 'NONE',  ( 0.4499999999999999001, 0.9399999999999999467, -0.4049999999999998601 ) ) ;
#613 = CARTESIAN_POINT ( 'NONE',  ( -0.4499999999999999001, 0.9000000000000000222, 0.3916666666666666630 ) ) ;
#614 = ORIENTED_EDGE ( 'NONE', *, *, #677, .F. ) ;
#615 =( NAMED_UNIT ( * ) PLANE_ANGLE_UNIT ( ) SI_UNIT ( $, .RADIAN. ) );
#616 = DIRECTION ( 'NONE',  ( 1.000000000000000000, 0.0000000000000000000, 0.0000000000000000000 ) ) ;
#617 = EDGE_CURVE ( 'NONE', #290, #1012, #920, .T. ) ;
#618 = CARTESIAN_POINT ( 'NONE',  ( 0.7999999999999998224, 0.03999999999999999389, -0.3649999999999998801 ) ) ;
#619 = CIRCLE ( 'NONE', #576, 0.03999999999999999389 ) ;
#620 = VECTOR ( 'NONE', #1045, 1000.000000000000000 ) ;
#621 = CARTESIAN_POINT ( 'NONE',  ( -0.7999999999999998224, 0.03999999999999999389, 0.3649999999999999911 ) ) ;
#622 = DIRECTION ( 'NONE',  ( 1.000000000000000000, 0.0000000000000000000, -1.338521200599388680E-16 ) ) ;
#623 = PLANE ( 'NONE',  #195 ) ;
#624 = EDGE_CURVE ( 'NONE', #46, #693, #185, .T. ) ;
#625 = ORIENTED_EDGE ( 'NONE', *, *, #249, .F. ) ;
#626 = ORIENTED_EDGE ( 'NONE', *, *, #1146, .F. ) ;
#627 = AXIS2_PLACEMENT_3D ( 'NONE', #1088, #137, #839 ) ;
#628 = DIRECTION ( 'NONE',  ( 1.000000000000000000, -0.0000000000000000000, -0.0000000000000000000 ) ) ;
#629 = VERTEX_POINT ( 'NONE', #1209 ) ;
#630 = CARTESIAN_POINT ( 'NONE',  ( 0.4500000000000000111, 0.9000000000000000222, 0.4049999999999999711 ) ) ;
#631 = ADVANCED_FACE ( 'NONE', ( #1007 ), #295, .T. ) ;
#632 = CARTESIAN_POINT ( 'NONE',  ( -0.4499999999999999001, 0.01333333333333334286, 0.3649999999999999911 ) ) ;
#633 = CARTESIAN_POINT ( 'NONE',  ( 0.4500000000007275958, 0.9000000000000000222, 0.3916666666666665519 ) ) ;
#634 = AXIS2_PLACEMENT_3D ( 'NONE', #898, #687, #86 ) ;
#635 = ADVANCED_FACE ( 'NONE', ( #791 ), #264, .T. ) ;
#636 = CARTESIAN_POINT ( 'NONE',  ( -0.7999999999999998224, 0.9399999999999999467, 0.3649999999999999911 ) ) ;
#637 = DIRECTION ( 'NONE',  ( -1.000000000000000000, 0.0000000000000000000, 0.0000000000000000000 ) ) ;
#638 = CIRCLE ( 'NONE', #820, 0.02666666666666669960 ) ;
#639 = LINE ( 'NONE', #1205, #371 ) ;
#640 = CARTESIAN_POINT ( 'NONE',  ( 0.4500000000000000111, 0.9399999999999999467, 0.4049999999999999711 ) ) ;
#641 = CARTESIAN_POINT ( 'NONE',  ( -0.4500000000000000111, 0.9266666666666666385, -0.3649999999999998801 ) ) ;
#642 = ORIENTED_EDGE ( 'NONE', *, *, #1019, .F. ) ;
#643 = DIRECTION ( 'NONE',  ( 0.0000000000000000000, 0.0000000000000000000, 1.000000000000000000 ) ) ;
#644 = ADVANCED_FACE ( 'NONE', ( #30 ), #435, .F. ) ;
#645 = EDGE_CURVE ( 'NONE', #675, #442, #89, .T. ) ;
#646 = ORIENTED_EDGE ( 'NONE', *, *, #607, .T. ) ;
#647 = ORIENTED_EDGE ( 'NONE', *, *, #13, .T. ) ;
#648 = AXIS2_PLACEMENT_3D ( 'NONE', #343, #1140, #468 ) ;
#649 = PLANE ( 'NONE',  #869 ) ;
#650 = CARTESIAN_POINT ( 'NONE',  ( 0.4500000000007275958, 0.03999999999999999389, -0.3916666666666666075 ) ) ;
#651 = DIRECTION ( 'NONE',  ( 0.0000000000000000000, -1.000000000000000000, 0.0000000000000000000 ) ) ;
#652 = EDGE_CURVE ( 'NONE', #1179, #675, #1111, .T. ) ;
#653 = CARTESIAN_POINT ( 'NONE',  ( -0.4500000000000000111, 0.03999999999999999389, -0.3649999999999998801 ) ) ;
#654 = AXIS2_PLACEMENT_3D ( 'NONE', #443, #54, #152 ) ;
#655 = DIRECTION ( 'NONE',  ( -1.000000000000000000, -0.0000000000000000000, 8.673617379884036705E-17 ) ) ;
#656 = CYLINDRICAL_SURFACE ( 'NONE', #207, 0.03999999999999999389 ) ;
#657 = LINE ( 'NONE', #57, #620 ) ;
#658 = CARTESIAN_POINT ( 'NONE',  ( 0.4499999999999999001, 0.0000000000000000000, -0.3649999999999998801 ) ) ;
#659 = ADVANCED_FACE ( 'NONE', ( #830 ), #656, .T. ) ;
#660 = VECTOR ( 'NONE', #854, 1000.000000000000000 ) ;
#661 = FACE_OUTER_BOUND ( 'NONE', #736, .T. ) ;
#662 = ORIENTED_EDGE ( 'NONE', *, *, #1242, .F. ) ;
#663 = CARTESIAN_POINT ( 'NONE',  ( 0.7599999999999997868, 0.9000000000000000222, 0.3649999999999999911 ) ) ;
#664 = ORIENTED_EDGE ( 'NONE', *, *, #1091, .T. ) ;
#665 = ORIENTED_EDGE ( 'NONE', *, *, #645, .F. ) ;
#666 = CARTESIAN_POINT ( 'NONE',  ( -0.7999999999999998224, 0.9399999999999999467, -0.3649999999999998801 ) ) ;
#667 = STYLED_ITEM ( 'NONE', ( #990 ), #530 ) ;
#668 = ORIENTED_EDGE ( 'NONE', *, *, #510, .F. ) ;
#669 = AXIS2_PLACEMENT_3D ( 'NONE', #428, #433, #418 ) ;
#670 = PLANE ( 'NONE',  #752 ) ;
#671 = AXIS2_PLACEMENT_3D ( 'NONE', #1193, #328, #218 ) ;
#672 = LINE ( 'NONE', #577, #11 ) ;
#673 = CYLINDRICAL_SURFACE ( 'NONE', #671, 0.02666666666666664756 ) ;
#674 = SURFACE_STYLE_FILL_AREA ( #519 ) ;
#675 = VERTEX_POINT ( 'NONE', #632 ) ;
#676 = VERTEX_POINT ( 'NONE', #1203 ) ;
#677 = EDGE_CURVE ( 'NONE', #378, #313, #917, .T. ) ;
#678 = ORIENTED_EDGE ( 'NONE', *, *, #40, .F. ) ;
#679 = CARTESIAN_POINT ( 'NONE',  ( 0.0000000000000000000, 0.0000000000000000000, 0.0000000000000000000 ) ) ;
#680 = AXIS2_PLACEMENT_3D ( 'NONE', #1178, #802, #1186 ) ;
#681 = UNCERTAINTY_MEASURE_WITH_UNIT (LENGTH_MEASURE( 1.000000000000000082E-05 ), #381, 'distance_accuracy_value', 'NONE');
#682 = CARTESIAN_POINT ( 'NONE',  ( 0.4499999999999999001, 0.9399999999999999467, -0.4049999999999998601 ) ) ;
#683 = AXIS2_PLACEMENT_3D ( 'NONE', #161, #1150, #59 ) ;
#684 = PLANE ( 'NONE',  #945 ) ;
#685 = FACE_OUTER_BOUND ( 'NONE', #431, .T. ) ;
#686 = FACE_OUTER_BOUND ( 'NONE', #127, .T. ) ;
#687 = DIRECTION ( 'NONE',  ( 0.0000000000000000000, 0.0000000000000000000, 1.000000000000000000 ) ) ;
#688 = FACE_OUTER_BOUND ( 'NONE', #796, .T. ) ;
#689 = CIRCLE ( 'NONE', #74, 0.03999999999999999389 ) ;
#690 = ORIENTED_EDGE ( 'NONE', *, *, #876, .T. ) ;
#691 = VERTEX_POINT ( 'NONE', #221 ) ;
#692 = DIRECTION ( 'NONE',  ( 1.338521200599388680E-16, 0.0000000000000000000, 1.000000000000000000 ) ) ;
#693 = VERTEX_POINT ( 'NONE', #618 ) ;
#694 = ORIENTED_EDGE ( 'NONE', *, *, #1216, .T. ) ;
#695 = EDGE_CURVE ( 'NONE', #993, #410, #534, .T. ) ;
#696 = AXIS2_PLACEMENT_3D ( 'NONE', #843, #244, #745 ) ;
#697 = DIRECTION ( 'NONE',  ( 1.000000000000000000, 0.0000000000000000000, 0.0000000000000000000 ) ) ;
#698 = PLANE ( 'NONE',  #865 ) ;
#699 = AXIS2_PLACEMENT_3D ( 'NONE', #22, #817, #8 ) ;
#700 = VECTOR ( 'NONE', #306, 1000.000000000000000 ) ;
#701 = ORIENTED_EDGE ( 'NONE', *, *, #1136, .T. ) ;
#702 = CARTESIAN_POINT ( 'NONE',  ( -0.7599999999999997868, 0.03999999999999999389, -0.4049999999999998601 ) ) ;
#703 = VERTEX_POINT ( 'NONE', #449 ) ;
#704 = ORIENTED_EDGE ( 'NONE', *, *, #23, .T. ) ;
#705 = DIRECTION ( 'NONE',  ( 0.0000000000000000000, 1.000000000000000000, 0.0000000000000000000 ) ) ;
#706 = VERTEX_POINT ( 'NONE', #942 ) ;
#707 = CARTESIAN_POINT ( 'NONE',  ( -0.7999999999999998224, 0.9000000000000000222, 0.4049999999999999711 ) ) ;
#708 = EDGE_CURVE ( 'NONE', #1059, #1194, #362, .T. ) ;
#709 = DIRECTION ( 'NONE',  ( 1.000000000000000000, 0.0000000000000000000, -8.673617379884036705E-17 ) ) ;
#710 = CARTESIAN_POINT ( 'NONE',  ( -0.4499999999999999001, 0.9399999999999999467, -0.4049999999999998601 ) ) ;
#711 = CARTESIAN_POINT ( 'NONE',  ( 0.7999999999999998224, 0.03999999999999999389, 0.4049999999999999711 ) ) ;
#712 = CARTESIAN_POINT ( 'NONE',  ( 0.4500000000007275958, 0.01333333333333333419, -0.3649999999999999911 ) ) ;
#713 = SURFACE_STYLE_USAGE ( .BOTH. , #1005 ) ;
#714 = LINE ( 'NONE', #588, #341 ) ;
#715 = FACE_OUTER_BOUND ( 'NONE', #723, .T. ) ;
#716 = EDGE_CURVE ( 'NONE', #1194, #1042, #780, .T. ) ;
#717 = LINE ( 'NONE', #555, #108 ) ;
#718 = VECTOR ( 'NONE', #655, 1000.000000000000000 ) ;
#719 = MECHANICAL_DESIGN_GEOMETRIC_PRESENTATION_REPRESENTATION (  '', ( #569 ), #1176 ) ;
#720 = ORIENTED_EDGE ( 'NONE', *, *, #1048, .T. ) ;
#721 = ORIENTED_EDGE ( 'NONE', *, *, #1263, .T. ) ;
#722 = DIRECTION ( 'NONE',  ( -1.000000000000000000, -0.0000000000000000000, -0.0000000000000000000 ) ) ;
#723 = EDGE_LOOP ( 'NONE', ( #1115, #219, #492, #799 ) ) ;
#724 = DIRECTION ( 'NONE',  ( 1.000000000000000000, 0.0000000000000000000, -1.338521200599388680E-16 ) ) ;
#725 = SURFACE_STYLE_USAGE ( .BOTH. , #907 ) ;
#726 = DIRECTION ( 'NONE',  ( 0.0000000000000000000, 1.000000000000000000, 0.0000000000000000000 ) ) ;
#727 = AXIS2_PLACEMENT_3D ( 'NONE', #918, #543, #1017 ) ;
#728 = ADVANCED_FACE ( 'NONE', ( #92 ), #1267, .T. ) ;
#729 = DIRECTION ( 'NONE',  ( 0.0000000000000000000, -1.000000000000000000, 0.0000000000000000000 ) ) ;
#730 = CYLINDRICAL_SURFACE ( 'NONE', #271, 0.02666666666666664756 ) ;
#731 = DIRECTION ( 'NONE',  ( -0.0000000000000000000, 1.000000000000000000, -0.0000000000000000000 ) ) ;
#732 = VECTOR ( 'NONE', #1062, 1000.000000000000000 ) ;
#733 = LINE ( 'NONE', #612, #1159 ) ;
#734 = CARTESIAN_POINT ( 'NONE',  ( 500000.0000000000582, 0.9000000000000000222, 0.3916666666232984650 ) ) ;
#735 = ADVANCED_FACE ( 'NONE', ( #253 ), #565, .F. ) ;
#736 = EDGE_LOOP ( 'NONE', ( #996, #784, #1154 ) ) ;
#737 = ORIENTED_EDGE ( 'NONE', *, *, #1013, .F. ) ;
#738 =( GEOMETRIC_REPRESENTATION_CONTEXT ( 3 ) GLOBAL_UNCERTAINTY_ASSIGNED_CONTEXT ( ( #681 ) ) GLOBAL_UNIT_ASSIGNED_CONTEXT ( ( #381, #273, #276 ) ) REPRESENTATION_CONTEXT ( 'NONE', 'WORKASPACE' ) );
#739 = ORIENTED_EDGE ( 'NONE', *, *, #159, .F. ) ;
#740 = ADVANCED_FACE ( 'NONE', ( #979 ), #885, .T. ) ;
#741 = CARTESIAN_POINT ( 'NONE',  ( -0.7599999999999997868, 0.03999999999999999389, -0.4049999999999998601 ) ) ;
#742 = EDGE_CURVE ( 'NONE', #203, #299, #860, .T. ) ;
#743 = CARTESIAN_POINT ( 'NONE',  ( 0.7999999999999998224, 0.9000000000000000222, 0.3649999999999999911 ) ) ;
#744 = AXIS2_PLACEMENT_3D ( 'NONE', #1046, #337, #1128 ) ;
#745 = DIRECTION ( 'NONE',  ( -1.000000000000000000, 0.0000000000000000000, 0.0000000000000000000 ) ) ;
#746 = DIRECTION ( 'NONE',  ( -8.673617379884036705E-17, 0.0000000000000000000, -1.000000000000000000 ) ) ;
#747 = FACE_OUTER_BOUND ( 'NONE', #1177, .T. ) ;
#748 = LINE ( 'NONE', #841, #595 ) ;
#749 = CARTESIAN_POINT ( 'NONE',  ( -0.4500000000000000111, 0.9000000000000000222, -0.3649999999999998801 ) ) ;
#750 = ORIENTED_EDGE ( 'NONE', *, *, #624, .T. ) ;
#751 = DIRECTION ( 'NONE',  ( 0.0000000000000000000, 0.0000000000000000000, 1.000000000000000000 ) ) ;
#752 = AXIS2_PLACEMENT_3D ( 'NONE', #153, #368, #965 ) ;
#753 = ORIENTED_EDGE ( 'NONE', *, *, #708, .T. ) ;
#754 = VERTEX_POINT ( 'NONE', #1051 ) ;
#755 = ADVANCED_FACE ( 'NONE', ( #1112 ), #119, .T. ) ;
#756 = CARTESIAN_POINT ( 'NONE',  ( 0.7599999999999997868, 0.04000000000000000083, -0.3649999999999998801 ) ) ;
#757 = DIRECTION ( 'NONE',  ( 1.000000000000000000, 0.0000000000000000000, 0.0000000000000000000 ) ) ;
#758 = DIRECTION ( 'NONE',  ( 0.0000000000000000000, 0.0000000000000000000, 1.000000000000000000 ) ) ;
#759 = EDGE_CURVE ( 'NONE', #1061, #110, #619, .T. ) ;
#760 = AXIS2_PLACEMENT_3D ( 'NONE', #1074, #483, #1249 ) ;
#761 = DIRECTION ( 'NONE',  ( -1.000000000000000000, 0.0000000000000000000, -0.0000000000000000000 ) ) ;
#762 = COLOUR_RGB ( '',0.7921568627450980005, 0.8196078431372548767, 0.9333333333333333481 ) ;
#763 = LINE ( 'NONE', #179, #553 ) ;
#764 = LINE ( 'NONE', #786, #172 ) ;
#765 = VERTEX_POINT ( 'NONE', #1246 ) ;
#766 =( LENGTH_UNIT ( ) NAMED_UNIT ( * ) SI_UNIT ( .MILLI., .METRE. ) );
#767 = CLOSED_SHELL ( 'NONE', ( #470, #735, #549, #1036, #124, #1021, #223, #39, #251, #1259 ) ) ;
#768 = ORIENTED_EDGE ( 'NONE', *, *, #1083, .F. ) ;
#769 = ORIENTED_EDGE ( 'NONE', *, *, #480, .F. ) ;
#770 = PRODUCT_CONTEXT ( 'NONE', #169, 'mechanical' ) ;
#771 = DIRECTION ( 'NONE',  ( -0.0000000000000000000, 1.000000000000000000, -0.0000000000000000000 ) ) ;
#772 = EDGE_CURVE ( 'NONE', #1135, #868, #325, .T. ) ;
#773 = CARTESIAN_POINT ( 'NONE',  ( -0.4500000000000000111, 0.9399999999999999467, 0.3649999999999999911 ) ) ;
#774 = LINE ( 'NONE', #1050, #1126 ) ;
#775 = VECTOR ( 'NONE', #1199, 1000.000000000000000 ) ;
#776 = DIRECTION ( 'NONE',  ( 1.000000000000000000, 0.0000000000000000000, -8.673617379884036705E-17 ) ) ;
#777 = SPHERICAL_SURFACE ( 'NONE', #801, 0.04000000000000000083 ) ;
#778 = PRODUCT ( '06035C224KAT2A', '06035C224KAT2A', '', ( #770 ) ) ;
#779 = LINE ( 'NONE', #323, #516 ) ;
#780 = LINE ( 'NONE', #641, #387 ) ;
#781 = ORIENTED_EDGE ( 'NONE', *, *, #242, .T. ) ;
#782 = ORIENTED_EDGE ( 'NONE', *, *, #587, .T. ) ;
#783 = EDGE_CURVE ( 'NONE', #110, #299, #517, .T. ) ;
#784 = ORIENTED_EDGE ( 'NONE', *, *, #114, .T. ) ;
#785 = CARTESIAN_POINT ( 'NONE',  ( 0.0000000000000000000, 0.9399999999999999467, 0.0000000000000000000 ) ) ;
#786 = CARTESIAN_POINT ( 'NONE',  ( 0.7999999999999998224, 0.03999999999999999389, -0.4049999999999998601 ) ) ;
#787 = DIRECTION ( 'NONE',  ( 1.000000000000000000, 0.0000000000000000000, 0.0000000000000000000 ) ) ;
#788 = CARTESIAN_POINT ( 'NONE',  ( -0.7999999999999998224, 0.9399999999999999467, -0.4049999999999998601 ) ) ;
#789 = AXIS2_PLACEMENT_3D ( 'NONE', #17, #911, #905 ) ;
#790 = CARTESIAN_POINT ( 'NONE',  ( 0.4500000000000000111, 0.0000000000000000000, 0.3649999999999999911 ) ) ;
#791 = FACE_OUTER_BOUND ( 'NONE', #200, .T. ) ;
#792 = SURFACE_STYLE_FILL_AREA ( #1255 ) ;
#793 = LINE ( 'NONE', #666, #732 ) ;
#794 = LINE ( 'NONE', #143, #845 ) ;
#795 = ORIENTED_EDGE ( 'NONE', *, *, #277, .T. ) ;
#796 = EDGE_LOOP ( 'NONE', ( #560, #922, #1104, #1113 ) ) ;
#797 = CARTESIAN_POINT ( 'NONE',  ( -0.4500000000000000111, 0.9266666666666666385, -0.3649999999999998801 ) ) ;
#798 = DIRECTION ( 'NONE',  ( 1.000000000000000000, 0.0000000000000000000, -1.338521200599388680E-16 ) ) ;
#799 = ORIENTED_EDGE ( 'NONE', *, *, #104, .F. ) ;
#800 = CARTESIAN_POINT ( 'NONE',  ( -0.7599999999999997868, 0.9000000000000000222, 0.3649999999999999911 ) ) ;
#801 = AXIS2_PLACEMENT_3D ( 'NONE', #927, #1105, #25 ) ;
#802 = DIRECTION ( 'NONE',  ( -0.0000000000000000000, -0.0000000000000000000, 1.000000000000000000 ) ) ;
#803 =( LENGTH_UNIT ( ) NAMED_UNIT ( * ) SI_UNIT ( .MILLI., .METRE. ) );
#804 = DIRECTION ( 'NONE',  ( 0.0000000000000000000, 1.000000000000000000, 0.0000000000000000000 ) ) ;
#805 = FACE_OUTER_BOUND ( 'NONE', #941, .T. ) ;
#806 = AXIS2_PLACEMENT_3D ( 'NONE', #496, #592, #1087 ) ;
#807 = FACE_OUTER_BOUND ( 'NONE', #1132, .T. ) ;
#808 = VECTOR ( 'NONE', #246, 1000.000000000000000 ) ;
#809 = DIRECTION ( 'NONE',  ( -1.000000000000000000, 0.0000000000000000000, 0.0000000000000000000 ) ) ;
#810 = CYLINDRICAL_SURFACE ( 'NONE', #132, 0.03999999999999999389 ) ;
#811 = DIRECTION ( 'NONE',  ( 0.0000000000000000000, 0.0000000000000000000, 1.000000000000000000 ) ) ;
#812 = DIRECTION ( 'NONE',  ( -1.000000000000000000, 0.0000000000000000000, -1.338521200599388680E-16 ) ) ;
#813 = ORIENTED_EDGE ( 'NONE', *, *, #1263, .F. ) ;
#814 = ORIENTED_EDGE ( 'NONE', *, *, #316, .F. ) ;
#815 = CARTESIAN_POINT ( 'NONE',  ( -0.7599999999999997868, 0.9000000000000000222, 0.3649999999999999911 ) ) ;
#816 = VERTEX_POINT ( 'NONE', #51 ) ;
#817 = DIRECTION ( 'NONE',  ( -1.000000000000000000, -0.0000000000000000000, 8.673617379884036705E-17 ) ) ;
#818 = ORIENTED_EDGE ( 'NONE', *, *, #1030, .F. ) ;
#819 =( NAMED_UNIT ( * ) PLANE_ANGLE_UNIT ( ) SI_UNIT ( $, .RADIAN. ) );
#820 = AXIS2_PLACEMENT_3D ( 'NONE', #1054, #469, #186 ) ;
#821 = CARTESIAN_POINT ( 'NONE',  ( 500000.0000000000582, 0.9266666666666666385, -0.3650000000433680225 ) ) ;
#822 = CARTESIAN_POINT ( 'NONE',  ( 0.4500000000007275958, 0.8999999999999998002, -0.3916666666666666075 ) ) ;
#823 = DIRECTION ( 'NONE',  ( -1.000000000000000000, 0.0000000000000000000, 0.0000000000000000000 ) ) ;
#824 =( NAMED_UNIT ( * ) PLANE_ANGLE_UNIT ( ) SI_UNIT ( $, .RADIAN. ) );
#825 = DIRECTION ( 'NONE',  ( 0.0000000000000000000, 0.0000000000000000000, -1.000000000000000000 ) ) ;
#826 = VECTOR ( 'NONE', #590, 1000.000000000000000 ) ;
#827 = ADVANCED_FACE ( 'NONE', ( #1174 ), #390, .T. ) ;
#828 = EDGE_CURVE ( 'NONE', #1060, #1194, #955, .T. ) ;
#829 = CIRCLE ( 'NONE', #400, 0.03999999999999999389 ) ;
#830 = FACE_OUTER_BOUND ( 'NONE', #1254, .T. ) ;
#831 = STYLED_ITEM ( 'NONE', ( #535 ), #894 ) ;
#832 = ORIENTED_EDGE ( 'NONE', *, *, #967, .T. ) ;
#833 = ORIENTED_EDGE ( 'NONE', *, *, #453, .F. ) ;
#834 = PLANE ( 'NONE',  #1064 ) ;
#835 = VERTEX_POINT ( 'NONE', #144 ) ;
#836 = EDGE_CURVE ( 'NONE', #174, #67, #488, .T. ) ;
#837 = CARTESIAN_POINT ( 'NONE',  ( 0.4499999999999999001, 0.9000000000000000222, -0.4049999999999998601 ) ) ;
#838 = AXIS2_PLACEMENT_3D ( 'NONE', #991, #705, #101 ) ;
#839 = DIRECTION ( 'NONE',  ( 0.0000000000000000000, 0.0000000000000000000, 1.000000000000000000 ) ) ;
#840 = DIRECTION ( 'NONE',  ( 0.0000000000000000000, 1.000000000000000000, 0.0000000000000000000 ) ) ;
#841 = CARTESIAN_POINT ( 'NONE',  ( -0.4499999999999999001, 0.9399999999999999467, -0.4049999999999998601 ) ) ;
#842 = ADVANCED_FACE ( 'NONE', ( #1239 ), #158, .T. ) ;
#843 = CARTESIAN_POINT ( 'NONE',  ( 0.7599999999999997868, 0.03999999999999999389, 0.3649999999999999911 ) ) ;
#844 = LINE ( 'NONE', #413, #1039 ) ;
#845 = VECTOR ( 'NONE', #349, 1000.000000000000000 ) ;
#846 = DIRECTION ( 'NONE',  ( 1.000000000000000000, 0.0000000000000000000, -8.673617379884036705E-17 ) ) ;
#847 = EDGE_CURVE ( 'NONE', #410, #239, #689, .T. ) ;
#848 = VECTOR ( 'NONE', #471, 1000.000000000000000 ) ;
#849 = ORIENTED_EDGE ( 'NONE', *, *, #716, .T. ) ;
#850 = AXIS2_PLACEMENT_3D ( 'NONE', #558, #1233, #858 ) ;
#851 = DIRECTION ( 'NONE',  ( 0.0000000000000000000, 0.0000000000000000000, -1.000000000000000000 ) ) ;
#852 = VERTEX_POINT ( 'NONE', #1253 ) ;
#853 = VERTEX_POINT ( 'NONE', #52 ) ;
#854 = DIRECTION ( 'NONE',  ( -1.000000000000000000, -0.0000000000000000000, 8.673617379884036705E-17 ) ) ;
#855 = ORIENTED_EDGE ( 'NONE', *, *, #121, .T. ) ;
#856 = DIRECTION ( 'NONE',  ( 1.000000000000000000, 0.0000000000000000000, -1.338521200599388680E-16 ) ) ;
#857 = EDGE_CURVE ( 'NONE', #65, #50, #1147, .T. ) ;
#858 = DIRECTION ( 'NONE',  ( 0.0000000000000000000, 0.0000000000000000000, -1.000000000000000000 ) ) ;
#859 = DIRECTION ( 'NONE',  ( 0.0000000000000000000, 0.0000000000000000000, 1.000000000000000000 ) ) ;
#860 = CIRCLE ( 'NONE', #654, 0.03999999999999999389 ) ;
#861 = ADVANCED_FACE ( 'NONE', ( #661 ), #15, .T. ) ;
#862 = LINE ( 'NONE', #526, #487 ) ;
#863 = LINE ( 'NONE', #198, #58 ) ;
#864 = VERTEX_POINT ( 'NONE', #1171 ) ;
#865 = AXIS2_PLACEMENT_3D ( 'NONE', #897, #401, #709 ) ;
#866 = ORIENTED_EDGE ( 'NONE', *, *, #1109, .F. ) ;
#867 = ORIENTED_EDGE ( 'NONE', *, *, #338, .F. ) ;
#868 = VERTEX_POINT ( 'NONE', #1079 ) ;
#869 = AXIS2_PLACEMENT_3D ( 'NONE', #547, #1032, #335 ) ;
#870 = AXIS2_PLACEMENT_3D ( 'NONE', #578, #99, #518 ) ;
#871 = CIRCLE ( 'NONE', #648, 0.03999999999999999389 ) ;
#872 = DIRECTION ( 'NONE',  ( 1.000000000000000000, -0.0000000000000000000, 0.0000000000000000000 ) ) ;
#873 = CIRCLE ( 'NONE', #168, 0.03999999999999999389 ) ;
#874 = DIRECTION ( 'NONE',  ( -1.000000000000000000, 0.0000000000000000000, 0.0000000000000000000 ) ) ;
#875 = FACE_OUTER_BOUND ( 'NONE', #1192, .T. ) ;
#876 = EDGE_CURVE ( 'NONE', #1269, #1085, #424, .T. ) ;
#877 = ORIENTED_EDGE ( 'NONE', *, *, #56, .T. ) ;
#878 = ORIENTED_EDGE ( 'NONE', *, *, #1070, .T. ) ;
#879 = PLANE ( 'NONE',  #1265 ) ;
#880 =( GEOMETRIC_REPRESENTATION_CONTEXT ( 3 ) GLOBAL_UNCERTAINTY_ASSIGNED_CONTEXT ( ( #1169 ) ) GLOBAL_UNIT_ASSIGNED_CONTEXT ( ( #803, #615, #398 ) ) REPRESENTATION_CONTEXT ( 'NONE', 'WORKASPACE' ) );
#881 = ORIENTED_EDGE ( 'NONE', *, *, #742, .T. ) ;
#882 = CARTESIAN_POINT ( 'NONE',  ( 0.0000000000000000000, 0.9000000000000000222, 0.3649999999999999911 ) ) ;
#883 = AXIS2_PLACEMENT_3D ( 'NONE', #461, #167, #1145 ) ;
#884 = PLANE ( 'NONE',  #392 ) ;
#885 = CYLINDRICAL_SURFACE ( 'NONE', #744, 0.03999999999999999389 ) ;
#886 = LINE ( 'NONE', #640, #265 ) ;
#887 = ORIENTED_EDGE ( 'NONE', *, *, #546, .F. ) ;
#888 = CIRCLE ( 'NONE', #318, 0.03999999999999999389 ) ;
#889 = ORIENTED_EDGE ( 'NONE', *, *, #695, .T. ) ;
#890 = DIRECTION ( 'NONE',  ( 0.0000000000000000000, -1.000000000000000000, 0.0000000000000000000 ) ) ;
#891 = ORIENTED_EDGE ( 'NONE', *, *, #520, .F. ) ;
#892 = EDGE_CURVE ( 'NONE', #67, #1179, #863, .T. ) ;
#893 = ORIENTED_EDGE ( 'NONE', *, *, #382, .T. ) ;
#894 = ADVANCED_BREP_SHAPE_REPRESENTATION ( '06035C224KAT2A', ( #1065, #530, #100, #760 ), #24 ) ;
#895 = DIRECTION ( 'NONE',  ( 0.0000000000000000000, 0.0000000000000000000, -1.000000000000000000 ) ) ;
#896 = CARTESIAN_POINT ( 'NONE',  ( 0.7999999999999998224, 0.03999999999999999389, -0.4049999999999998601 ) ) ;
#897 = CARTESIAN_POINT ( 'NONE',  ( 500000.0000000000582, 0.03999999999999999389, -0.3916666667100346388 ) ) ;
#898 = CARTESIAN_POINT ( 'NONE',  ( 0.7599999999999997868, 0.9000000000000000222, 0.3649999999999999911 ) ) ;
#899 = EDGE_CURVE ( 'NONE', #203, #600, #1236, .T. ) ;
#900 = PLANE ( 'NONE',  #1158 ) ;
#901 = VECTOR ( 'NONE', #585, 1000.000000000000000 ) ;
#902 = VECTOR ( 'NONE', #402, 1000.000000000000000 ) ;
#903 = LINE ( 'NONE', #1224, #1238 ) ;
#904 = VERTEX_POINT ( 'NONE', #90 ) ;
#905 = DIRECTION ( 'NONE',  ( 1.000000000000000000, 0.0000000000000000000, 0.0000000000000000000 ) ) ;
#906 = ORIENTED_EDGE ( 'NONE', *, *, #568, .T. ) ;
#907 = SURFACE_SIDE_STYLE ('',( #1040 ) ) ;
#908 = CARTESIAN_POINT ( 'NONE',  ( 0.7999999999999998224, 0.9000000000000000222, -0.3649999999999998801 ) ) ;
#909 = ORIENTED_EDGE ( 'NONE', *, *, #716, .F. ) ;
#910 = MECHANICAL_DESIGN_GEOMETRIC_PRESENTATION_REPRESENTATION (  '', ( #472 ), #540 ) ;
#911 = DIRECTION ( 'NONE',  ( -0.0000000000000000000, -0.0000000000000000000, -1.000000000000000000 ) ) ;
#912 = CARTESIAN_POINT ( 'NONE',  ( 0.4500000000007275958, 0.9266666666666666385, -0.3649999999999999911 ) ) ;
#913 = CARTESIAN_POINT ( 'NONE',  ( 0.7599999999999997868, 0.0000000000000000000, 0.3649999999999999911 ) ) ;
#914 = DIRECTION ( 'NONE',  ( 1.000000000000000000, 0.0000000000000000000, 0.0000000000000000000 ) ) ;
#915 = CARTESIAN_POINT ( 'NONE',  ( -0.4500000000000000111, 0.8999999999999998002, -0.3916666666666664964 ) ) ;
#916 = EDGE_CURVE ( 'NONE', #1206, #1268, #123, .T. ) ;
#917 = CIRCLE ( 'NONE', #1092, 0.03999999999999999389 ) ;
#918 = CARTESIAN_POINT ( 'NONE',  ( 0.4500000000007275958, 0.03999999999999999389, 0.3649999999999998801 ) ) ;
#919 = LINE ( 'NONE', #1237, #660 ) ;
#920 = CIRCLE ( 'NONE', #412, 0.03999999999999999389 ) ;
#921 = DIRECTION ( 'NONE',  ( 1.000000000000000000, 0.0000000000000000000, -1.338521200599388680E-16 ) ) ;
#922 = ORIENTED_EDGE ( 'NONE', *, *, #338, .T. ) ;
#923 = ORIENTED_EDGE ( 'NONE', *, *, #224, .T. ) ;
#924 = ADVANCED_FACE ( 'NONE', ( #593 ), #1276, .F. ) ;
#925 = CARTESIAN_POINT ( 'NONE',  ( -0.7599999999999997868, 0.9000000000000000222, -0.3649999999999998801 ) ) ;
#926 = ORIENTED_EDGE ( 'NONE', *, *, #224, .F. ) ;
#927 = CARTESIAN_POINT ( 'NONE',  ( 0.7599999999999997868, 0.04000000000000000083, 0.3649999999999999911 ) ) ;
#928 = ORIENTED_EDGE ( 'NONE', *, *, #1216, .F. ) ;
#929 = DIRECTION ( 'NONE',  ( 0.0000000000000000000, 0.0000000000000000000, -1.000000000000000000 ) ) ;
#930 = AXIS2_PLACEMENT_3D ( 'NONE', #815, #1028, #914 ) ;
#931 = CARTESIAN_POINT ( 'NONE',  ( -0.7999999999999998224, 0.03999999999999999389, -0.3649999999999998801 ) ) ;
#932 = FACE_OUTER_BOUND ( 'NONE', #206, .T. ) ;
#933 = AXIS2_PLACEMENT_3D ( 'NONE', #31, #1011, #751 ) ;
#934 = VECTOR ( 'NONE', #562, 1000.000000000000000 ) ;
#935 = LINE ( 'NONE', #998, #606 ) ;
#936 = AXIS2_PLACEMENT_3D ( 'NONE', #663, #570, #53 ) ;
#937 = ADVANCED_FACE ( 'NONE', ( #439 ), #537, .T. ) ;
#938 = ORIENTED_EDGE ( 'NONE', *, *, #892, .T. ) ;
#939 = VERTEX_POINT ( 'NONE', #204 ) ;
#940 = ORIENTED_EDGE ( 'NONE', *, *, #373, .T. ) ;
#941 = EDGE_LOOP ( 'NONE', ( #647, #1118, #48, #625 ) ) ;
#942 = CARTESIAN_POINT ( 'NONE',  ( 0.4500000000007275958, 0.9266666666666666385, 0.3649999999999998801 ) ) ;
#943 = EDGE_CURVE ( 'NONE', #50, #378, #1202, .T. ) ;
#944 = CARTESIAN_POINT ( 'NONE',  ( -0.7999999999999998224, 0.03999999999999999389, 0.4049999999999999711 ) ) ;
#945 = AXIS2_PLACEMENT_3D ( 'NONE', #785, #489, #279 ) ;
#946 = CARTESIAN_POINT ( 'NONE',  ( -0.4499999999999999001, 0.04000000000000021594, 0.3916666666666666075 ) ) ;
#947 = CARTESIAN_POINT ( 'NONE',  ( -0.7599999999999997868, 0.9399999999999999467, 0.3649999999999999911 ) ) ;
#948 = DIRECTION ( 'NONE',  ( 1.000000000000000000, 0.0000000000000000000, 0.0000000000000000000 ) ) ;
#949 = DIRECTION ( 'NONE',  ( 0.0000000000000000000, -1.000000000000000000, -0.0000000000000000000 ) ) ;
#950 = DIRECTION ( 'NONE',  ( -1.000000000000000000, -0.0000000000000000000, 8.673617379884036705E-17 ) ) ;
#951 = CIRCLE ( 'NONE', #789, 0.03999999999999999389 ) ;
#952 = FACE_OUTER_BOUND ( 'NONE', #493, .T. ) ;
#953 = AXIS2_PLACEMENT_3D ( 'NONE', #281, #288, #1274 ) ;
#954 = FACE_OUTER_BOUND ( 'NONE', #84, .T. ) ;
#955 = CIRCLE ( 'NONE', #231, 0.02666666666666669960 ) ;
#956 = EDGE_LOOP ( 'NONE', ( #285, #367, #984, #142 ) ) ;
#957 = FILL_AREA_STYLE_COLOUR ( '', #762 ) ;
#958 = DIRECTION ( 'NONE',  ( 0.0000000000000000000, 0.0000000000000000000, 1.000000000000000000 ) ) ;
#959 = ORIENTED_EDGE ( 'NONE', *, *, #772, .T. ) ;
#960 = ORIENTED_EDGE ( 'NONE', *, *, #1109, .T. ) ;
#961 = ORIENTED_EDGE ( 'NONE', *, *, #876, .F. ) ;
#962 = EDGE_CURVE ( 'NONE', #693, #939, #422, .T. ) ;
#963 = CARTESIAN_POINT ( 'NONE',  ( 0.7599999999999997868, 0.9399999999999999467, 0.4049999999999999711 ) ) ;
#964 = DIRECTION ( 'NONE',  ( 1.000000000000000000, 0.0000000000000000000, 0.0000000000000000000 ) ) ;
#965 = DIRECTION ( 'NONE',  ( 0.0000000000000000000, -0.0000000000000000000, -1.000000000000000000 ) ) ;
#966 = LINE ( 'NONE', #551, #808 ) ;
#967 = EDGE_CURVE ( 'NONE', #993, #313, #935, .T. ) ;
#968 = ORIENTED_EDGE ( 'NONE', *, *, #305, .F. ) ;
#969 = ORIENTED_EDGE ( 'NONE', *, *, #249, .T. ) ;
#970 = ORIENTED_EDGE ( 'NONE', *, *, #759, .T. ) ;
#971 = DIRECTION ( 'NONE',  ( -0.0000000000000000000, -1.000000000000000000, -0.0000000000000000000 ) ) ;
#972 = EDGE_LOOP ( 'NONE', ( #887, #270, #923, #257 ) ) ;
#973 = AXIS2_PLACEMENT_3D ( 'NONE', #512, #722, #811 ) ;
#974 = SURFACE_SIDE_STYLE ('',( #792 ) ) ;
#975 = DIRECTION ( 'NONE',  ( -0.0000000000000000000, -0.0000000000000000000, -1.000000000000000000 ) ) ;
#976 = VECTOR ( 'NONE', #360, 1000.000000000000000 ) ;
#977 = LINE ( 'NONE', #711, #700 ) ;
#978 = FACE_OUTER_BOUND ( 'NONE', #177, .T. ) ;
#979 = FACE_OUTER_BOUND ( 'NONE', #1073, .T. ) ;
#980 = EDGE_CURVE ( 'NONE', #46, #145, #267, .T. ) ;
#981 = ORIENTED_EDGE ( 'NONE', *, *, #409, .T. ) ;
#982 = EDGE_LOOP ( 'NONE', ( #867, #255, #1225, #164 ) ) ;
#983 = DIRECTION ( 'NONE',  ( 0.0000000000000000000, 0.0000000000000000000, 1.000000000000000000 ) ) ;
#984 = ORIENTED_EDGE ( 'NONE', *, *, #645, .T. ) ;
#985 = EDGE_LOOP ( 'NONE', ( #331, #1164, #346 ) ) ;
#986 = DIRECTION ( 'NONE',  ( -1.000000000000000000, 0.0000000000000000000, 0.0000000000000000000 ) ) ;
#987 = PRESENTATION_LAYER_ASSIGNMENT (  '', '', ( #667 ) ) ;
#988 = CARTESIAN_POINT ( 'NONE',  ( -0.7999999999999998224, 0.9399999999999999467, -0.3649999999999998801 ) ) ;
#989 = SHAPE_DEFINITION_REPRESENTATION ( #302, #894 ) ;
#990 = PRESENTATION_STYLE_ASSIGNMENT (( #107 ) ) ;
#991 = CARTESIAN_POINT ( 'NONE',  ( 0.0000000000000000000, 0.9399999999999999467, 0.0000000000000000000 ) ) ;
#992 = VERTEX_POINT ( 'NONE', #498 ) ;
#993 = VERTEX_POINT ( 'NONE', #702 ) ;
#994 = EDGE_CURVE ( 'NONE', #1085, #992, #514, .T. ) ;
#995 = ORIENTED_EDGE ( 'NONE', *, *, #191, .T. ) ;
#996 = ORIENTED_EDGE ( 'NONE', *, *, #980, .F. ) ;
#997 = PRESENTATION_LAYER_ASSIGNMENT (  '', '', ( #831 ) ) ;
#998 = CARTESIAN_POINT ( 'NONE',  ( -0.7599999999999997868, 0.9399999999999999467, -0.4049999999999998601 ) ) ;
#999 = FILL_AREA_STYLE ('',( #128 ) ) ;
#1000 = FILL_AREA_STYLE_COLOUR ( '', #556 ) ;
#1001 = EDGE_CURVE ( 'NONE', #1268, #852, #502, .T. ) ;
#1002 = AXIS2_PLACEMENT_3D ( 'NONE', #1003, #809, #95 ) ;
#1003 = CARTESIAN_POINT ( 'NONE',  ( 0.7999999999999998224, 0.03999999999999999389, 0.3649999999999999911 ) ) ;
#1004 = CARTESIAN_POINT ( 'NONE',  ( -0.4500000000000000111, 0.9000000000000000222, 0.3649999999999999911 ) ) ;
#1005 = SURFACE_SIDE_STYLE ('',( #674 ) ) ;
#1006 = FACE_OUTER_BOUND ( 'NONE', #524, .T. ) ;
#1007 = FACE_OUTER_BOUND ( 'NONE', #505, .T. ) ;
#1008 = VERTEX_POINT ( 'NONE', #1185 ) ;
#1009 = CARTESIAN_POINT ( 'NONE',  ( -0.4499999999999999001, 0.01333333333333333419, 0.3649999999999999911 ) ) ;
#1010 = ORIENTED_EDGE ( 'NONE', *, *, #1001, .F. ) ;
#1011 = DIRECTION ( 'NONE',  ( 1.000000000000000000, 0.0000000000000000000, 0.0000000000000000000 ) ) ;
#1012 = VERTEX_POINT ( 'NONE', #2 ) ;
#1013 = EDGE_CURVE ( 'NONE', #1012, #864, #764, .T. ) ;
#1014 = ORIENTED_EDGE ( 'NONE', *, *, #1091, .F. ) ;
#1015 = DIRECTION ( 'NONE',  ( 0.0000000000000000000, 0.0000000000000000000, -1.000000000000000000 ) ) ;
#1016 = CARTESIAN_POINT ( 'NONE',  ( -0.4500000000000000111, 0.03999999999999999389, -0.3916666666666664964 ) ) ;
#1017 = DIRECTION ( 'NONE',  ( 0.0000000000000000000, 0.0000000000000000000, -1.000000000000000000 ) ) ;
#1018 =( NAMED_UNIT ( * ) SI_UNIT ( $, .STERADIAN. ) SOLID_ANGLE_UNIT ( ) );
#1019 = EDGE_CURVE ( 'NONE', #96, #816, #155, .T. ) ;
#1020 = PRESENTATION_LAYER_ASSIGNMENT (  '', '', ( #569 ) ) ;
#1021 = ADVANCED_FACE ( 'NONE', ( #715 ), #1069, .T. ) ;
#1022 = LINE ( 'NONE', #166, #230 ) ;
#1023 = VECTOR ( 'NONE', #872, 1000.000000000000000 ) ;
#1024 = VECTOR ( 'NONE', #97, 1000.000000000000000 ) ;
#1025 = CARTESIAN_POINT ( 'NONE',  ( -0.7999999999999998224, 0.9399999999999999467, -0.4049999999999998601 ) ) ;
#1026 = EDGE_LOOP ( 'NONE', ( #430, #795, #427, #495, #220, #109, #690, #1223 ) ) ;
#1027 = ORIENTED_EDGE ( 'NONE', *, *, #87, .F. ) ;
#1028 = DIRECTION ( 'NONE',  ( 0.0000000000000000000, 1.000000000000000000, 0.0000000000000000000 ) ) ;
#1029 = ORIENTED_EDGE ( 'NONE', *, *, #916, .T. ) ;
#1030 = EDGE_CURVE ( 'NONE', #466, #1269, #873, .T. ) ;
#1031 = DIRECTION ( 'NONE',  ( 0.0000000000000000000, 0.0000000000000000000, 1.000000000000000000 ) ) ;
#1032 = DIRECTION ( 'NONE',  ( 0.0000000000000000000, 1.000000000000000000, 0.0000000000000000000 ) ) ;
#1033 = ADVANCED_FACE ( 'NONE', ( #686 ), #777, .T. ) ;
#1034 = AXIS2_PLACEMENT_3D ( 'NONE', #321, #1214, #1110 ) ;
#1035 = CARTESIAN_POINT ( 'NONE',  ( 0.7599999999999997868, 0.9399999999999999467, -0.3649999999999998801 ) ) ;
#1036 = ADVANCED_FACE ( 'NONE', ( #12 ), #673, .T. ) ;
#1037 = DIRECTION ( 'NONE',  ( 1.485208455459595551E-16, 0.0000000000000000000, 1.000000000000000000 ) ) ;
#1038 = EDGE_CURVE ( 'NONE', #1269, #1206, #581, .T. ) ;
#1039 = VECTOR ( 'NONE', #509, 1000.000000000000000 ) ;
#1040 = SURFACE_STYLE_FILL_AREA ( #999 ) ;
#1041 = LINE ( 'NONE', #309, #582 ) ;
#1042 = VERTEX_POINT ( 'NONE', #1099 ) ;
#1043 = ORIENTED_EDGE ( 'NONE', *, *, #1173, .T. ) ;
#1044 = ORIENTED_EDGE ( 'NONE', *, *, #1038, .T. ) ;
#1045 = DIRECTION ( 'NONE',  ( 1.338521200599388680E-16, 0.0000000000000000000, 1.000000000000000000 ) ) ;
#1046 = CARTESIAN_POINT ( 'NONE',  ( 0.7599999999999997868, 0.9399999999999999467, 0.3649999999999999911 ) ) ;
#1047 = ORIENTED_EDGE ( 'NONE', *, *, #1273, .F. ) ;
#1048 = EDGE_CURVE ( 'NONE', #835, #853, #639, .T. ) ;
#1049 = AXIS2_PLACEMENT_3D ( 'NONE', #756, #448, #1143 ) ;
#1050 = CARTESIAN_POINT ( 'NONE',  ( 0.4500000000000000111, 0.9399999999999999467, 0.3649999999999999911 ) ) ;
#1051 = CARTESIAN_POINT ( 'NONE',  ( -0.4500000000000000111, 0.03999999999999999389, -0.3916666666666664964 ) ) ;
#1052 = DIRECTION ( 'NONE',  ( -1.000000000000000000, -0.0000000000000000000, 8.673617379884036705E-17 ) ) ;
#1053 = VECTOR ( 'NONE', #628, 1000.000000000000000 ) ;
#1054 = CARTESIAN_POINT ( 'NONE',  ( -0.4499999999999999001, 0.9000000000000000222, 0.3649999999999999911 ) ) ;
#1055 = AXIS2_PLACEMENT_3D ( 'NONE', #419, #532, #1107 ) ;
#1056 = CIRCLE ( 'NONE', #1188, 0.02666666666666664756 ) ;
#1057 = CIRCLE ( 'NONE', #727, 0.02666666666666664756 ) ;
#1058 = DIRECTION ( 'NONE',  ( -1.000000000000000000, 0.0000000000000000000, 0.0000000000000000000 ) ) ;
#1059 = VERTEX_POINT ( 'NONE', #912 ) ;
#1060 = VERTEX_POINT ( 'NONE', #915 ) ;
#1061 = VERTEX_POINT ( 'NONE', #308 ) ;
#1062 = DIRECTION ( 'NONE',  ( 0.0000000000000000000, -1.000000000000000000, 0.0000000000000000000 ) ) ;
#1063 =( NAMED_UNIT ( * ) SI_UNIT ( $, .STERADIAN. ) SOLID_ANGLE_UNIT ( ) );
#1064 = AXIS2_PLACEMENT_3D ( 'NONE', #1025, #135, #1120 ) ;
#1065 = MANIFOLD_SOLID_BREP ( 'Fillet1', #1189 ) ;
#1066 = CARTESIAN_POINT ( 'NONE',  ( -0.4500000000000000111, 0.01333333333333333419, -0.3649999999999998801 ) ) ;
#1067 = CIRCLE ( 'NONE', #936, 0.03999999999999999389 ) ;
#1068 = CIRCLE ( 'NONE', #324, 0.03999999999999999389 ) ;
#1069 = CYLINDRICAL_SURFACE ( 'NONE', #699, 0.02666666666666664756 ) ;
#1070 = EDGE_CURVE ( 'NONE', #96, #676, #311, .T. ) ;
#1071 = CIRCLE ( 'NONE', #1101, 0.03999999999999999389 ) ;
#1072 = ORIENTED_EDGE ( 'NONE', *, *, #114, .F. ) ;
#1073 = EDGE_LOOP ( 'NONE', ( #81, #893, #881, #1084 ) ) ;
#1074 = CARTESIAN_POINT ( 'NONE',  ( 0.0000000000000000000, 0.0000000000000000000, 0.0000000000000000000 ) ) ;
#1075 = ORIENTED_EDGE ( 'NONE', *, *, #64, .T. ) ;
#1076 = ORIENTED_EDGE ( 'NONE', *, *, #962, .T. ) ;
#1077 = EDGE_CURVE ( 'NONE', #864, #693, #1187, .T. ) ;
#1078 = DIRECTION ( 'NONE',  ( -1.000000000000000000, 0.0000000000000000000, 0.0000000000000000000 ) ) ;
#1079 = CARTESIAN_POINT ( 'NONE',  ( 0.4499999999999999001, 0.9399999999999999467, -0.3649999999999998801 ) ) ;
#1080 = CARTESIAN_POINT ( 'NONE',  ( 0.7599999999999997868, 0.03999999999999999389, -0.4049999999999998601 ) ) ;
#1081 = VECTOR ( 'NONE', #950, 1000.000000000000000 ) ;
#1082 = VECTOR ( 'NONE', #126, 1000.000000000000000 ) ;
#1083 = EDGE_CURVE ( 'NONE', #1135, #1012, #733, .T. ) ;
#1084 = ORIENTED_EDGE ( 'NONE', *, *, #316, .T. ) ;
#1085 = VERTEX_POINT ( 'NONE', #322 ) ;
#1086 = EDGE_LOOP ( 'NONE', ( #317, #441, #395, #334 ) ) ;
#1087 = DIRECTION ( 'NONE',  ( 0.0000000000000000000, 0.0000000000000000000, 1.000000000000000000 ) ) ;
#1088 = CARTESIAN_POINT ( 'NONE',  ( 0.7599999999999997868, 0.03999999999999999389, -0.3649999999999998801 ) ) ;
#1089 = DIRECTION ( 'NONE',  ( 0.0000000000000000000, 0.0000000000000000000, 1.000000000000000000 ) ) ;
#1090 = DIRECTION ( 'NONE',  ( -0.0000000000000000000, 1.000000000000000000, -0.0000000000000000000 ) ) ;
#1091 = EDGE_CURVE ( 'NONE', #1210, #503, #485, .T. ) ;
#1092 = AXIS2_PLACEMENT_3D ( 'NONE', #1141, #1229, #149 ) ;
#1093 = CARTESIAN_POINT ( 'NONE',  ( 0.7999999999999998224, 0.9399999999999999467, 0.4049999999999999711 ) ) ;
#1094 = CARTESIAN_POINT ( 'NONE',  ( 0.7599999999999997868, 0.0000000000000000000, 0.0000000000000000000 ) ) ;
#1095 = FACE_OUTER_BOUND ( 'NONE', #4, .T. ) ;
#1096 = VECTOR ( 'NONE', #804, 1000.000000000000000 ) ;
#1097 = DIRECTION ( 'NONE',  ( 1.000000000000000000, 0.0000000000000000000, 0.0000000000000000000 ) ) ;
#1098 = VECTOR ( 'NONE', #450, 1000.000000000000000 ) ;
#1099 = CARTESIAN_POINT ( 'NONE',  ( -0.4499999999999999001, 0.9266666666666666385, 0.3649999999999999911 ) ) ;
#1100 = ORIENTED_EDGE ( 'NONE', *, *, #563, .T. ) ;
#1101 = AXIS2_PLACEMENT_3D ( 'NONE', #421, #726, #1108 ) ;
#1102 = EDGE_LOOP ( 'NONE', ( #1075, #1251, #366, #414, #1100, #981, #146, #125 ) ) ;
#1103 = FILL_AREA_STYLE_COLOUR ( '', #139 ) ;
#1104 = ORIENTED_EDGE ( 'NONE', *, *, #980, .T. ) ;
#1105 = DIRECTION ( 'NONE',  ( 0.0000000000000000000, -1.000000000000000000, 0.0000000000000000000 ) ) ;
#1106 = DIRECTION ( 'NONE',  ( 0.0000000000000000000, 0.0000000000000000000, 1.000000000000000000 ) ) ;
#1107 = DIRECTION ( 'NONE',  ( 0.0000000000000000000, -0.0000000000000000000, 1.000000000000000000 ) ) ;
#1108 = DIRECTION ( 'NONE',  ( 0.0000000000000000000, 0.0000000000000000000, -1.000000000000000000 ) ) ;
#1109 = EDGE_CURVE ( 'NONE', #754, #1060, #106, .T. ) ;
#1110 = DIRECTION ( 'NONE',  ( 0.0000000000000000000, 0.0000000000000000000, 1.000000000000000000 ) ) ;
#1111 = CIRCLE ( 'NONE', #181, 0.02666666666666664756 ) ;
#1112 = FACE_OUTER_BOUND ( 'NONE', #254, .T. ) ;
#1113 = ORIENTED_EDGE ( 'NONE', *, *, #175, .T. ) ;
#1114 = DIRECTION ( 'NONE',  ( 1.000000000000000000, 0.0000000000000000000, 0.0000000000000000000 ) ) ;
#1115 = ORIENTED_EDGE ( 'NONE', *, *, #563, .F. ) ;
#1116 = DIRECTION ( 'NONE',  ( -1.000000000000000000, -0.0000000000000000000, 8.673617379884036705E-17 ) ) ;
#1117 = ADVANCED_FACE ( 'NONE', ( #43 ), #320, .F. ) ;
#1118 = ORIENTED_EDGE ( 'NONE', *, *, #967, .F. ) ;
#1119 = AXIS2_PLACEMENT_3D ( 'NONE', #388, #525, #210 ) ;
#1120 = DIRECTION ( 'NONE',  ( 1.000000000000000000, 0.0000000000000000000, -0.0000000000000000000 ) ) ;
#1121 = ADVANCED_FACE ( 'NONE', ( #952 ), #1156, .F. ) ;
#1122 = CARTESIAN_POINT ( 'NONE',  ( 0.4499999999999999001, 0.03999999999999999389, -0.3649999999999998801 ) ) ;
#1123 = DIRECTION ( 'NONE',  ( 0.0000000000000000000, 0.0000000000000000000, -1.000000000000000000 ) ) ;
#1124 = AXIS2_PLACEMENT_3D ( 'NONE', #533, #19, #929 ) ;
#1125 = PRODUCT_DEFINITION ( 'UNKNOWN', '', #1191, #434 ) ;
#1126 = VECTOR ( 'NONE', #464, 1000.000000000000000 ) ;
#1127 = DIRECTION ( 'NONE',  ( 0.0000000000000000000, -1.000000000000000000, 0.0000000000000000000 ) ) ;
#1128 = DIRECTION ( 'NONE',  ( 0.0000000000000000000, 0.0000000000000000000, -1.000000000000000000 ) ) ;
#1129 = VECTOR ( 'NONE', #975, 1000.000000000000000 ) ;
#1130 = DIRECTION ( 'NONE',  ( 0.0000000000000000000, 0.0000000000000000000, 1.000000000000000000 ) ) ;
#1131 = CIRCLE ( 'NONE', #212, 0.02666666666666669960 ) ;
#1132 = EDGE_LOOP ( 'NONE', ( #642, #1047, #995, #678 ) ) ;
#1133 = UNCERTAINTY_MEASURE_WITH_UNIT (LENGTH_MEASURE( 1.000000000000000082E-05 ), #766, 'distance_accuracy_value', 'NONE');
#1134 = CARTESIAN_POINT ( 'NONE',  ( 0.4500000000000000111, 0.03999999999999999389, 0.4049999999999999711 ) ) ;
#1135 = VERTEX_POINT ( 'NONE', #837 ) ;
#1136 = EDGE_CURVE ( 'NONE', #864, #816, #214, .T. ) ;
#1137 = EDGE_LOOP ( 'NONE', ( #626, #1252, #960, #769 ) ) ;
#1138 = DIRECTION ( 'NONE',  ( 0.0000000000000000000, 0.0000000000000000000, -1.000000000000000000 ) ) ;
#1139 = ADVANCED_FACE ( 'NONE', ( #1279 ), #474, .T. ) ;
#1140 = DIRECTION ( 'NONE',  ( -1.000000000000000000, -0.0000000000000000000, -0.0000000000000000000 ) ) ;
#1141 = CARTESIAN_POINT ( 'NONE',  ( -0.7599999999999997868, 0.9000000000000000222, -0.3649999999999998801 ) ) ;
#1142 = PLANE ( 'NONE',  #83 ) ;
#1143 = DIRECTION ( 'NONE',  ( -1.000000000000000000, 0.0000000000000000000, 0.0000000000000000000 ) ) ;
#1144 = CARTESIAN_POINT ( 'NONE',  ( 500000.0000000000582, 0.9000000000000000222, 0.3916666666232985206 ) ) ;
#1145 = DIRECTION ( 'NONE',  ( 0.0000000000000000000, 0.0000000000000000000, 1.000000000000000000 ) ) ;
#1146 = EDGE_CURVE ( 'NONE', #541, #80, #233, .T. ) ;
#1147 = CIRCLE ( 'NONE', #482, 0.03999999999999999389 ) ;
#1148 = CIRCLE ( 'NONE', #340, 0.02666666666666664756 ) ;
#1149 = EDGE_LOOP ( 'NONE', ( #814, #1272, #572, #1208 ) ) ;
#1150 = DIRECTION ( 'NONE',  ( 1.000000000000000000, -0.0000000000000000000, 1.338521200599388680E-16 ) ) ;
#1151 = ORIENTED_EDGE ( 'NONE', *, *, #652, .F. ) ;
#1152 = ORIENTED_EDGE ( 'NONE', *, *, #1273, .T. ) ;
#1153 = CARTESIAN_POINT ( 'NONE',  ( 0.0000000000000000000, 0.0000000000000000000, 0.3649999999999999911 ) ) ;
#1154 = ORIENTED_EDGE ( 'NONE', *, *, #1197, .F. ) ;
#1155 = EDGE_CURVE ( 'NONE', #868, #145, #794, .T. ) ;
#1156 = PLANE ( 'NONE',  #870 ) ;
#1157 = EDGE_CURVE ( 'NONE', #1008, #1179, #966, .T. ) ;
#1158 = AXIS2_PLACEMENT_3D ( 'NONE', #5, #515, #202 ) ;
#1159 = VECTOR ( 'NONE', #417, 1000.000000000000000 ) ;
#1160 = FACE_OUTER_BOUND ( 'NONE', #956, .T. ) ;
#1161 = APPLICATION_PROTOCOL_DEFINITION ( 'draft international standard', 'automotive_design', 1998, #169 ) ;
#1162 = EDGE_LOOP ( 'NONE', ( #662, #753, #849, #18 ) ) ;
#1163 = CARTESIAN_POINT ( 'NONE',  ( 0.4500000000007275958, 0.01333333333333334286, 0.3649999999999998801 ) ) ;
#1164 = ORIENTED_EDGE ( 'NONE', *, *, #899, .T. ) ;
#1165 = DIRECTION ( 'NONE',  ( 1.338521200599388434E-16, -0.0000000000000000000, -1.000000000000000000 ) ) ;
#1166 = ORIENTED_EDGE ( 'NONE', *, *, #45, .F. ) ;
#1167 = CARTESIAN_POINT ( 'NONE',  ( -0.7599999999999997868, 0.9399999999999999467, -0.3649999999999998801 ) ) ;
#1168 = APPLICATION_CONTEXT ( 'automotive_design' ) ;
#1169 = UNCERTAINTY_MEASURE_WITH_UNIT (LENGTH_MEASURE( 1.000000000000000082E-05 ), #803, 'distance_accuracy_value', 'NONE');
#1170 = CARTESIAN_POINT ( 'NONE',  ( 0.4499999999999999001, 0.9000000000000000222, -0.4049999999999998601 ) ) ;
#1171 = CARTESIAN_POINT ( 'NONE',  ( 0.7599999999999997868, 0.03999999999999999389, -0.4049999999999998601 ) ) ;
#1172 = LINE ( 'NONE', #1170, #901 ) ;
#1173 = EDGE_CURVE ( 'NONE', #676, #1210, #977, .T. ) ;
#1174 = FACE_OUTER_BOUND ( 'NONE', #1181, .T. ) ;
#1175 = DIRECTION ( 'NONE',  ( 0.0000000000000000000, 0.0000000000000000000, -1.000000000000000000 ) ) ;
#1176 =( GEOMETRIC_REPRESENTATION_CONTEXT ( 3 ) GLOBAL_UNCERTAINTY_ASSIGNED_CONTEXT ( ( #77 ) ) GLOBAL_UNIT_ASSIGNED_CONTEXT ( ( #420, #824, #1018 ) ) REPRESENTATION_CONTEXT ( 'NONE', 'WORKASPACE' ) );
#1177 = EDGE_LOOP ( 'NONE', ( #970, #598, #539, #93 ) ) ;
#1178 = CARTESIAN_POINT ( 'NONE',  ( 0.7599999999999997868, 0.9000000000000000222, -0.3649999999999998801 ) ) ;
#1179 = VERTEX_POINT ( 'NONE', #946 ) ;
#1180 = ORIENTED_EDGE ( 'NONE', *, *, #847, .F. ) ;
#1181 = EDGE_LOOP ( 'NONE', ( #1010, #586, #891, #445 ) ) ;
#1182 = CARTESIAN_POINT ( 'NONE',  ( 0.7599999999999997868, 0.9000000000000000222, -0.3649999999999998801 ) ) ;
#1183 = AXIS2_PLACEMENT_3D ( 'NONE', #1182, #890, #408 ) ;
#1184 = DIRECTION ( 'NONE',  ( 0.0000000000000000000, 0.0000000000000000000, 1.000000000000000000 ) ) ;
#1185 = CARTESIAN_POINT ( 'NONE',  ( 0.4500000000007275958, 0.04000000000000021594, 0.3916666666666664964 ) ) ;
#1186 = DIRECTION ( 'NONE',  ( 1.000000000000000000, 0.0000000000000000000, 0.0000000000000000000 ) ) ;
#1187 = CIRCLE ( 'NONE', #225, 0.03999999999999999389 ) ;
#1188 = AXIS2_PLACEMENT_3D ( 'NONE', #653, #846, #345 ) ;
#1189 = CLOSED_SHELL ( 'NONE', ( #924, #1121, #70, #148, #545, #644, #842, #827, #659, #635, #1228, #26, #380, #755, #263, #631, #728, #1219 ) ) ;
#1190 = ORIENTED_EDGE ( 'NONE', *, *, #429, .T. ) ;
#1191 = PRODUCT_DEFINITION_FORMATION_WITH_SPECIFIED_SOURCE ( 'ANY', '', #778, .NOT_KNOWN. ) ;
#1192 = EDGE_LOOP ( 'NONE', ( #187, #160, #614, #62 ) ) ;
#1193 = CARTESIAN_POINT ( 'NONE',  ( 500000.0000000000582, 0.03999999999999999389, -0.3650000000433680225 ) ) ;
#1194 = VERTEX_POINT ( 'NONE', #797 ) ;
#1195 = DIRECTION ( 'NONE',  ( 0.0000000000000000000, 0.0000000000000000000, -1.000000000000000000 ) ) ;
#1196 = DIRECTION ( 'NONE',  ( -1.000000000000000000, -0.0000000000000000000, -0.0000000000000000000 ) ) ;
#1197 = EDGE_CURVE ( 'NONE', #145, #904, #871, .T. ) ;
#1198 = AXIS2_PLACEMENT_3D ( 'NONE', #682, #481, #692 ) ;
#1199 = DIRECTION ( 'NONE',  ( -1.000000000000000000, -0.0000000000000000000, 8.673617379884036705E-17 ) ) ;
#1200 = DIRECTION ( 'NONE',  ( 0.0000000000000000000, 0.0000000000000000000, 1.000000000000000000 ) ) ;
#1201 = FACE_OUTER_BOUND ( 'NONE', #1102, .T. ) ;
#1202 = LINE ( 'NONE', #988, #405 ) ;
#1203 = CARTESIAN_POINT ( 'NONE',  ( 0.7599999999999997868, 0.03999999999999999389, 0.4049999999999999711 ) ) ;
#1204 = VECTOR ( 'NONE', #643, 1000.000000000000000 ) ;
#1205 = CARTESIAN_POINT ( 'NONE',  ( -0.7999999999999998224, 0.9000000000000000222, -0.4049999999999998601 ) ) ;
#1206 = VERTEX_POINT ( 'NONE', #452 ) ;
#1207 = EDGE_CURVE ( 'NONE', #299, #600, #1067, .T. ) ;
#1208 = ORIENTED_EDGE ( 'NONE', *, *, #1173, .F. ) ;
#1209 = CARTESIAN_POINT ( 'NONE',  ( -0.7599999999999997868, 0.9399999999999999467, 0.3649999999999999911 ) ) ;
#1210 = VERTEX_POINT ( 'NONE', #1134 ) ;
#1211 = DIRECTION ( 'NONE',  ( -0.0000000000000000000, -0.0000000000000000000, -1.000000000000000000 ) ) ;
#1212 = ORIENTED_EDGE ( 'NONE', *, *, #453, .T. ) ;
#1213 = ADVANCED_FACE ( 'NONE', ( #403 ), #293, .T. ) ;
#1214 = DIRECTION ( 'NONE',  ( -1.000000000000000000, 0.0000000000000000000, 0.0000000000000000000 ) ) ;
#1215 =( LENGTH_UNIT ( ) NAMED_UNIT ( * ) SI_UNIT ( .MILLI., .METRE. ) );
#1216 = EDGE_CURVE ( 'NONE', #96, #939, #120, .T. ) ;
#1217 = DIRECTION ( 'NONE',  ( 0.0000000000000000000, 0.0000000000000000000, -1.000000000000000000 ) ) ;
#1218 = DIRECTION ( 'NONE',  ( -1.338521200599388434E-16, 0.0000000000000000000, -1.000000000000000000 ) ) ;
#1219 = ADVANCED_FACE ( 'NONE', ( #805 ), #103, .T. ) ;
#1220 = CYLINDRICAL_SURFACE ( 'NONE', #1002, 0.03999999999999999389 ) ;
#1221 = ORIENTED_EDGE ( 'NONE', *, *, #40, .T. ) ;
#1222 = EDGE_CURVE ( 'NONE', #110, #1210, #886, .T. ) ;
#1223 = ORIENTED_EDGE ( 'NONE', *, *, #994, .T. ) ;
#1224 = CARTESIAN_POINT ( 'NONE',  ( -0.4499999999999999001, 0.0000000000000000000, -0.4049999999999998601 ) ) ;
#1225 = ORIENTED_EDGE ( 'NONE', *, *, #962, .F. ) ;
#1226 = AXIS2_PLACEMENT_3D ( 'NONE', #138, #41, #958 ) ;
#1227 = ORIENTED_EDGE ( 'NONE', *, *, #602, .F. ) ;
#1228 = ADVANCED_FACE ( 'NONE', ( #932 ), #28, .T. ) ;
#1229 = DIRECTION ( 'NONE',  ( -1.000000000000000000, 0.0000000000000000000, 0.0000000000000000000 ) ) ;
#1230 = DIRECTION ( 'NONE',  ( -0.0000000000000000000, -1.000000000000000000, -0.0000000000000000000 ) ) ;
#1231 = CARTESIAN_POINT ( 'NONE',  ( 0.7599999999999997868, 0.9000000000000000222, -0.3649999999999998801 ) ) ;
#1232 = EDGE_CURVE ( 'NONE', #600, #1061, #774, .T. ) ;
#1233 = DIRECTION ( 'NONE',  ( 0.0000000000000000000, -1.000000000000000000, 0.0000000000000000000 ) ) ;
#1234 = DIRECTION ( 'NONE',  ( 1.000000000000000000, -0.0000000000000000000, -0.0000000000000000000 ) ) ;
#1235 = LINE ( 'NONE', #1264, #1023 ) ;
#1236 = CIRCLE ( 'NONE', #634, 0.03999999999999999389 ) ;
#1237 = CARTESIAN_POINT ( 'NONE',  ( 500000.0000000000582, 0.9266666666666666385, 0.3649999999566318487 ) ) ;
#1238 = VECTOR ( 'NONE', #147, 1000.000000000000000 ) ;
#1239 = FACE_OUTER_BOUND ( 'NONE', #584, .T. ) ;
#1240 = ORIENTED_EDGE ( 'NONE', *, *, #520, .T. ) ;
#1241 = EDGE_LOOP ( 'NONE', ( #1212, #444, #234, #721 ) ) ;
#1242 = EDGE_CURVE ( 'NONE', #1059, #706, #657, .T. ) ;
#1243 = ORIENTED_EDGE ( 'NONE', *, *, #6, .F. ) ;
#1244 = AXIS2_PLACEMENT_3D ( 'NONE', #527, #622, #1031 ) ;
#1245 = CARTESIAN_POINT ( 'NONE',  ( 500000.0000000000582, 0.9000000000000000222, -0.3650000000433680225 ) ) ;
#1246 = CARTESIAN_POINT ( 'NONE',  ( -0.7599999999999997868, 0.0000000000000000000, 0.3649999999999999911 ) ) ;
#1247 = AXIS2_PLACEMENT_3D ( 'NONE', #499, #1058, #353 ) ;
#1248 = CIRCLE ( 'NONE', #531, 0.03999999999999999389 ) ;
#1249 = DIRECTION ( 'NONE',  ( 1.000000000000000000, 0.0000000000000000000, 0.0000000000000000000 ) ) ;
#1250 = CARTESIAN_POINT ( 'NONE',  ( -0.7599999999999997868, 0.9399999999999999467, 0.4049999999999999711 ) ) ;
#1251 = ORIENTED_EDGE ( 'NONE', *, *, #1242, .T. ) ;
#1252 = ORIENTED_EDGE ( 'NONE', *, *, #260, .T. ) ;
#1253 = CARTESIAN_POINT ( 'NONE',  ( -0.7999999999999998224, 0.03999999999999999389, 0.3649999999999999911 ) ) ;
#1254 = EDGE_LOOP ( 'NONE', ( #298, #238, #314, #813 ) ) ;
#1255 = FILL_AREA_STYLE ('',( #957 ) ) ;
#1256 = CARTESIAN_POINT ( 'NONE',  ( -0.4500000000000000111, 0.9000000000000000222, -0.3649999999999998801 ) ) ;
#1257 = ORIENTED_EDGE ( 'NONE', *, *, #175, .F. ) ;
#1258 = AXIS2_PLACEMENT_3D ( 'NONE', #229, #637, #1123 ) ;
#1259 = ADVANCED_FACE ( 'NONE', ( #197 ), #730, .T. ) ;
#1260 = PRODUCT_RELATED_PRODUCT_CATEGORY ( 'part', '', ( #778 ) ) ;
#1261 = APPLICATION_PROTOCOL_DEFINITION ( 'draft international standard', 'automotive_design', 1998, #1168 ) ;
#1262 = CARTESIAN_POINT ( 'NONE',  ( 0.7599999999999997868, 0.03999999999999999389, 0.3649999999999999911 ) ) ;
#1263 = EDGE_CURVE ( 'NONE', #992, #765, #550, .T. ) ;
#1264 = CARTESIAN_POINT ( 'NONE',  ( -0.4500000000000000111, 0.9399999999999999467, 0.3649999999999999911 ) ) ;
#1265 = AXIS2_PLACEMENT_3D ( 'NONE', #1093, #895, #406 ) ;
#1266 = CYLINDRICAL_SURFACE ( 'NONE', #141, 0.03999999999999999389 ) ;
#1267 = SPHERICAL_SURFACE ( 'NONE', #384, 0.04000000000000000083 ) ;
#1268 = VERTEX_POINT ( 'NONE', #261 ) ;
#1269 = VERTEX_POINT ( 'NONE', #364 ) ;
#1270 = DIRECTION ( 'NONE',  ( -0.0000000000000000000, 1.000000000000000000, -0.0000000000000000000 ) ) ;
#1271 = ORIENTED_EDGE ( 'NONE', *, *, #1157, .F. ) ;
#1272 = ORIENTED_EDGE ( 'NONE', *, *, #783, .F. ) ;
#1273 = EDGE_CURVE ( 'NONE', #503, #96, #1022, .T. ) ;
#1274 = DIRECTION ( 'NONE',  ( 1.000000000000000000, 0.0000000000000000000, 0.0000000000000000000 ) ) ;
#1275 = DIRECTION ( 'NONE',  ( -1.338521200599388680E-16, 0.0000000000000000000, -1.000000000000000000 ) ) ;
#1276 = PLANE ( 'NONE',  #98 ) ;
#1277 = VECTOR ( 'NONE', #761, 1000.000000000000000 ) ;
#1278 = CYLINDRICAL_SURFACE ( 'NONE', #437, 0.03999999999999999389 ) ;
#1279 = FACE_OUTER_BOUND ( 'NONE', #297, .T. ) ;
#1280 = DIRECTION ( 'NONE',  ( -1.000000000000000000, 0.0000000000000000000, 0.0000000000000000000 ) ) ;
ENDSEC;
END-ISO-10303-21;
