ISO-10303-21;
HEADER;
FILE_DESCRIPTION (( 'STEP AP214' ),
    '1' );
FILE_NAME ('CUS10S30,H3F.STEP',
    '2026-03-19T16:23:36',
    ( 'LENOVO' ),
    ( '' ),
    'SwSTEP 2.0',
    'SolidWorks 2021',
    '' );
FILE_SCHEMA (( 'AUTOMOTIVE_DESIGN' ));
ENDSEC;

DATA;
#1 = ORIENTED_EDGE ( 'NONE', *, *, #1071, .T. ) ;
#2 = ORIENTED_EDGE ( 'NONE', *, *, #644, .T. ) ;
#3 = CIRCLE ( 'NONE', #1288, 0.04999999999999991257 ) ;
#4 = CARTESIAN_POINT ( 'NONE',  ( 0.000000000000000000, 1.000000000000000000, 0.000000000000000000 ) ) ;
#5 = CARTESIAN_POINT ( 'NONE',  ( -0.5742241472994580320, 0.1499999999999999944, 0.5977054321332611053 ) ) ;
#6 = ORIENTED_EDGE ( 'NONE', *, *, #425, .T. ) ;
#7 = ORIENTED_EDGE ( 'NONE', *, *, #617, .F. ) ;
#8 = DIRECTION ( 'NONE',  ( 1.000000000000000000, -1.982798006124285113E-15, 0.000000000000000000 ) ) ;
#9 = CARTESIAN_POINT ( 'NONE',  ( -0.5742241472994580320, 0.1499999999999999944, 0.7514011146818150300 ) ) ;
#10 = ADVANCED_FACE ( 'NONE', ( #276 ), #492, .F. ) ;
#11 = CIRCLE ( 'NONE', #511, 0.04999999999999991257 ) ;
#12 = DIRECTION ( 'NONE',  ( -1.000000000000000000, 0.000000000000000000, 0.000000000000000000 ) ) ;
#13 = FACE_OUTER_BOUND ( 'NONE', #533, .T. ) ;
#14 = CARTESIAN_POINT ( 'NONE',  ( 0.6118767004711110902, 0.1499999999999999944, 0.8368767004711109569 ) ) ;
#15 = CARTESIAN_POINT ( 'NONE',  ( 0.1499999999999999944, -0.8000000000000000444, 1.080320264303318067 ) ) ;
#16 = ADVANCED_FACE ( 'NONE', ( #1160 ), #564, .F. ) ;
#17 = LINE ( 'NONE', #1299, #23 ) ;
#18 = AXIS2_PLACEMENT_3D ( 'NONE', #90, #189, #1111 ) ;
#19 = LINE ( 'NONE', #1061, #26 ) ;
#20 = DIRECTION ( 'NONE',  ( -1.000000000000000000, 0.000000000000000000, 0.000000000000000000 ) ) ;
#21 = VECTOR ( 'NONE', #315, 1000.000000000000000 ) ;
#22 = EDGE_CURVE ( 'NONE', #499, #288, #1177, .T. ) ;
#23 = VECTOR ( 'NONE', #1203, 1000.000000000000114 ) ;
#24 = LINE ( 'NONE', #81, #444 ) ;
#25 = DIRECTION ( 'NONE',  ( 0.000000000000000000, 0.000000000000000000, -1.000000000000000000 ) ) ;
#26 = VECTOR ( 'NONE', #1255, 1000.000000000000000 ) ;
#27 = DIRECTION ( 'NONE',  ( 1.000000000000000000, 0.000000000000000000, 0.000000000000000000 ) ) ;
#28 = EDGE_LOOP ( 'NONE', ( #621, #1034, #558, #1032 ) ) ;
#29 = DIRECTION ( 'NONE',  ( -1.000000000000000000, 0.000000000000000000, 0.000000000000000000 ) ) ;
#30 = CARTESIAN_POINT ( 'NONE',  ( 0.1499999999999999944, -0.8000000000000000444, -1.080320264303318067 ) ) ;
#31 = PRODUCT_DEFINITION_CONTEXT ( 'detailed design', #899, 'design' ) ;
#32 = ORIENTED_EDGE ( 'NONE', *, *, #497, .T. ) ;
#33 = CARTESIAN_POINT ( 'NONE',  ( -0.1499999999999999944, -0.1658640282339259864, -0.8354887778427870781 ) ) ;
#34 = ORIENTED_EDGE ( 'NONE', *, *, #407, .T. ) ;
#35 =( NAMED_UNIT ( * ) SI_UNIT ( $, .STERADIAN. ) SOLID_ANGLE_UNIT ( ) );
#36 = EDGE_LOOP ( 'NONE', ( #7, #481, #910, #111 ) ) ;
#37 =( NAMED_UNIT ( * ) SI_UNIT ( $, .STERADIAN. ) SOLID_ANGLE_UNIT ( ) );
#38 = CARTESIAN_POINT ( 'NONE',  ( -0.1499999999999999944, -0.1644761939757929947, 0.9857580157297859413 ) ) ;
#39 = ORIENTED_EDGE ( 'NONE', *, *, #1126, .F. ) ;
#40 = SHAPE_REPRESENTATION ( 'CUS10S30,H3F', ( #200, #1193 ), #1099 ) ;
#41 = ORIENTED_EDGE ( 'NONE', *, *, #1187, .F. ) ;
#42 = CARTESIAN_POINT ( 'NONE',  ( 0.1499999999999999944, -1.000000000000000000, 1.250000000000000000 ) ) ;
#43 = EDGE_LOOP ( 'NONE', ( #465, #987, #118, #73 ) ) ;
#44 = ADVANCED_FACE ( 'NONE', ( #297 ), #279, .T. ) ;
#45 = SURFACE_SIDE_STYLE ('',( #1298 ) ) ;
#46 = PLANE ( 'NONE',  #640 ) ;
#47 = VERTEX_POINT ( 'NONE', #777 ) ;
#48 = AXIS2_PLACEMENT_3D ( 'NONE', #345, #566, #54 ) ;
#49 = CARTESIAN_POINT ( 'NONE',  ( 0.1499999999999999944, -1.000000000000000000, 1.250000000000000000 ) ) ;
#50 = VERTEX_POINT ( 'NONE', #359 ) ;
#51 = CARTESIAN_POINT ( 'NONE',  ( -0.1499999999999999944, -0.8034878236872060597, 1.030442061790326047 ) ) ;
#52 = ORIENTED_EDGE ( 'NONE', *, *, #138, .T. ) ;
#53 = CARTESIAN_POINT ( 'NONE',  ( -0.5742241472994580320, 0.1000000000000000056, 0.5977054321332611053 ) ) ;
#54 = DIRECTION ( 'NONE',  ( 0.000000000000000000, 0.000000000000000000, 1.000000000000000000 ) ) ;
#55 = ORIENTED_EDGE ( 'NONE', *, *, #1074, .F. ) ;
#56 = DIRECTION ( 'NONE',  ( 0.000000000000000000, 0.000000000000000000, -1.000000000000000000 ) ) ;
#57 = ORIENTED_EDGE ( 'NONE', *, *, #1213, .F. ) ;
#58 = DIRECTION ( 'NONE',  ( 0.08682659386424759762, 0.9924325091389669673, 0.08682659386424759762 ) ) ;
#59 = DIRECTION ( 'NONE',  ( -0.000000000000000000, 1.000000000000000000, 0.000000000000000000 ) ) ;
#60 = DIRECTION ( 'NONE',  ( 0.000000000000000000, 0.9975640502598247528, 0.06975647374411737822 ) ) ;
#61 = EDGE_CURVE ( 'NONE', #95, #587, #301, .T. ) ;
#62 = DIRECTION ( 'NONE',  ( 0.000000000000000000, 1.000000000000000000, 0.000000000000000000 ) ) ;
#63 = VERTEX_POINT ( 'NONE', #589 ) ;
#64 = ORIENTED_EDGE ( 'NONE', *, *, #698, .F. ) ;
#65 = CARTESIAN_POINT ( 'NONE',  ( 0.5742241472994580320, 0.1499999999999999944, 0.5977054321332611053 ) ) ;
#66 = DIRECTION ( 'NONE',  ( -1.000000000000000000, 0.000000000000000000, 0.000000000000000000 ) ) ;
#67 = CARTESIAN_POINT ( 'NONE',  ( -0.1499999999999999944, -1.000000000000000000, 1.250000000000000000 ) ) ;
#68 = VERTEX_POINT ( 'NONE', #667 ) ;
#69 = DIRECTION ( 'NONE',  ( 0.000000000000000000, 8.864339340456144530E-16, -1.000000000000000000 ) ) ;
#70 = CARTESIAN_POINT ( 'NONE',  ( -0.5742241472994580320, 0.1499999999999999944, 0.7514011146818150300 ) ) ;
#71 = PRESENTATION_LAYER_ASSIGNMENT (  '', '', ( #610 ) ) ;
#72 = DIRECTION ( 'NONE',  ( -1.000000000000000000, 0.000000000000000000, 0.000000000000000000 ) ) ;
#73 = ORIENTED_EDGE ( 'NONE', *, *, #180, .T. ) ;
#74 = ORIENTED_EDGE ( 'NONE', *, *, #172, .F. ) ;
#75 = CARTESIAN_POINT ( 'NONE',  ( 0.6250000000000000000, 0.000000000000000000, -0.8499999999999999778 ) ) ;
#76 = EDGE_CURVE ( 'NONE', #283, #1049, #1204, .T. ) ;
#77 = VERTEX_POINT ( 'NONE', #100 ) ;
#78 = CARTESIAN_POINT ( 'NONE',  ( -0.1499999999999999944, 0.000000000000000000, 0.8499999999999999778 ) ) ;
#79 = DIRECTION ( 'NONE',  ( 0.000000000000000000, 0.000000000000000000, -1.000000000000000000 ) ) ;
#80 = ORIENTED_EDGE ( 'NONE', *, *, #946, .F. ) ;
#81 = CARTESIAN_POINT ( 'NONE',  ( -0.6155764282474159854, -0.1077119180108566110, -0.8405764282474160742 ) ) ;
#82 = VERTEX_POINT ( 'NONE', #1234 ) ;
#83 = DIRECTION ( 'NONE',  ( 0.000000000000000000, 1.000000000000000000, 0.000000000000000000 ) ) ;
#84 = AXIS2_PLACEMENT_3D ( 'NONE', #572, #1081, #944 ) ;
#85 = CARTESIAN_POINT ( 'NONE',  ( 0.5742241472994580320, 0.1000000000000000056, 0.7514011146818150300 ) ) ;
#86 = PLANE ( 'NONE',  #979 ) ;
#87 = UNCERTAINTY_MEASURE_WITH_UNIT (LENGTH_MEASURE( 1.000000000000000082E-05 ), #745, 'distance_accuracy_value', 'NONE');
#88 = AXIS2_PLACEMENT_3D ( 'NONE', #606, #583, #690 ) ;
#89 = EDGE_LOOP ( 'NONE', ( #541, #308, #1083, #1077 ) ) ;
#90 = CARTESIAN_POINT ( 'NONE',  ( 0.000000000000000000, 0.1000000000000000056, 0.000000000000000000 ) ) ;
#91 = DIRECTION ( 'NONE',  ( 0.000000000000000000, -0.9961946980917455452, 0.08715574274765854057 ) ) ;
#92 = VERTEX_POINT ( 'NONE', #1114 ) ;
#93 = CARTESIAN_POINT ( 'NONE',  ( -0.1499999999999999944, -0.1658640282339259864, 0.8354887778427870781 ) ) ;
#94 = FILL_AREA_STYLE_COLOUR ( '', #1309 ) ;
#95 = VERTEX_POINT ( 'NONE', #14 ) ;
#96 = EDGE_CURVE ( 'NONE', #1009, #756, #290, .T. ) ;
#97 = CARTESIAN_POINT ( 'NONE',  ( 0.6250000000000000000, 0.000000000000000000, 0.8499999999999999778 ) ) ;
#98 = EDGE_CURVE ( 'NONE', #730, #599, #1168, .T. ) ;
#99 = AXIS2_PLACEMENT_3D ( 'NONE', #1065, #147, #220 ) ;
#100 = CARTESIAN_POINT ( 'NONE',  ( -0.5742241472994580320, 0.1499999999999999944, 0.7514011146818150300 ) ) ;
#101 = EDGE_LOOP ( 'NONE', ( #113, #1035, #342, #143 ) ) ;
#102 = CARTESIAN_POINT ( 'NONE',  ( 0.1499999999999999944, -0.1644761939757929947, 0.9857580157297859413 ) ) ;
#103 = ORIENTED_EDGE ( 'NONE', *, *, #61, .T. ) ;
#104 = ORIENTED_EDGE ( 'NONE', *, *, #1087, .F. ) ;
#105 = ORIENTED_EDGE ( 'NONE', *, *, #674, .F. ) ;
#106 = ORIENTED_EDGE ( 'NONE', *, *, #278, .F. ) ;
#107 = ORIENTED_EDGE ( 'NONE', *, *, #463, .F. ) ;
#108 = VERTEX_POINT ( 'NONE', #93 ) ;
#109 =( NAMED_UNIT ( * ) SI_UNIT ( $, .STERADIAN. ) SOLID_ANGLE_UNIT ( ) );
#110 =( GEOMETRIC_REPRESENTATION_CONTEXT ( 3 ) GLOBAL_UNCERTAINTY_ASSIGNED_CONTEXT ( ( #1053 ) ) GLOBAL_UNIT_ASSIGNED_CONTEXT ( ( #335, #536, #942 ) ) REPRESENTATION_CONTEXT ( 'NONE', 'WORKASPACE' ) );
#111 = ORIENTED_EDGE ( 'NONE', *, *, #856, .T. ) ;
#112 = DIRECTION ( 'NONE',  ( 0.000000000000000000, 0.000000000000000000, -1.000000000000000000 ) ) ;
#113 = ORIENTED_EDGE ( 'NONE', *, *, #1001, .T. ) ;
#114 = ORIENTED_EDGE ( 'NONE', *, *, #588, .T. ) ;
#115 = VERTEX_POINT ( 'NONE', #700 ) ;
#116 = ORIENTED_EDGE ( 'NONE', *, *, #923, .T. ) ;
#117 = VERTEX_POINT ( 'NONE', #821 ) ;
#118 = ORIENTED_EDGE ( 'NONE', *, *, #962, .F. ) ;
#119 = CARTESIAN_POINT ( 'NONE',  ( 0.1499999999999999944, -0.8499999999999999778, 0.000000000000000000 ) ) ;
#120 = ORIENTED_EDGE ( 'NONE', *, *, #904, .T. ) ;
#121 = EDGE_LOOP ( 'NONE', ( #478, #1010, #156, #484 ) ) ;
#122 = ORIENTED_EDGE ( 'NONE', *, *, #965, .F. ) ;
#123 = ORIENTED_EDGE ( 'NONE', *, *, #1260, .T. ) ;
#124 = CARTESIAN_POINT ( 'NONE',  ( 0.1499999999999999944, -0.8034878236872060597, 1.030442061790326047 ) ) ;
#125 = ORIENTED_EDGE ( 'NONE', *, *, #613, .F. ) ;
#126 = CLOSED_SHELL ( 'NONE', ( #573, #552, #1268, #414, #696, #472, #872, #770, #1079, #886, #368 ) ) ;
#127 = CARTESIAN_POINT ( 'NONE',  ( 1.330334748005042061E-16, -0.9499999999999999556, 0.7668857696503720289 ) ) ;
#128 = ORIENTED_EDGE ( 'NONE', *, *, #1084, .T. ) ;
#129 = ORIENTED_EDGE ( 'NONE', *, *, #975, .T. ) ;
#130 = CARTESIAN_POINT ( 'NONE',  ( 0.1499999999999999944, 0.06779516441595999365, 0.9695160201316640469 ) ) ;
#131 = ORIENTED_EDGE ( 'NONE', *, *, #923, .F. ) ;
#132 = DIRECTION ( 'NONE',  ( 1.000000000000000000, 0.000000000000000000, 0.000000000000000000 ) ) ;
#133 = ORIENTED_EDGE ( 'NONE', *, *, #491, .T. ) ;
#134 = ORIENTED_EDGE ( 'NONE', *, *, #1150, .T. ) ;
#135 = ORIENTED_EDGE ( 'NONE', *, *, #96, .T. ) ;
#136 = AXIS2_PLACEMENT_3D ( 'NONE', #550, #72, #758 ) ;
#137 = CARTESIAN_POINT ( 'NONE',  ( 0.1499999999999999944, -0.1658640282339259864, -0.8354887778427870781 ) ) ;
#138 = EDGE_CURVE ( 'NONE', #917, #1201, #1154, .T. ) ;
#139 = ORIENTED_EDGE ( 'NONE', *, *, #1213, .T. ) ;
#140 = EDGE_LOOP ( 'NONE', ( #299, #919, #1093, #291 ) ) ;
#141 = ORIENTED_EDGE ( 'NONE', *, *, #1044, .F. ) ;
#142 = CARTESIAN_POINT ( 'NONE',  ( 0.1499999999999999944, -0.8499999999999999778, 0.000000000000000000 ) ) ;
#143 = ORIENTED_EDGE ( 'NONE', *, *, #1155, .T. ) ;
#144 = EDGE_CURVE ( 'NONE', #324, #911, #709, .T. ) ;
#145 = VERTEX_POINT ( 'NONE', #1017 ) ;
#146 = EDGE_LOOP ( 'NONE', ( #915, #1224, #593, #1050 ) ) ;
#147 = DIRECTION ( 'NONE',  ( 0.000000000000000000, 0.06975647374411739210, -0.9975640502598248638 ) ) ;
#148 = ADVANCED_FACE ( 'NONE', ( #703 ), #920, .T. ) ;
#149 = ORIENTED_EDGE ( 'NONE', *, *, #588, .F. ) ;
#150 = DIRECTION ( 'NONE',  ( 1.000000000000000000, 0.000000000000000000, -1.734723475976804876E-16 ) ) ;
#151 = ORIENTED_EDGE ( 'NONE', *, *, #1082, .F. ) ;
#152 = CARTESIAN_POINT ( 'NONE',  ( 0.1499999999999999944, -1.000000000000000000, 0.000000000000000000 ) ) ;
#153 = EDGE_CURVE ( 'NONE', #1042, #1015, #1174, .T. ) ;
#154 = PLANE ( 'NONE',  #1096 ) ;
#155 = DIRECTION ( 'NONE',  ( 0.000000000000000000, -1.445602896647340100E-15, -1.000000000000000000 ) ) ;
#156 = ORIENTED_EDGE ( 'NONE', *, *, #692, .F. ) ;
#157 = DIRECTION ( 'NONE',  ( 0.000000000000000000, 1.000000000000000000, -1.445602896647340100E-15 ) ) ;
#158 = EDGE_CURVE ( 'NONE', #587, #1201, #1156, .T. ) ;
#159 = ADVANCED_FACE ( 'NONE', ( #706 ), #594, .T. ) ;
#160 = VERTEX_POINT ( 'NONE', #1196 ) ;
#161 = DIRECTION ( 'NONE',  ( 0.000000000000000000, -0.9961946980917455452, 0.08715574274765854057 ) ) ;
#162 = EDGE_LOOP ( 'NONE', ( #865, #883, #424, #873 ) ) ;
#163 = CARTESIAN_POINT ( 'NONE',  ( -0.1499999999999999944, -0.8499999999999999778, -1.080320264303318067 ) ) ;
#164 = DIRECTION ( 'NONE',  ( 1.000000000000000000, 0.000000000000000000, 0.000000000000000000 ) ) ;
#165 = CARTESIAN_POINT ( 'NONE',  ( -0.5742241472994580320, 0.1000000000000000056, 0.5977054321332611053 ) ) ;
#166 = EDGE_LOOP ( 'NONE', ( #1228, #560, #554, #456 ) ) ;
#167 = EDGE_CURVE ( 'NONE', #1003, #542, #731, .T. ) ;
#168 = DIRECTION ( 'NONE',  ( 0.000000000000000000, 0.000000000000000000, 1.000000000000000000 ) ) ;
#169 = EDGE_CURVE ( 'NONE', #461, #108, #1190, .T. ) ;
#170 = DIRECTION ( 'NONE',  ( 0.000000000000000000, -1.000000000000000000, 0.000000000000000000 ) ) ;
#171 = DIRECTION ( 'NONE',  ( 0.000000000000000000, 1.000000000000000000, 0.000000000000000000 ) ) ;
#172 = EDGE_CURVE ( 'NONE', #605, #490, #734, .T. ) ;
#173 = EDGE_LOOP ( 'NONE', ( #473, #464, #429, #1046 ) ) ;
#174 = CARTESIAN_POINT ( 'NONE',  ( 0.5742241472994580320, 0.1499999999999999944, 0.7514011146818150300 ) ) ;
#175 = CARTESIAN_POINT ( 'NONE',  ( 0.1499999999999999944, -0.07380047550844570647, -0.8435432950301879895 ) ) ;
#176 = CARTESIAN_POINT ( 'NONE',  ( -0.1499999999999999944, 0.06779516441595999365, 0.9695160201316640469 ) ) ;
#177 = DIRECTION ( 'NONE',  ( 0.000000000000000000, 0.000000000000000000, 1.000000000000000000 ) ) ;
#178 = DIRECTION ( 'NONE',  ( -1.000000000000000000, 0.000000000000000000, 1.734723475976804876E-16 ) ) ;
#179 = DIRECTION ( 'NONE',  ( -1.000000000000000000, 0.000000000000000000, 0.000000000000000000 ) ) ;
#180 = EDGE_CURVE ( 'NONE', #1000, #50, #1163, .T. ) ;
#181 = DIRECTION ( 'NONE',  ( 0.000000000000000000, 0.000000000000000000, 1.000000000000000000 ) ) ;
#182 = PLANE ( 'NONE',  #500 ) ;
#183 = UNCERTAINTY_MEASURE_WITH_UNIT (LENGTH_MEASURE( 1.000000000000000082E-05 ), #633, 'distance_accuracy_value', 'NONE');
#184 = ORIENTED_EDGE ( 'NONE', *, *, #221, .T. ) ;
#185 = DIRECTION ( 'NONE',  ( 0.000000000000000000, 0.9975640502598247528, 0.06975647374411757251 ) ) ;
#186 = DIRECTION ( 'NONE',  ( -1.000000000000000000, 0.000000000000000000, 0.000000000000000000 ) ) ;
#187 = CARTESIAN_POINT ( 'NONE',  ( 0.5742241472994580320, 0.1499999999999999944, 0.7514011146818150300 ) ) ;
#188 = STYLED_ITEM ( 'NONE', ( #1280 ), #691 ) ;
#189 = DIRECTION ( 'NONE',  ( -0.000000000000000000, 1.000000000000000000, 0.000000000000000000 ) ) ;
#190 = AXIS2_PLACEMENT_3D ( 'NONE', #457, #164, #632 ) ;
#191 = DIRECTION ( 'NONE',  ( 0.08682659386424759762, 0.9924325091389669673, -0.08682659386424772252 ) ) ;
#192 = CARTESIAN_POINT ( 'NONE',  ( 0.1499999999999999944, -1.000000000000000000, -1.080320264303318067 ) ) ;
#193 = PRODUCT ( 'CUS10S30,H3F', 'CUS10S30,H3F', '', ( #1095 ) ) ;
#194 = ORIENTED_EDGE ( 'NONE', *, *, #205, .T. ) ;
#195 = ORIENTED_EDGE ( 'NONE', *, *, #357, .T. ) ;
#196 = DIRECTION ( 'NONE',  ( 0.000000000000000000, 0.000000000000000000, -1.000000000000000000 ) ) ;
#197 = CARTESIAN_POINT ( 'NONE',  ( 0.6121839424164859933, -0.1464882084947650154, -0.8371839424164858601 ) ) ;
#198 = EDGE_CURVE ( 'NONE', #426, #542, #737, .T. ) ;
#199 = CARTESIAN_POINT ( 'NONE',  ( -0.6250000000000000000, 0.000000000000000000, 0.8499999999999999778 ) ) ;
#200 = AXIS2_PLACEMENT_3D ( 'NONE', #781, #601, #247 ) ;
#201 = ADVANCED_FACE ( 'NONE', ( #1180 ), #182, .F. ) ;
#202 = CARTESIAN_POINT ( 'NONE',  ( -0.1499999999999999944, -0.8499999999999999778, 0.000000000000000000 ) ) ;
#203 = DIRECTION ( 'NONE',  ( 1.000000000000000000, 0.000000000000000000, 0.000000000000000000 ) ) ;
#204 = ADVANCED_FACE ( 'NONE', ( #282 ), #266, .F. ) ;
#205 = EDGE_CURVE ( 'NONE', #324, #461, #1197, .T. ) ;
#206 = CARTESIAN_POINT ( 'NONE',  ( 0.1499999999999999944, 0.000000000000000000, 0.8499999999999999778 ) ) ;
#207 = AXIS2_PLACEMENT_3D ( 'NONE', #498, #814, #1294 ) ;
#208 = LINE ( 'NONE', #165, #245 ) ;
#209 = DIRECTION ( 'NONE',  ( 1.000000000000000000, 0.000000000000000000, -1.734723475976804876E-16 ) ) ;
#210 = LINE ( 'NONE', #489, #1117 ) ;
#211 = LINE ( 'NONE', #1172, #699 ) ;
#212 = DIRECTION ( 'NONE',  ( 1.000000000000000000, 0.000000000000000000, 0.000000000000000000 ) ) ;
#213 = FACE_OUTER_BOUND ( 'NONE', #922, .T. ) ;
#214 = CARTESIAN_POINT ( 'NONE',  ( 0.5742241472994580320, 0.1000000000000000056, 0.7514011146818150300 ) ) ;
#215 = LINE ( 'NONE', #192, #1121 ) ;
#216 = VECTOR ( 'NONE', #447, 1000.000000000000000 ) ;
#217 = DIRECTION ( 'NONE',  ( -0.9961946980917455452, -0.08715574274765815199, 0.000000000000000000 ) ) ;
#218 = CARTESIAN_POINT ( 'NONE',  ( 0.1499999999999999944, 0.05733169335434219749, -0.8198814125926899843 ) ) ;
#219 = VECTOR ( 'NONE', #455, 1000.000000000000000 ) ;
#220 = DIRECTION ( 'NONE',  ( -1.000000000000000000, 0.000000000000000000, 0.000000000000000000 ) ) ;
#221 = EDGE_CURVE ( 'NONE', #82, #63, #1235, .T. ) ;
#222 = LINE ( 'NONE', #596, #225 ) ;
#223 = AXIS2_PLACEMENT_3D ( 'NONE', #717, #1145, #1254 ) ;
#224 = DIRECTION ( 'NONE',  ( -0.000000000000000000, 1.000000000000000000, 0.000000000000000000 ) ) ;
#225 = VECTOR ( 'NONE', #785, 1000.000000000000000 ) ;
#226 = ADVANCED_FACE ( 'NONE', ( #1220 ), #1206, .F. ) ;
#227 = EDGE_CURVE ( 'NONE', #917, #568, #333, .T. ) ;
#228 = DIRECTION ( 'NONE',  ( 0.000000000000000000, 0.9975640502598247528, -0.06975647374411737822 ) ) ;
#229 = LINE ( 'NONE', #175, #1131 ) ;
#230 = FILL_AREA_STYLE ('',( #581 ) ) ;
#231 = LINE ( 'NONE', #1115, #1130 ) ;
#232 = CARTESIAN_POINT ( 'NONE',  ( 0.1499999999999999944, -0.8499999999999999778, 1.250000000000000000 ) ) ;
#233 = VECTOR ( 'NONE', #1086, 1000.000000000000000 ) ;
#234 = CARTESIAN_POINT ( 'NONE',  ( -0.6250000000000000000, -2.082380167871430051E-33, 0.8499999999999999778 ) ) ;
#235 = CYLINDRICAL_SURFACE ( 'NONE', #675, 0.2000000000000000944 ) ;
#236 = DIRECTION ( 'NONE',  ( -1.000000000000000000, 0.000000000000000000, 0.000000000000000000 ) ) ;
#237 = LINE ( 'NONE', #761, #702 ) ;
#238 = DIRECTION ( 'NONE',  ( -1.000000000000000000, -1.982798006124285113E-15, 0.000000000000000000 ) ) ;
#239 = VECTOR ( 'NONE', #540, 1000.000000000000000 ) ;
#240 = DIRECTION ( 'NONE',  ( 0.000000000000000000, 8.864339340456144530E-16, -1.000000000000000000 ) ) ;
#241 = VECTOR ( 'NONE', #157, 1000.000000000000000 ) ;
#242 = EDGE_CURVE ( 'NONE', #908, #582, #1237, .T. ) ;
#243 = AXIS2_PLACEMENT_3D ( 'NONE', #528, #155, #1161 ) ;
#244 = PLANE ( 'NONE',  #874 ) ;
#245 = VECTOR ( 'NONE', #369, 1000.000000000000000 ) ;
#246 = DIRECTION ( 'NONE',  ( 1.000000000000000000, 0.000000000000000000, 0.000000000000000000 ) ) ;
#247 = DIRECTION ( 'NONE',  ( 1.000000000000000000, 0.000000000000000000, 0.000000000000000000 ) ) ;
#248 = FACE_OUTER_BOUND ( 'NONE', #928, .T. ) ;
#249 = LINE ( 'NONE', #852, #1152 ) ;
#250 = DIRECTION ( 'NONE',  ( 1.728122329423377132E-16, 0.08715574274765815199, 0.9961946980917455452 ) ) ;
#251 = DIRECTION ( 'NONE',  ( 0.000000000000000000, -1.000000000000000000, 0.000000000000000000 ) ) ;
#252 = LINE ( 'NONE', #339, #239 ) ;
#253 = VECTOR ( 'NONE', #912, 1000.000000000000114 ) ;
#254 =( GEOMETRIC_REPRESENTATION_CONTEXT ( 3 ) GLOBAL_UNCERTAINTY_ASSIGNED_CONTEXT ( ( #879 ) ) GLOBAL_UNIT_ASSIGNED_CONTEXT ( ( #403, #810, #109 ) ) REPRESENTATION_CONTEXT ( 'NONE', 'WORKASPACE' ) );
#255 = VECTOR ( 'NONE', #112, 1000.000000000000000 ) ;
#256 = CARTESIAN_POINT ( 'NONE',  ( 0.1499999999999999944, -0.8000000000000000444, 1.080320264303318067 ) ) ;
#257 = VECTOR ( 'NONE', #66, 1000.000000000000000 ) ;
#258 = CARTESIAN_POINT ( 'NONE',  ( 0.1499999999999999944, -0.1644761939757929947, -0.9857580157297859413 ) ) ;
#259 = ADVANCED_FACE ( 'NONE', ( #341 ), #244, .F. ) ;
#260 = DIRECTION ( 'NONE',  ( 0.000000000000000000, 0.000000000000000000, -1.000000000000000000 ) ) ;
#261 = UNCERTAINTY_MEASURE_WITH_UNIT (LENGTH_MEASURE( 1.000000000000000082E-05 ), #1249, 'distance_accuracy_value', 'NONE');
#262 = VERTEX_POINT ( 'NONE', #966 ) ;
#263 = CARTESIAN_POINT ( 'NONE',  ( 0.5742241472994580320, 0.1499999999999999944, 0.5977054321332611053 ) ) ;
#264 = DIRECTION ( 'NONE',  ( 0.000000000000000000, 0.000000000000000000, 1.000000000000000222 ) ) ;
#265 = ORIENTED_EDGE ( 'NONE', *, *, #625, .T. ) ;
#266 = PLANE ( 'NONE',  #1209 ) ;
#267 = VECTOR ( 'NONE', #25, 1000.000000000000000 ) ;
#268 = VERTEX_POINT ( 'NONE', #1261 ) ;
#269 = DIRECTION ( 'NONE',  ( 0.000000000000000000, -1.000000000000000000, 0.000000000000000000 ) ) ;
#270 = VECTOR ( 'NONE', #83, 1000.000000000000000 ) ;
#271 = EDGE_CURVE ( 'NONE', #432, #117, #332, .T. ) ;
#272 = CARTESIAN_POINT ( 'NONE',  ( -0.1499999999999999944, -0.07380047550844570647, -0.8435432950301879895 ) ) ;
#273 = ORIENTED_EDGE ( 'NONE', *, *, #949, .T. ) ;
#274 = EDGE_CURVE ( 'NONE', #275, #730, #366, .T. ) ;
#275 = VERTEX_POINT ( 'NONE', #1252 ) ;
#276 = FACE_OUTER_BOUND ( 'NONE', #146, .T. ) ;
#277 = DIRECTION ( 'NONE',  ( -1.000000000000000000, 0.000000000000000000, 0.000000000000000000 ) ) ;
#278 = EDGE_CURVE ( 'NONE', #961, #981, #352, .T. ) ;
#279 = CYLINDRICAL_SURFACE ( 'NONE', #1062, 0.1834658169397844485 ) ;
#280 = ORIENTED_EDGE ( 'NONE', *, *, #509, .F. ) ;
#281 = PLANE ( 'NONE',  #1153 ) ;
#282 = FACE_OUTER_BOUND ( 'NONE', #562, .T. ) ;
#283 = VERTEX_POINT ( 'NONE', #367 ) ;
#284 = DIRECTION ( 'NONE',  ( -1.000000000000000000, 0.000000000000000000, 0.000000000000000000 ) ) ;
#285 = VECTOR ( 'NONE', #458, 1000.000000000000114 ) ;
#286 = DIRECTION ( 'NONE',  ( -1.000000000000000000, 0.000000000000000000, 0.000000000000000000 ) ) ;
#287 = ORIENTED_EDGE ( 'NONE', *, *, #1277, .T. ) ;
#288 = VERTEX_POINT ( 'NONE', #33 ) ;
#289 = ORIENTED_EDGE ( 'NONE', *, *, #613, .T. ) ;
#290 = LINE ( 'NONE', #408, #713 ) ;
#291 = ORIENTED_EDGE ( 'NONE', *, *, #532, .F. ) ;
#292 = AXIS2_PLACEMENT_3D ( 'NONE', #668, #1078, #645 ) ;
#293 = DIRECTION ( 'NONE',  ( 0.000000000000000000, 0.9975640502598247528, -0.06975647374411737822 ) ) ;
#294 = DIRECTION ( 'NONE',  ( -0.000000000000000000, 0.06975647374411757251, 0.9975640502598247528 ) ) ;
#295 = ORIENTED_EDGE ( 'NONE', *, *, #617, .T. ) ;
#296 = AXIS2_PLACEMENT_3D ( 'NONE', #1060, #27, #1068 ) ;
#297 = FACE_OUTER_BOUND ( 'NONE', #869, .T. ) ;
#298 = AXIS2_PLACEMENT_3D ( 'NONE', #658, #181, #394 ) ;
#299 = ORIENTED_EDGE ( 'NONE', *, *, #1244, .F. ) ;
#300 = EDGE_CURVE ( 'NONE', #568, #571, #343, .T. ) ;
#301 = LINE ( 'NONE', #479, #285 ) ;
#302 = ORIENTED_EDGE ( 'NONE', *, *, #654, .T. ) ;
#303 = EDGE_LOOP ( 'NONE', ( #1022, #548, #932, #434 ) ) ;
#304 = ORIENTED_EDGE ( 'NONE', *, *, #22, .F. ) ;
#305 = VERTEX_POINT ( 'NONE', #124 ) ;
#306 = ORIENTED_EDGE ( 'NONE', *, *, #485, .T. ) ;
#307 = VERTEX_POINT ( 'NONE', #51 ) ;
#308 = ORIENTED_EDGE ( 'NONE', *, *, #96, .F. ) ;
#309 = LINE ( 'NONE', #413, #760 ) ;
#310 = DIRECTION ( 'NONE',  ( 0.000000000000000000, 0.000000000000000000, 1.000000000000000000 ) ) ;
#311 = ORIENTED_EDGE ( 'NONE', *, *, #76, .F. ) ;
#312 = VECTOR ( 'NONE', #595, 1000.000000000000000 ) ;
#313 = ORIENTED_EDGE ( 'NONE', *, *, #840, .T. ) ;
#314 = CARTESIAN_POINT ( 'NONE',  ( 0.1499999999999999944, -1.807003620809174977E-15, 1.250000000000000000 ) ) ;
#315 = DIRECTION ( 'NONE',  ( -1.000000000000000000, 0.000000000000000000, 0.000000000000000000 ) ) ;
#316 = VECTOR ( 'NONE', #990, 1000.000000000000000 ) ;
#317 = PRODUCT_DEFINITION_SHAPE ( 'NONE', 'NONE',  #1314 ) ;
#318 = AXIS2_PLACEMENT_3D ( 'NONE', #1085, #1175, #354 ) ;
#319 = LINE ( 'NONE', #1210, #1236 ) ;
#320 = DIRECTION ( 'NONE',  ( -0.000000000000000000, 1.000000000000000000, 0.000000000000000000 ) ) ;
#321 = FACE_OUTER_BOUND ( 'NONE', #460, .T. ) ;
#322 = CARTESIAN_POINT ( 'NONE',  ( 0.1499999999999999944, -0.8139512947488238837, 0.8808074542513529837 ) ) ;
#323 = VERTEX_POINT ( 'NONE', #42 ) ;
#324 = VERTEX_POINT ( 'NONE', #206 ) ;
#325 = CIRCLE ( 'NONE', #905, 0.1834658169397844485 ) ;
#326 = CARTESIAN_POINT ( 'NONE',  ( -0.6155764282474159854, 0.1077119180108566110, 0.8405764282474160742 ) ) ;
#327 = DIRECTION ( 'NONE',  ( -0.08715574274765815199, 0.9961946980917455452, 0.000000000000000000 ) ) ;
#328 = VECTOR ( 'NONE', #269, 1000.000000000000000 ) ;
#329 = PLANE ( 'NONE',  #894 ) ;
#330 = LINE ( 'NONE', #378, #776 ) ;
#331 = DIRECTION ( 'NONE',  ( 0.000000000000000000, 0.000000000000000000, -1.000000000000000000 ) ) ;
#332 = LINE ( 'NONE', #214, #356 ) ;
#333 = LINE ( 'NONE', #800, #336 ) ;
#334 = DIRECTION ( 'NONE',  ( 1.000000000000000000, 0.000000000000000000, 0.000000000000000000 ) ) ;
#335 =( LENGTH_UNIT ( ) NAMED_UNIT ( * ) SI_UNIT ( .MILLI., .METRE. ) );
#336 = VECTOR ( 'NONE', #1072, 1000.000000000000000 ) ;
#337 = DIRECTION ( 'NONE',  ( 0.000000000000000000, -0.9961946980917455452, 0.08715574274765815199 ) ) ;
#338 = LINE ( 'NONE', #704, #316 ) ;
#339 = CARTESIAN_POINT ( 'NONE',  ( 0.1499999999999999944, -0.1658640282339259864, -0.8354887778427870781 ) ) ;
#340 = EDGE_LOOP ( 'NONE', ( #149, #728, #302, #577, #306, #1195, #744, #510, #513 ) ) ;
#341 = FACE_OUTER_BOUND ( 'NONE', #1056, .T. ) ;
#342 = ORIENTED_EDGE ( 'NONE', *, *, #674, .T. ) ;
#343 = LINE ( 'NONE', #1076, #783 ) ;
#344 = DIRECTION ( 'NONE',  ( 0.000000000000000000, 0.000000000000000000, 1.000000000000000000 ) ) ;
#345 = CARTESIAN_POINT ( 'NONE',  ( -0.1499999999999999944, -0.8000000000000000444, -1.080320264303318067 ) ) ;
#346 = VECTOR ( 'NONE', #925, 1000.000000000000000 ) ;
#347 = CARTESIAN_POINT ( 'NONE',  ( 0.000000000000000000, 0.000000000000000000, 0.000000000000000000 ) ) ;
#348 = LINE ( 'NONE', #604, #312 ) ;
#349 = PLANE ( 'NONE',  #99 ) ;
#350 = EDGE_CURVE ( 'NONE', #571, #63, #1225, .T. ) ;
#351 = ADVANCED_FACE ( 'NONE', ( #1250 ), #443, .T. ) ;
#352 = LINE ( 'NONE', #1067, #1243 ) ;
#353 = EDGE_CURVE ( 'NONE', #1004, #486, #762, .T. ) ;
#354 = DIRECTION ( 'NONE',  ( 1.000000000000000000, 0.000000000000000000, 0.000000000000000000 ) ) ;
#355 = VECTOR ( 'NONE', #795, 1000.000000000000000 ) ;
#356 = VECTOR ( 'NONE', #753, 1000.000000000000000 ) ;
#357 = EDGE_CURVE ( 'NONE', #63, #587, #797, .T. ) ;
#358 = VECTOR ( 'NONE', #1129, 1000.000000000000000 ) ;
#359 = CARTESIAN_POINT ( 'NONE',  ( -0.5742241472994580320, 0.1000000000000000056, 0.5977054321332611053 ) ) ;
#360 = SURFACE_STYLE_USAGE ( .BOTH. , #1179 ) ;
#361 = VECTOR ( 'NONE', #948, 1000.000000000000114 ) ;
#362 =( LENGTH_UNIT ( ) NAMED_UNIT ( * ) SI_UNIT ( .MILLI., .METRE. ) );
#363 = FACE_OUTER_BOUND ( 'NONE', #591, .T. ) ;
#364 = LINE ( 'NONE', #639, #1246 ) ;
#365 = VECTOR ( 'NONE', #959, 1000.000000000000114 ) ;
#366 = LINE ( 'NONE', #559, #1240 ) ;
#367 = CARTESIAN_POINT ( 'NONE',  ( -0.1499999999999999944, -0.8499999999999999778, 1.250000000000000000 ) ) ;
#368 = ADVANCED_FACE ( 'NONE', ( #765 ), #436, .F. ) ;
#369 = DIRECTION ( 'NONE',  ( 0.000000000000000000, 1.000000000000000000, 0.000000000000000000 ) ) ;
#370 = LINE ( 'NONE', #488, #787 ) ;
#371 = DIRECTION ( 'NONE',  ( 1.000000000000000000, 0.000000000000000000, 0.000000000000000000 ) ) ;
#372 = DIRECTION ( 'NONE',  ( -0.000000000000000000, 0.08715574274765854057, 0.9961946980917455452 ) ) ;
#373 = APPLICATION_CONTEXT ( 'automotive_design' ) ;
#374 = EDGE_CURVE ( 'NONE', #772, #115, #806, .T. ) ;
#375 = CARTESIAN_POINT ( 'NONE',  ( -0.1499999999999999944, -1.807003620809174977E-15, -1.250000000000000000 ) ) ;
#376 = AXIS2_PLACEMENT_3D ( 'NONE', #97, #250, #8 ) ;
#377 = FACE_OUTER_BOUND ( 'NONE', #749, .T. ) ;
#378 = CARTESIAN_POINT ( 'NONE',  ( 0.5742241472994580320, 0.1000000000000000056, 0.7514011146818150300 ) ) ;
#379 = CARTESIAN_POINT ( 'NONE',  ( 0.1499999999999999944, -0.8000000000000000444, -1.080320264303318067 ) ) ;
#380 = ITEM_DEFINED_TRANSFORMATION ( 'NONE', 'NONE', #1193,  #752 ) ;
#381 = LINE ( 'NONE', #952, #410 ) ;
#382 = CONTEXT_DEPENDENT_SHAPE_REPRESENTATION ( #907, #317 ) ;
#383 = CARTESIAN_POINT ( 'NONE',  ( 0.5742241472994580320, 0.1000000000000000056, 0.5977054321332611053 ) ) ;
#384 = CARTESIAN_POINT ( 'NONE',  ( 0.1499999999999999944, -0.07380047550844570647, -0.8435432950301879895 ) ) ;
#385 = VECTOR ( 'NONE', #20, 1000.000000000000000 ) ;
#386 = CARTESIAN_POINT ( 'NONE',  ( 0.5742241472994580320, 0.1000000000000000056, 0.7514011146818150300 ) ) ;
#387 = LINE ( 'NONE', #127, #416 ) ;
#388 = DIRECTION ( 'NONE',  ( -1.000000000000000000, 0.000000000000000000, 0.000000000000000000 ) ) ;
#389 = PRESENTATION_STYLE_ASSIGNMENT (( #1139 ) ) ;
#390 = DIRECTION ( 'NONE',  ( 0.000000000000000000, 0.000000000000000000, 1.000000000000000000 ) ) ;
#391 = CARTESIAN_POINT ( 'NONE',  ( -0.1499999999999999944, -1.000000000000000000, 0.000000000000000000 ) ) ;
#392 = EDGE_CURVE ( 'NONE', #145, #499, #771, .T. ) ;
#393 = DIRECTION ( 'NONE',  ( 1.000000000000000000, 0.000000000000000000, 0.000000000000000000 ) ) ;
#394 = DIRECTION ( 'NONE',  ( 1.000000000000000000, 0.000000000000000000, 0.000000000000000000 ) ) ;
#395 = DIRECTION ( 'NONE',  ( -0.000000000000000000, 1.000000000000000000, 0.000000000000000000 ) ) ;
#396 = FACE_OUTER_BOUND ( 'NONE', #1226, .T. ) ;
#397 = EDGE_CURVE ( 'NONE', #1049, #307, #1248, .T. ) ;
#398 = COLOUR_RGB ( '',0.7921568627450980005, 0.8196078431372548767, 0.9333333333333333481 ) ;
#399 = CARTESIAN_POINT ( 'NONE',  ( 0.5742241472994580320, 0.1499999999999999944, 0.5977054321332611053 ) ) ;
#400 = LINE ( 'NONE', #1135, #1284 ) ;
#401 = VECTOR ( 'NONE', #56, 1000.000000000000000 ) ;
#402 = CARTESIAN_POINT ( 'NONE',  ( 0.1499999999999999944, -0.1772741224180960085, 0.8027391122991069938 ) ) ;
#403 =( LENGTH_UNIT ( ) NAMED_UNIT ( * ) SI_UNIT ( .MILLI., .METRE. ) );
#404 = LINE ( 'NONE', #431, #401 ) ;
#405 = LINE ( 'NONE', #619, #820 ) ;
#406 = DIRECTION ( 'NONE',  ( 1.000000000000000000, 0.000000000000000000, 0.000000000000000000 ) ) ;
#407 = EDGE_CURVE ( 'NONE', #68, #587, #364, .T. ) ;
#408 = CARTESIAN_POINT ( 'NONE',  ( 0.1499999999999999944, -1.000000000000000000, 1.080320264303318067 ) ) ;
#409 = DIRECTION ( 'NONE',  ( -1.000000000000000000, 0.000000000000000000, 0.000000000000000000 ) ) ;
#410 = VECTOR ( 'NONE', #1069, 1000.000000000000000 ) ;
#411 = FACE_OUTER_BOUND ( 'NONE', #964, .T. ) ;
#412 = PRODUCT_RELATED_PRODUCT_CATEGORY ( 'part', '', ( #1030 ) ) ;
#413 = CARTESIAN_POINT ( 'NONE',  ( 0.1499999999999999944, -0.8034878236872060597, 1.030442061790326047 ) ) ;
#414 = ADVANCED_FACE ( 'NONE', ( #809 ), #971, .T. ) ;
#415 = COLOUR_RGB ( '',0.7921568627450980005, 0.8196078431372548767, 0.9333333333333333481 ) ;
#416 = VECTOR ( 'NONE', #209, 1000.000000000000000 ) ;
#417 = VECTOR ( 'NONE', #742, 1000.000000000000000 ) ;
#418 = DIRECTION ( 'NONE',  ( 0.000000000000000000, 1.000000000000000000, 0.000000000000000000 ) ) ;
#419 = EDGE_CURVE ( 'NONE', #426, #551, #780, .T. ) ;
#420 = PLANE ( 'NONE',  #933 ) ;
#421 = VERTEX_POINT ( 'NONE', #1305 ) ;
#422 = EDGE_CURVE ( 'NONE', #92, #77, #348, .T. ) ;
#423 = EDGE_LOOP ( 'NONE', ( #716, #507, #1178, #273 ) ) ;
#424 = ORIENTED_EDGE ( 'NONE', *, *, #300, .T. ) ;
#425 = EDGE_CURVE ( 'NONE', #268, #719, #790, .T. ) ;
#426 = VERTEX_POINT ( 'NONE', #686 ) ;
#427 = ORIENTED_EDGE ( 'NONE', *, *, #1303, .T. ) ;
#428 = CARTESIAN_POINT ( 'NONE',  ( 0.1499999999999999944, 0.000000000000000000, 0.000000000000000000 ) ) ;
#429 = ORIENTED_EDGE ( 'NONE', *, *, #537, .F. ) ;
#430 = CYLINDRICAL_SURFACE ( 'NONE', #136, 0.1834658169397844485 ) ;
#431 = CARTESIAN_POINT ( 'NONE',  ( 0.5418857696503720511, -0.9499999999999999556, 0.000000000000000000 ) ) ;
#432 = VERTEX_POINT ( 'NONE', #85 ) ;
#433 = FACE_OUTER_BOUND ( 'NONE', #995, .T. ) ;
#434 = ORIENTED_EDGE ( 'NONE', *, *, #419, .T. ) ;
#435 = CIRCLE ( 'NONE', #48, 0.1999999999999999833 ) ;
#436 = PLANE ( 'NONE',  #1109 ) ;
#437 = EDGE_CURVE ( 'NONE', #908, #145, #1233, .T. ) ;
#438 = DIRECTION ( 'NONE',  ( -0.08682659386424759762, -0.9924325091389669673, 0.08682659386424772252 ) ) ;
#439 = AXIS2_PLACEMENT_3D ( 'NONE', #909, #1012, #406 ) ;
#440 = CARTESIAN_POINT ( 'NONE',  ( 0.1499999999999999944, -0.8139512947488238837, 0.8808074542513529837 ) ) ;
#441 = COLOUR_RGB ( '',1.000000000000000000, 1.000000000000000000, 1.000000000000000000 ) ;
#442 = PRODUCT_DEFINITION_FORMATION_WITH_SPECIFIED_SOURCE ( 'ANY', '', #1030, .NOT_KNOWN. ) ;
#443 = PLANE ( 'NONE',  #318 ) ;
#444 = VECTOR ( 'NONE', #453, 1000.000000000000114 ) ;
#445 = FACE_OUTER_BOUND ( 'NONE', #1066, .T. ) ;
#446 =( NAMED_UNIT ( * ) PLANE_ANGLE_UNIT ( ) SI_UNIT ( $, .RADIAN. ) );
#447 = DIRECTION ( 'NONE',  ( -1.000000000000000000, 0.000000000000000000, 0.000000000000000000 ) ) ;
#448 = LINE ( 'NONE', #778, #901 ) ;
#449 = EDGE_CURVE ( 'NONE', #1009, #1004, #1253, .T. ) ;
#450 = ADVANCED_FACE ( 'NONE', ( #1245 ), #506, .T. ) ;
#451 = DIRECTION ( 'NONE',  ( 0.000000000000000000, 0.000000000000000000, -1.000000000000000000 ) ) ;
#452 = ADVANCED_FACE ( 'NONE', ( #1222 ), #1011, .T. ) ;
#453 = DIRECTION ( 'NONE',  ( -0.08682659386424759762, 0.9924325091389669673, -0.08682659386424759762 ) ) ;
#454 = LINE ( 'NONE', #176, #1307 ) ;
#455 = DIRECTION ( 'NONE',  ( 0.000000000000000000, 0.000000000000000000, -1.000000000000000000 ) ) ;
#456 = ORIENTED_EDGE ( 'NONE', *, *, #1239, .T. ) ;
#457 = CARTESIAN_POINT ( 'NONE',  ( 0.1499999999999999944, -0.1772741224180960085, -0.8027391122991069938 ) ) ;
#458 = DIRECTION ( 'NONE',  ( 0.08682659386424759762, -0.9924325091389669673, 0.08682659386424759762 ) ) ;
#459 = CARTESIAN_POINT ( 'NONE',  ( 0.1499999999999999944, -0.8000000000000000444, -1.080320264303318067 ) ) ;
#460 = EDGE_LOOP ( 'NONE', ( #579, #1031, #574, #1165 ) ) ;
#461 = VERTEX_POINT ( 'NONE', #78 ) ;
#462 = PLANE ( 'NONE',  #84 ) ;
#463 = EDGE_CURVE ( 'NONE', #421, #1015, #338, .T. ) ;
#464 = ORIENTED_EDGE ( 'NONE', *, *, #1040, .F. ) ;
#465 = ORIENTED_EDGE ( 'NONE', *, *, #1289, .T. ) ;
#466 = AXIS2_PLACEMENT_3D ( 'NONE', #386, #999, #1310 ) ;
#467 = DIRECTION ( 'NONE',  ( 1.000000000000000000, 0.000000000000000000, 0.000000000000000000 ) ) ;
#468 = VERTEX_POINT ( 'NONE', #1200 ) ;
#469 = EDGE_CURVE ( 'NONE', #551, #92, #813, .T. ) ;
#470 = DIRECTION ( 'NONE',  ( 0.000000000000000000, 0.000000000000000000, -1.000000000000000000 ) ) ;
#471 = PLANE ( 'NONE',  #292 ) ;
#472 = ADVANCED_FACE ( 'NONE', ( #321 ), #281, .T. ) ;
#473 = ORIENTED_EDGE ( 'NONE', *, *, #532, .T. ) ;
#474 = PLANE ( 'NONE',  #657 ) ;
#475 = ORIENTED_EDGE ( 'NONE', *, *, #357, .F. ) ;
#476 = DIRECTION ( 'NONE',  ( 1.000000000000000000, 0.000000000000000000, 0.000000000000000000 ) ) ;
#477 = CARTESIAN_POINT ( 'NONE',  ( -0.5742241472994580320, 0.1499999999999999944, 0.5977054321332611053 ) ) ;
#478 = ORIENTED_EDGE ( 'NONE', *, *, #167, .T. ) ;
#479 = CARTESIAN_POINT ( 'NONE',  ( 0.6250000000000000000, 0.000000000000000000, 0.8499999999999999778 ) ) ;
#480 =( NAMED_UNIT ( * ) SI_UNIT ( $, .STERADIAN. ) SOLID_ANGLE_UNIT ( ) );
#481 = ORIENTED_EDGE ( 'NONE', *, *, #138, .F. ) ;
#482 =( GEOMETRIC_REPRESENTATION_CONTEXT ( 3 ) GLOBAL_UNCERTAINTY_ASSIGNED_CONTEXT ( ( #1118 ) ) GLOBAL_UNIT_ASSIGNED_CONTEXT ( ( #493, #642, #480 ) ) REPRESENTATION_CONTEXT ( 'NONE', 'WORKASPACE' ) );
#483 = DIRECTION ( 'NONE',  ( -1.728122329423376639E-16, 0.08715574274765815199, -0.9961946980917455452 ) ) ;
#484 = ORIENTED_EDGE ( 'NONE', *, *, #1040, .T. ) ;
#485 = EDGE_CURVE ( 'NONE', #421, #908, #370, .T. ) ;
#486 = VERTEX_POINT ( 'NONE', #502 ) ;
#487 = PRODUCT_RELATED_PRODUCT_CATEGORY ( 'part', '', ( #193 ) ) ;
#488 = CARTESIAN_POINT ( 'NONE',  ( 0.1499999999999999944, 0.06779516441595999365, -0.9695160201316640469 ) ) ;
#489 = CARTESIAN_POINT ( 'NONE',  ( 0.5742241472994580320, 0.1499999999999999944, 0.7514011146818150300 ) ) ;
#490 = VERTEX_POINT ( 'NONE', #1002 ) ;
#491 = EDGE_CURVE ( 'NONE', #305, #307, #309, .T. ) ;
#492 = PLANE ( 'NONE',  #769 ) ;
#493 =( LENGTH_UNIT ( ) NAMED_UNIT ( * ) SI_UNIT ( .MILLI., .METRE. ) );
#494 =( NAMED_UNIT ( * ) PLANE_ANGLE_UNIT ( ) SI_UNIT ( $, .RADIAN. ) );
#495 = ORIENTED_EDGE ( 'NONE', *, *, #144, .F. ) ;
#496 = STYLED_ITEM ( 'NONE', ( #875 ), #835 ) ;
#497 = EDGE_CURVE ( 'NONE', #719, #82, #1214, .T. ) ;
#498 = CARTESIAN_POINT ( 'NONE',  ( -0.1499999999999999944, -0.8000000000000000444, -1.080320264303318067 ) ) ;
#499 = VERTEX_POINT ( 'NONE', #817 ) ;
#500 = AXIS2_PLACEMENT_3D ( 'NONE', #187, #277, #310 ) ;
#501 = PRODUCT_DEFINITION ( 'UNKNOWN', '', #980, #31 ) ;
#502 = CARTESIAN_POINT ( 'NONE',  ( -0.1499999999999999944, -0.8139512947488238837, 0.8808074542513529837 ) ) ;
#503 = PLANE ( 'NONE',  #811 ) ;
#504 = CARTESIAN_POINT ( 'NONE',  ( 0.1499999999999999944, -0.07380047550844570647, 0.8435432950301879895 ) ) ;
#505 = ORIENTED_EDGE ( 'NONE', *, *, #22, .T. ) ;
#506 = PLANE ( 'NONE',  #376 ) ;
#507 = ORIENTED_EDGE ( 'NONE', *, *, #625, .F. ) ;
#508 = AXIS2_PLACEMENT_3D ( 'NONE', #1075, #1090, #240 ) ;
#509 = EDGE_CURVE ( 'NONE', #486, #108, #319, .T. ) ;
#510 = ORIENTED_EDGE ( 'NONE', *, *, #1277, .F. ) ;
#511 = AXIS2_PLACEMENT_3D ( 'NONE', #30, #286, #838 ) ;
#512 = CARTESIAN_POINT ( 'NONE',  ( -0.1499999999999999944, 0.06779516441595999365, -0.9695160201316640469 ) ) ;
#513 = ORIENTED_EDGE ( 'NONE', *, *, #1260, .F. ) ;
#514 = ORIENTED_EDGE ( 'NONE', *, *, #1082, .T. ) ;
#515 = EDGE_CURVE ( 'NONE', #961, #324, #325, .T. ) ;
#516 = CARTESIAN_POINT ( 'NONE',  ( 0.1499999999999999944, 0.000000000000000000, 0.000000000000000000 ) ) ;
#517 = CARTESIAN_POINT ( 'NONE',  ( 0.6250000000000000000, 0.000000000000000000, -0.8499999999999999778 ) ) ;
#518 = DIRECTION ( 'NONE',  ( -1.000000000000000000, 0.000000000000000000, 0.000000000000000000 ) ) ;
#519 = ORIENTED_EDGE ( 'NONE', *, *, #1071, .F. ) ;
#520 = VERTEX_POINT ( 'NONE', #695 ) ;
#521 = DIRECTION ( 'NONE',  ( 0.000000000000000000, -1.000000000000000000, -1.445602896647340100E-15 ) ) ;
#522 = FILL_AREA_STYLE ('',( #1120 ) ) ;
#523 =( NAMED_UNIT ( * ) PLANE_ANGLE_UNIT ( ) SI_UNIT ( $, .RADIAN. ) );
#524 = DIRECTION ( 'NONE',  ( 0.000000000000000000, 1.000000000000000000, 1.445602896647340100E-15 ) ) ;
#525 = EDGE_CURVE ( 'NONE', #759, #117, #773, .T. ) ;
#526 = CARTESIAN_POINT ( 'NONE',  ( 0.1499999999999999944, -1.000000000000000000, 0.000000000000000000 ) ) ;
#527 = DIRECTION ( 'NONE',  ( 0.000000000000000000, 0.000000000000000000, 1.000000000000000000 ) ) ;
#528 = CARTESIAN_POINT ( 'NONE',  ( 0.1499999999999999944, -1.807003620809174977E-15, -1.250000000000000000 ) ) ;
#529 = CARTESIAN_POINT ( 'NONE',  ( 0.1499999999999999944, -1.000000000000000000, 0.000000000000000000 ) ) ;
#530 = EDGE_LOOP ( 'NONE', ( #311, #141, #1021, #139 ) ) ;
#531 = CARTESIAN_POINT ( 'NONE',  ( 0.6250000000000000000, 0.000000000000000000, 0.8499999999999999778 ) ) ;
#532 = EDGE_CURVE ( 'NONE', #77, #1003, #775, .T. ) ;
#533 = EDGE_LOOP ( 'NONE', ( #475, #988, #2, #34 ) ) ;
#534 = CARTESIAN_POINT ( 'NONE',  ( 0.6250000000000000000, 0.000000000000000000, 0.8499999999999999778 ) ) ;
#535 = ORIENTED_EDGE ( 'NONE', *, *, #515, .F. ) ;
#536 =( NAMED_UNIT ( * ) PLANE_ANGLE_UNIT ( ) SI_UNIT ( $, .RADIAN. ) );
#537 = EDGE_CURVE ( 'NONE', #92, #520, #330, .T. ) ;
#538 = ORIENTED_EDGE ( 'NONE', *, *, #951, .F. ) ;
#539 = STYLED_ITEM ( 'NONE', ( #389 ), #1171 ) ;
#540 = DIRECTION ( 'NONE',  ( -1.000000000000000000, 0.000000000000000000, 0.000000000000000000 ) ) ;
#541 = ORIENTED_EDGE ( 'NONE', *, *, #1187, .T. ) ;
#542 = VERTEX_POINT ( 'NONE', #399 ) ;
#543 = MANIFOLD_SOLID_BREP ( 'NONE', #1026 ) ;
#544 = DIRECTION ( 'NONE',  ( 0.000000000000000000, 0.000000000000000000, -1.000000000000000000 ) ) ;
#545 = ORIENTED_EDGE ( 'NONE', *, *, #153, .F. ) ;
#546 = ORIENTED_EDGE ( 'NONE', *, *, #1087, .T. ) ;
#547 = ORIENTED_EDGE ( 'NONE', *, *, #1184, .F. ) ;
#548 = ORIENTED_EDGE ( 'NONE', *, *, #537, .T. ) ;
#549 = CARTESIAN_POINT ( 'NONE',  ( -0.1499999999999999944, -0.8499999999999999778, -1.250000000000000000 ) ) ;
#550 = CARTESIAN_POINT ( 'NONE',  ( 0.1499999999999999944, -0.1772741224180960085, -0.8027391122991069938 ) ) ;
#551 = VERTEX_POINT ( 'NONE', #53 ) ;
#552 = ADVANCED_FACE ( 'NONE', ( #831 ), #1273, .T. ) ;
#553 = ORIENTED_EDGE ( 'NONE', *, *, #392, .F. ) ;
#554 = ORIENTED_EDGE ( 'NONE', *, *, #1155, .F. ) ;
#555 = DIRECTION ( 'NONE',  ( 0.000000000000000000, 0.000000000000000000, 1.000000000000000000 ) ) ;
#556 = ORIENTED_EDGE ( 'NONE', *, *, #144, .T. ) ;
#557 = ORIENTED_EDGE ( 'NONE', *, *, #844, .T. ) ;
#558 = ORIENTED_EDGE ( 'NONE', *, *, #469, .F. ) ;
#559 = CARTESIAN_POINT ( 'NONE',  ( 0.1499999999999999944, -1.000000000000000000, -1.250000000000000000 ) ) ;
#560 = ORIENTED_EDGE ( 'NONE', *, *, #525, .F. ) ;
#561 = ORIENTED_EDGE ( 'NONE', *, *, #1047, .F. ) ;
#562 = EDGE_LOOP ( 'NONE', ( #590, #768, #104, #1058 ) ) ;
#563 = ORIENTED_EDGE ( 'NONE', *, *, #172, .T. ) ;
#564 = PLANE ( 'NONE',  #628 ) ;
#565 = EDGE_LOOP ( 'NONE', ( #747, #1198, #556, #726 ) ) ;
#566 = DIRECTION ( 'NONE',  ( -1.000000000000000000, 0.000000000000000000, 0.000000000000000000 ) ) ;
#567 = ORIENTED_EDGE ( 'NONE', *, *, #397, .T. ) ;
#568 = VERTEX_POINT ( 'NONE', #1159 ) ;
#569 = ORIENTED_EDGE ( 'NONE', *, *, #98, .T. ) ;
#570 = APPLICATION_CONTEXT ( 'automotive_design' ) ;
#571 = VERTEX_POINT ( 'NONE', #950 ) ;
#572 = CARTESIAN_POINT ( 'NONE',  ( -0.6250000000000000000, 0.000000000000000000, 0.8499999999999999778 ) ) ;
#573 = ADVANCED_FACE ( 'NONE', ( #1267 ), #624, .F. ) ;
#574 = ORIENTED_EDGE ( 'NONE', *, *, #485, .F. ) ;
#575 = ORIENTED_EDGE ( 'NONE', *, *, #397, .F. ) ;
#576 = ORIENTED_EDGE ( 'NONE', *, *, #993, .T. ) ;
#577 = ORIENTED_EDGE ( 'NONE', *, *, #946, .T. ) ;
#578 = ORIENTED_EDGE ( 'NONE', *, *, #750, .F. ) ;
#579 = ORIENTED_EDGE ( 'NONE', *, *, #965, .T. ) ;
#580 = ORIENTED_EDGE ( 'NONE', *, *, #353, .T. ) ;
#581 = FILL_AREA_STYLE_COLOUR ( '', #441 ) ;
#582 = VERTEX_POINT ( 'NONE', #1051 ) ;
#583 = DIRECTION ( 'NONE',  ( 0.000000000000000000, 0.08715574274765854057, -0.9961946980917455452 ) ) ;
#584 = DIRECTION ( 'NONE',  ( -0.000000000000000000, 0.06975647374411739210, 0.9975640502598248638 ) ) ;
#585 = EDGE_LOOP ( 'NONE', ( #569, #557, #313, #304, #553, #122, #545, #739, #561 ) ) ;
#586 = ORIENTED_EDGE ( 'NONE', *, *, #1018, .F. ) ;
#587 = VERTEX_POINT ( 'NONE', #534 ) ;
#588 = EDGE_CURVE ( 'NONE', #275, #47, #855, .T. ) ;
#589 = CARTESIAN_POINT ( 'NONE',  ( -0.6250000000000000000, 0.000000000000000000, 0.8499999999999999778 ) ) ;
#590 = ORIENTED_EDGE ( 'NONE', *, *, #741, .F. ) ;
#591 = EDGE_LOOP ( 'NONE', ( #963, #751, #64, #945 ) ) ;
#592 = DIRECTION ( 'NONE',  ( -1.000000000000000222, 0.000000000000000000, 0.000000000000000000 ) ) ;
#593 = ORIENTED_EDGE ( 'NONE', *, *, #1274, .F. ) ;
#594 = PLANE ( 'NONE',  #88 ) ;
#595 = DIRECTION ( 'NONE',  ( 0.000000000000000000, 1.000000000000000000, 0.000000000000000000 ) ) ;
#596 = CARTESIAN_POINT ( 'NONE',  ( 0.6118767004711110902, 0.1499999999999999944, 0.8499999999999999778 ) ) ;
#597 = ORIENTED_EDGE ( 'NONE', *, *, #651, .F. ) ;
#598 = CARTESIAN_POINT ( 'NONE',  ( 0.000000000000000000, -0.9499999999999999556, 0.000000000000000000 ) ) ;
#599 = VERTEX_POINT ( 'NONE', #740 ) ;
#600 = FILL_AREA_STYLE ('',( #94 ) ) ;
#601 = DIRECTION ( 'NONE',  ( 0.000000000000000000, 0.000000000000000000, 1.000000000000000000 ) ) ;
#602 = EDGE_CURVE ( 'NONE', #268, #1201, #1291, .T. ) ;
#603 = VERTEX_POINT ( 'NONE', #549 ) ;
#604 = CARTESIAN_POINT ( 'NONE',  ( -0.5742241472994580320, 0.1000000000000000056, 0.7514011146818150300 ) ) ;
#605 = VERTEX_POINT ( 'NONE', #641 ) ;
#606 = CARTESIAN_POINT ( 'NONE',  ( 0.1499999999999999944, -0.07380047550844570647, 0.8435432950301879895 ) ) ;
#607 = DIRECTION ( 'NONE',  ( -1.000000000000000000, 0.000000000000000000, 0.000000000000000000 ) ) ;
#608 = EDGE_LOOP ( 'NONE', ( #295, #1091, #1283, #755 ) ) ;
#609 = PRODUCT_DEFINITION_CONTEXT ( 'detailed design', #373, 'design' ) ;
#610 = STYLED_ITEM ( 'NONE', ( #826 ), #543 ) ;
#611 = EDGE_LOOP ( 'NONE', ( #505, #151, #1199, #134 ) ) ;
#612 = CARTESIAN_POINT ( 'NONE',  ( -0.5742241472994580320, 0.1000000000000000056, 0.7514011146818150300 ) ) ;
#613 = EDGE_CURVE ( 'NONE', #1004, #911, #400, .T. ) ;
#614 = DIRECTION ( 'NONE',  ( 0.000000000000000000, 0.000000000000000000, -1.000000000000000000 ) ) ;
#615 = ORIENTED_EDGE ( 'NONE', *, *, #449, .F. ) ;
#616 = AXIS2_PLACEMENT_3D ( 'NONE', #529, #630, #884 ) ;
#617 = EDGE_CURVE ( 'NONE', #1201, #82, #846, .T. ) ;
#618 = DIRECTION ( 'NONE',  ( -1.000000000000000000, 0.000000000000000000, 1.734723475976804876E-16 ) ) ;
#619 = CARTESIAN_POINT ( 'NONE',  ( 0.5742241472994580320, 0.1000000000000000056, 0.7514011146818150300 ) ) ;
#620 = ORIENTED_EDGE ( 'NONE', *, *, #491, .F. ) ;
#621 = ORIENTED_EDGE ( 'NONE', *, *, #1244, .T. ) ;
#622 = DIRECTION ( 'NONE',  ( -1.000000000000000000, 0.000000000000000000, 0.000000000000000000 ) ) ;
#623 = ORIENTED_EDGE ( 'NONE', *, *, #374, .F. ) ;
#624 = PLANE ( 'NONE',  #296 ) ;
#625 = EDGE_CURVE ( 'NONE', #1036, #1042, #1270, .T. ) ;
#626 = UNCERTAINTY_MEASURE_WITH_UNIT (LENGTH_MEASURE( 1.000000000000000082E-05 ), #362, 'distance_accuracy_value', 'NONE');
#627 = ORIENTED_EDGE ( 'NONE', *, *, #278, .T. ) ;
#628 = AXIS2_PLACEMENT_3D ( 'NONE', #383, #470, #653 ) ;
#629 = ORIENTED_EDGE ( 'NONE', *, *, #274, .F. ) ;
#630 = DIRECTION ( 'NONE',  ( -0.000000000000000000, 1.000000000000000000, 0.000000000000000000 ) ) ;
#631 = EDGE_CURVE ( 'NONE', #603, #1042, #1287, .T. ) ;
#632 = DIRECTION ( 'NONE',  ( 0.000000000000000000, 8.864339340456144530E-16, 1.000000000000000000 ) ) ;
#633 =( LENGTH_UNIT ( ) NAMED_UNIT ( * ) SI_UNIT ( .MILLI., .METRE. ) );
#634 = DIRECTION ( 'NONE',  ( -1.728122329423379104E-16, -0.08715574274765815199, -0.9961946980917455452 ) ) ;
#635 = ADVANCED_FACE ( 'NONE', ( #396 ), #1238, .T. ) ;
#636 = CARTESIAN_POINT ( 'NONE',  ( 0.5742241472994580320, 0.1499999999999999944, 0.5977054321332611053 ) ) ;
#637 = ADVANCED_FACE ( 'NONE', ( #411 ), #934, .T. ) ;
#638 = PRODUCT_DEFINITION_SHAPE ( 'NONE', 'NONE',  #725 ) ;
#639 = CARTESIAN_POINT ( 'NONE',  ( 0.6250000000000000000, 0.000000000000000000, 0.8499999999999999778 ) ) ;
#640 = AXIS2_PLACEMENT_3D ( 'NONE', #130, #294, #705 ) ;
#641 = CARTESIAN_POINT ( 'NONE',  ( 0.1499999999999999944, -0.8139512947488238837, -0.8808074542513529837 ) ) ;
#642 =( NAMED_UNIT ( * ) PLANE_ANGLE_UNIT ( ) SI_UNIT ( $, .RADIAN. ) );
#643 = CARTESIAN_POINT ( 'NONE',  ( 0.1499999999999999944, -0.8499999999999999778, -1.080320264303318067 ) ) ;
#644 = EDGE_CURVE ( 'NONE', #571, #68, #387, .T. ) ;
#645 = DIRECTION ( 'NONE',  ( 0.000000000000000000, 0.000000000000000000, 1.000000000000000000 ) ) ;
#646 = APPLICATION_PROTOCOL_DEFINITION ( 'draft international standard', 'automotive_design', 1998, #899 ) ;
#647 = CARTESIAN_POINT ( 'NONE',  ( -0.5742241472994580320, 0.1499999999999999944, 0.5977054321332611053 ) ) ;
#648 = VECTOR ( 'NONE', #179, 1000.000000000000000 ) ;
#649 = CYLINDRICAL_SURFACE ( 'NONE', #1231, 0.04999999999999991257 ) ;
#650 = CARTESIAN_POINT ( 'NONE',  ( 0.5742241472994580320, 0.1499999999999999944, 0.7514011146818150300 ) ) ;
#651 = EDGE_CURVE ( 'NONE', #1208, #63, #850, .T. ) ;
#652 = LINE ( 'NONE', #1162, #219 ) ;
#653 = DIRECTION ( 'NONE',  ( 0.000000000000000000, -1.000000000000000000, 0.000000000000000000 ) ) ;
#654 = EDGE_CURVE ( 'NONE', #1054, #1036, #841, .T. ) ;
#655 = CARTESIAN_POINT ( 'NONE',  ( -0.1499999999999999944, -1.000000000000000000, 1.080320264303318067 ) ) ;
#656 = FACE_OUTER_BOUND ( 'NONE', #1202, .T. ) ;
#657 = AXIS2_PLACEMENT_3D ( 'NONE', #660, #584, #892 ) ;
#658 = CARTESIAN_POINT ( 'NONE',  ( 0.000000000000000000, 0.000000000000000000, 0.000000000000000000 ) ) ;
#659 = DIRECTION ( 'NONE',  ( 1.000000000000000000, 0.000000000000000000, 0.000000000000000000 ) ) ;
#660 = CARTESIAN_POINT ( 'NONE',  ( 0.1499999999999999944, 0.05733169335434219749, 0.8198814125926899843 ) ) ;
#661 = PRODUCT_DEFINITION_SHAPE ( 'NONE', 'NONE',  #501 ) ;
#662 = CIRCLE ( 'NONE', #1013, 0.1999999999999999833 ) ;
#663 = LINE ( 'NONE', #375, #241 ) ;
#664 = FILL_AREA_STYLE_COLOUR ( '', #398 ) ;
#665 = DIRECTION ( 'NONE',  ( 1.000000000000000000, 0.000000000000000000, 0.000000000000000000 ) ) ;
#666 = FACE_BOUND ( 'NONE', #140, .T. ) ;
#667 = CARTESIAN_POINT ( 'NONE',  ( 0.5418857696503720511, -0.9499999999999999556, 0.7668857696503720289 ) ) ;
#668 = CARTESIAN_POINT ( 'NONE',  ( -0.5742241472994580320, 0.1000000000000000056, 0.7514011146818150300 ) ) ;
#669 = FACE_OUTER_BOUND ( 'NONE', #173, .T. ) ;
#670 = ADVANCED_FACE ( 'NONE', ( #1304 ), #927, .T. ) ;
#671 = CARTESIAN_POINT ( 'NONE',  ( 0.6250000000000000000, 0.000000000000000000, 0.8499999999999999778 ) ) ;
#672 = DIRECTION ( 'NONE',  ( 0.000000000000000000, 0.000000000000000000, 1.000000000000000000 ) ) ;
#673 = LINE ( 'NONE', #391, #1133 ) ;
#674 = EDGE_CURVE ( 'NONE', #1183, #468, #381, .T. ) ;
#675 = AXIS2_PLACEMENT_3D ( 'NONE', #938, #921, #680 ) ;
#676 = FACE_OUTER_BOUND ( 'NONE', #89, .T. ) ;
#677 = DIRECTION ( 'NONE',  ( 1.000000000000000000, 0.000000000000000000, 0.000000000000000000 ) ) ;
#678 = PLANE ( 'NONE',  #439 ) ;
#679 = LINE ( 'NONE', #878, #233 ) ;
#680 = DIRECTION ( 'NONE',  ( 0.000000000000000000, 0.000000000000000000, 1.000000000000000000 ) ) ;
#681 = LINE ( 'NONE', #650, #1138 ) ;
#682 = APPLICATION_CONTEXT ( 'automotive_design' ) ;
#683 = LINE ( 'NONE', #1141, #1147 ) ;
#684 = ADVANCED_FACE ( 'NONE', ( #859 ), #46, .T. ) ;
#685 = VECTOR ( 'NONE', #1217, 1000.000000000000114 ) ;
#686 = CARTESIAN_POINT ( 'NONE',  ( 0.5742241472994580320, 0.1000000000000000056, 0.5977054321332611053 ) ) ;
#687 = FACE_OUTER_BOUND ( 'NONE', #708, .T. ) ;
#688 = SURFACE_STYLE_USAGE ( .BOTH. , #822 ) ;
#689 = VECTOR ( 'NONE', #1258, 1000.000000000000000 ) ;
#690 = DIRECTION ( 'NONE',  ( -1.000000000000000000, 0.000000000000000000, 0.000000000000000000 ) ) ;
#691 = MANIFOLD_SOLID_BREP ( 'NONE', #984 ) ;
#692 = EDGE_CURVE ( 'NONE', #520, #426, #405, .T. ) ;
#693 = FACE_OUTER_BOUND ( 'NONE', #43, .T. ) ;
#694 = VECTOR ( 'NONE', #1276, 1000.000000000000000 ) ;
#695 = CARTESIAN_POINT ( 'NONE',  ( 0.5742241472994580320, 0.1000000000000000056, 0.7514011146818150300 ) ) ;
#696 = ADVANCED_FACE ( 'NONE', ( #837 ), #1282, .F. ) ;
#697 = CARTESIAN_POINT ( 'NONE',  ( 0.1499999999999999944, -0.8000000000000000444, -1.080320264303318067 ) ) ;
#698 = EDGE_CURVE ( 'NONE', #275, #1054, #845, .T. ) ;
#699 = VECTOR ( 'NONE', #524, 1000.000000000000000 ) ;
#700 = CARTESIAN_POINT ( 'NONE',  ( 0.1499999999999999944, -0.8499999999999999778, 1.080320264303318067 ) ) ;
#701 = LINE ( 'NONE', #1285, #1142 ) ;
#702 = VECTOR ( 'NONE', #870, 1000.000000000000000 ) ;
#703 = FACE_OUTER_BOUND ( 'NONE', #608, .T. ) ;
#704 = CARTESIAN_POINT ( 'NONE',  ( 0.1499999999999999944, -0.8034878236872060597, -1.030442061790326047 ) ) ;
#705 = DIRECTION ( 'NONE',  ( 1.000000000000000000, 0.000000000000000000, 0.000000000000000000 ) ) ;
#706 = FACE_OUTER_BOUND ( 'NONE', #565, .T. ) ;
#707 = ADVANCED_FACE ( 'NONE', ( #377 ), #420, .T. ) ;
#708 = EDGE_LOOP ( 'NONE', ( #184, #597, #586, #32 ) ) ;
#709 = LINE ( 'NONE', #504, #253 ) ;
#710 = EDGE_LOOP ( 'NONE', ( #195, #930, #578, #1008 ) ) ;
#711 = DIRECTION ( 'NONE',  ( 0.000000000000000000, 0.000000000000000000, 1.000000000000000000 ) ) ;
#712 = DIRECTION ( 'NONE',  ( 0.000000000000000000, 1.000000000000000000, 0.000000000000000000 ) ) ;
#713 = VECTOR ( 'NONE', #284, 1000.000000000000000 ) ;
#714 = VECTOR ( 'NONE', #191, 1000.000000000000114 ) ;
#715 = ORIENTED_EDGE ( 'NONE', *, *, #525, .T. ) ;
#716 = ORIENTED_EDGE ( 'NONE', *, *, #631, .T. ) ;
#717 = CARTESIAN_POINT ( 'NONE',  ( 0.6250000000000000000, 0.000000000000000000, 0.8499999999999999778 ) ) ;
#718 = EDGE_LOOP ( 'NONE', ( #1016, #629, #114, #1014 ) ) ;
#719 = VERTEX_POINT ( 'NONE', #834 ) ;
#720 = DIRECTION ( 'NONE',  ( -1.000000000000000000, 0.000000000000000000, 0.000000000000000000 ) ) ;
#721 = VECTOR ( 'NONE', #1223, 1000.000000000000000 ) ;
#722 = AXIS2_PLACEMENT_3D ( 'NONE', #1286, #784, #895 ) ;
#723 = DIRECTION ( 'NONE',  ( 1.000000000000000000, 0.000000000000000000, 0.000000000000000000 ) ) ;
#724 = ORIENTED_EDGE ( 'NONE', *, *, #242, .F. ) ;
#725 = PRODUCT_DEFINITION ( 'UNKNOWN', '', #442, #609 ) ;
#726 = ORIENTED_EDGE ( 'NONE', *, *, #1272, .T. ) ;
#727 =( GEOMETRIC_REPRESENTATION_CONTEXT ( 3 ) GLOBAL_UNCERTAINTY_ASSIGNED_CONTEXT ( ( #261 ) ) GLOBAL_UNIT_ASSIGNED_CONTEXT ( ( #1249, #523, #37 ) ) REPRESENTATION_CONTEXT ( 'NONE', 'WORKASPACE' ) );
#728 = ORIENTED_EDGE ( 'NONE', *, *, #698, .T. ) ;
#729 = CARTESIAN_POINT ( 'NONE',  ( 0.1499999999999999944, -0.8499999999999999778, 0.000000000000000000 ) ) ;
#730 = VERTEX_POINT ( 'NONE', #1052 ) ;
#731 = LINE ( 'NONE', #1048, #267 ) ;
#732 = ORIENTED_EDGE ( 'NONE', *, *, #1272, .F. ) ;
#733 = CARTESIAN_POINT ( 'NONE',  ( -0.1499999999999999944, -0.8034878236872060597, -1.030442061790326047 ) ) ;
#734 = LINE ( 'NONE', #1132, #257 ) ;
#735 = ORIENTED_EDGE ( 'NONE', *, *, #449, .T. ) ;
#736 = DIRECTION ( 'NONE',  ( 1.000000000000000000, 0.000000000000000000, 0.000000000000000000 ) ) ;
#737 = LINE ( 'NONE', #1057, #270 ) ;
#738 = ORIENTED_EDGE ( 'NONE', *, *, #76, .T. ) ;
#739 = ORIENTED_EDGE ( 'NONE', *, *, #631, .F. ) ;
#740 = CARTESIAN_POINT ( 'NONE',  ( -0.1499999999999999944, -1.000000000000000000, -1.080320264303318067 ) ) ;
#741 = EDGE_CURVE ( 'NONE', #117, #50, #823, .T. ) ;
#742 = DIRECTION ( 'NONE',  ( 0.000000000000000000, 1.000000000000000000, 1.445602896647340100E-15 ) ) ;
#743 = ORIENTED_EDGE ( 'NONE', *, *, #515, .T. ) ;
#744 = ORIENTED_EDGE ( 'NONE', *, *, #1191, .T. ) ;
#745 =( LENGTH_UNIT ( ) NAMED_UNIT ( * ) SI_UNIT ( .MILLI., .METRE. ) );
#746 = AXIS2_PLACEMENT_3D ( 'NONE', #697, #818, #614 ) ;
#747 = ORIENTED_EDGE ( 'NONE', *, *, #169, .F. ) ;
#748 = CARTESIAN_POINT ( 'NONE',  ( -0.5742241472994580320, 0.1499999999999999944, 0.7514011146818150300 ) ) ;
#749 = EDGE_LOOP ( 'NONE', ( #128, #735, #289, #495, #535, #131, #1006, #623, #519 ) ) ;
#750 = EDGE_CURVE ( 'NONE', #1208, #95, #19, .T. ) ;
#751 = ORIENTED_EDGE ( 'NONE', *, *, #949, .F. ) ;
#752 = AXIS2_PLACEMENT_3D ( 'NONE', #347, #936, #132 ) ;
#753 = DIRECTION ( 'NONE',  ( 0.000000000000000000, 0.000000000000000000, -1.000000000000000000 ) ) ;
#754 = VECTOR ( 'NONE', #161, 1000.000000000000114 ) ;
#755 = ORIENTED_EDGE ( 'NONE', *, *, #602, .T. ) ;
#756 = VERTEX_POINT ( 'NONE', #655 ) ;
#757 = CARTESIAN_POINT ( 'NONE',  ( 0.6250000000000000000, 0.000000000000000000, -0.8499999999999999778 ) ) ;
#758 = DIRECTION ( 'NONE',  ( 0.000000000000000000, 0.000000000000000000, -1.000000000000000000 ) ) ;
#759 = VERTEX_POINT ( 'NONE', #263 ) ;
#760 = VECTOR ( 'NONE', #12, 1000.000000000000000 ) ;
#761 = CARTESIAN_POINT ( 'NONE',  ( -0.5742241472994580320, 0.1000000000000000056, 0.7514011146818150300 ) ) ;
#762 = LINE ( 'NONE', #322, #1218 ) ;
#763 = ORIENTED_EDGE ( 'NONE', *, *, #158, .T. ) ;
#765 = FACE_OUTER_BOUND ( 'NONE', #718, .T. ) ;
#764 = CARTESIAN_POINT ( 'NONE',  ( 0.6250000000000000000, 0.000000000000000000, -0.8499999999999999778 ) ) ;
#766 = VECTOR ( 'NONE', #150, 1000.000000000000000 ) ;
#767 = DIRECTION ( 'NONE',  ( 1.728122329423377132E-16, -0.08715574274765815199, 0.9961946980917455452 ) ) ;
#768 = ORIENTED_EDGE ( 'NONE', *, *, #271, .F. ) ;
#769 = AXIS2_PLACEMENT_3D ( 'NONE', #598, #59, #371 ) ;
#770 = ADVANCED_FACE ( 'NONE', ( #1312 ), #898, .T. ) ;
#771 = CIRCLE ( 'NONE', #918, 0.1834658169397844485 ) ;
#772 = VERTEX_POINT ( 'NONE', #889 ) ;
#773 = LINE ( 'NONE', #916, #328 ) ;
#774 = CARTESIAN_POINT ( 'NONE',  ( -0.1499999999999999944, 0.000000000000000000, 0.000000000000000000 ) ) ;
#775 = LINE ( 'NONE', #174, #1227 ) ;
#776 = VECTOR ( 'NONE', #476, 1000.000000000000000 ) ;
#777 = CARTESIAN_POINT ( 'NONE',  ( 0.1499999999999999944, -1.000000000000000000, -1.080320264303318067 ) ) ;
#778 = CARTESIAN_POINT ( 'NONE',  ( -0.1499999999999999944, 0.05733169335434219749, -0.8198814125926899843 ) ) ;
#779 = ORIENTED_EDGE ( 'NONE', *, *, #1239, .F. ) ;
#780 = LINE ( 'NONE', #1028, #346 ) ;
#781 = CARTESIAN_POINT ( 'NONE',  ( 0.000000000000000000, 0.000000000000000000, 0.000000000000000000 ) ) ;
#782 = CARTESIAN_POINT ( 'NONE',  ( 0.1499999999999999944, 0.000000000000000000, 0.8499999999999999778 ) ) ;
#783 = VECTOR ( 'NONE', #877, 1000.000000000000000 ) ;
#784 = DIRECTION ( 'NONE',  ( -0.000000000000000000, 1.000000000000000000, 0.000000000000000000 ) ) ;
#786 = VECTOR ( 'NONE', #451, 1000.000000000000000 ) ;
#785 = DIRECTION ( 'NONE',  ( 0.000000000000000000, 0.000000000000000000, -1.000000000000000000 ) ) ;
#787 = VECTOR ( 'NONE', #185, 1000.000000000000114 ) ;
#788 = CARTESIAN_POINT ( 'NONE',  ( -0.1499999999999999944, -0.8499999999999999778, 0.000000000000000000 ) ) ;
#789 = AXIS2_PLACEMENT_3D ( 'NONE', #314, #1263, #521 ) ;
#790 = LINE ( 'NONE', #1221, #799 ) ;
#791 = DIRECTION ( 'NONE',  ( 0.000000000000000000, -0.9961946980917455452, -0.08715574274765854057 ) ) ;
#792 = DIRECTION ( 'NONE',  ( 1.000000000000000000, 0.000000000000000000, 0.000000000000000000 ) ) ;
#793 = VECTOR ( 'NONE', #1302, 1000.000000000000000 ) ;
#794 = DIRECTION ( 'NONE',  ( -1.000000000000000000, 0.000000000000000000, 0.000000000000000000 ) ) ;
#796 = VECTOR ( 'NONE', #1104, 1000.000000000000000 ) ;
#795 = DIRECTION ( 'NONE',  ( 0.000000000000000000, 0.000000000000000000, 1.000000000000000000 ) ) ;
#797 = LINE ( 'NONE', #531, #766 ) ;
#798 = DIRECTION ( 'NONE',  ( 1.000000000000000000, 0.000000000000000000, 0.000000000000000000 ) ) ;
#799 = VECTOR ( 'NONE', #178, 1000.000000000000000 ) ;
#800 = CARTESIAN_POINT ( 'NONE',  ( -1.330334748005042061E-16, -0.9499999999999999556, -0.7668857696503720289 ) ) ;
#801 = LINE ( 'NONE', #1092, #355 ) ;
#802 = VECTOR ( 'NONE', #804, 1000.000000000000000 ) ;
#803 = FACE_OUTER_BOUND ( 'NONE', #36, .T. ) ;
#804 = DIRECTION ( 'NONE',  ( -1.000000000000000000, 0.000000000000000000, 0.000000000000000000 ) ) ;
#806 = LINE ( 'NONE', #142, #786 ) ;
#805 = DIRECTION ( 'NONE',  ( 0.000000000000000000, 1.000000000000000000, 0.000000000000000000 ) ) ;
#807 = LINE ( 'NONE', #849, #1275 ) ;
#808 = AXIS2_PLACEMENT_3D ( 'NONE', #75, #483, #618 ) ;
#809 = FACE_OUTER_BOUND ( 'NONE', #423, .T. ) ;
#810 =( NAMED_UNIT ( * ) PLANE_ANGLE_UNIT ( ) SI_UNIT ( $, .RADIAN. ) );
#811 = AXIS2_PLACEMENT_3D ( 'NONE', #477, #665, #805 ) ;
#812 = SURFACE_STYLE_FILL_AREA ( #1055 ) ;
#813 = LINE ( 'NONE', #612, #1256 ) ;
#814 = DIRECTION ( 'NONE',  ( -1.000000000000000000, 0.000000000000000000, 0.000000000000000000 ) ) ;
#815 = SHAPE_REPRESENTATION_RELATIONSHIP ( 'NONE' , 'NONE' ,  #882, #1171 ) ;
#816 = SURFACE_STYLE_FILL_AREA ( #522 ) ;
#817 = CARTESIAN_POINT ( 'NONE',  ( -0.1499999999999999944, 0.000000000000000000, -0.8499999999999999778 ) ) ;
#819 = VECTOR ( 'NONE', #833, 1000.000000000000114 ) ;
#818 = DIRECTION ( 'NONE',  ( -1.000000000000000000, 0.000000000000000000, 0.000000000000000000 ) ) ;
#820 = VECTOR ( 'NONE', #1247, 1000.000000000000000 ) ;
#821 = CARTESIAN_POINT ( 'NONE',  ( 0.5742241472994580320, 0.1000000000000000056, 0.5977054321332611053 ) ) ;
#822 = SURFACE_SIDE_STYLE ('',( #864 ) ) ;
#823 = LINE ( 'NONE', #1137, #21 ) ;
#824 = STYLED_ITEM ( 'NONE', ( #867 ), #939 ) ;
#825 = DIRECTION ( 'NONE',  ( 0.000000000000000000, 0.06975647374411757251, -0.9975640502598247528 ) ) ;
#826 = PRESENTATION_STYLE_ASSIGNMENT (( #1039 ) ) ;
#827 = LINE ( 'NONE', #218, #365 ) ;
#828 = DIRECTION ( 'NONE',  ( -1.000000000000000000, 0.000000000000000000, 0.000000000000000000 ) ) ;
#829 = COLOUR_RGB ( '',0.2509803921568627416, 0.2509803921568627416, 0.2509803921568627416 ) ;
#830 = DIRECTION ( 'NONE',  ( 1.000000000000000000, 0.000000000000000000, 0.000000000000000000 ) ) ;
#831 = FACE_OUTER_BOUND ( 'NONE', #340, .T. ) ;
#832 = LINE ( 'NONE', #1241, #1278 ) ;
#833 = DIRECTION ( 'NONE',  ( 0.08682659386424759762, -0.9924325091389669673, -0.08682659386424772252 ) ) ;
#834 = CARTESIAN_POINT ( 'NONE',  ( -0.6118767004711110902, 0.1499999999999999944, -0.8368767004711109569 ) ) ;
#835 = MANIFOLD_SOLID_BREP ( 'NONE', #1164 ) ;
#836 = CARTESIAN_POINT ( 'NONE',  ( -0.5742241472994580320, 0.1000000000000000056, 0.5977054321332611053 ) ) ;
#837 = FACE_OUTER_BOUND ( 'NONE', #957, .T. ) ;
#838 = DIRECTION ( 'NONE',  ( 0.000000000000000000, 0.000000000000000000, 1.000000000000000000 ) ) ;
#839 = SHAPE_DEFINITION_REPRESENTATION ( #661, #40 ) ;
#840 = EDGE_CURVE ( 'NONE', #490, #288, #448, .T. ) ;
#841 = LINE ( 'NONE', #729, #1293 ) ;
#842 = FACE_OUTER_BOUND ( 'NONE', #1212, .T. ) ;
#843 = VECTOR ( 'NONE', #438, 1000.000000000000114 ) ;
#844 = EDGE_CURVE ( 'NONE', #599, #490, #435, .T. ) ;
#845 = LINE ( 'NONE', #1029, #1262 ) ;
#846 = LINE ( 'NONE', #866, #853 ) ;
#847 = CARTESIAN_POINT ( 'NONE',  ( -0.1499999999999999944, -0.1772741224180960085, -0.8027391122991069938 ) ) ;
#848 =( NAMED_UNIT ( * ) PLANE_ANGLE_UNIT ( ) SI_UNIT ( $, .RADIAN. ) );
#849 = CARTESIAN_POINT ( 'NONE',  ( 0.1499999999999999944, -0.1658640282339259864, 0.8354887778427870781 ) ) ;
#850 = LINE ( 'NONE', #326, #843 ) ;
#851 = MECHANICAL_DESIGN_GEOMETRIC_PRESENTATION_REPRESENTATION (  '', ( #188 ), #110 ) ;
#852 = CARTESIAN_POINT ( 'NONE',  ( 0.5742241472994580320, 0.1000000000000000056, 0.7514011146818150300 ) ) ;
#853 = VECTOR ( 'NONE', #857, 1000.000000000000000 ) ;
#854 = MECHANICAL_DESIGN_GEOMETRIC_PRESENTATION_REPRESENTATION (  '', ( #610 ), #1098 ) ;
#855 = LINE ( 'NONE', #152, #1296 ) ;
#856 = EDGE_CURVE ( 'NONE', #568, #82, #24, .T. ) ;
#857 = DIRECTION ( 'NONE',  ( -1.000000000000000000, 0.000000000000000000, 1.734723475976804876E-16 ) ) ;
#859 = FACE_OUTER_BOUND ( 'NONE', #1059, .T. ) ;
#858 = DIRECTION ( 'NONE',  ( 0.000000000000000000, 0.9975640502598247528, -0.06975647374411757251 ) ) ;
#860 = ADVANCED_FACE ( 'NONE', ( #896 ), #471, .F. ) ;
#861 =( NAMED_UNIT ( * ) SI_UNIT ( $, .STERADIAN. ) SOLID_ANGLE_UNIT ( ) );
#862 = LINE ( 'NONE', #968, #417 ) ;
#863 = CARTESIAN_POINT ( 'NONE',  ( 0.1499999999999999944, -1.000000000000000000, 1.080320264303318067 ) ) ;
#864 = SURFACE_STYLE_FILL_AREA ( #600 ) ;
#865 = ORIENTED_EDGE ( 'NONE', *, *, #221, .F. ) ;
#866 = CARTESIAN_POINT ( 'NONE',  ( 0.6250000000000000000, 0.000000000000000000, -0.8499999999999999778 ) ) ;
#868 = DIRECTION ( 'NONE',  ( 0.000000000000000000, 0.000000000000000000, -1.000000000000000000 ) ) ;
#867 = PRESENTATION_STYLE_ASSIGNMENT (( #688 ) ) ;
#869 = EDGE_LOOP ( 'NONE', ( #1185, #106, #743, #194 ) ) ;
#870 = DIRECTION ( 'NONE',  ( 1.000000000000000000, 0.000000000000000000, 0.000000000000000000 ) ) ;
#871 = ORIENTED_EDGE ( 'NONE', *, *, #169, .T. ) ;
#872 = ADVANCED_FACE ( 'NONE', ( #445 ), #430, .T. ) ;
#873 = ORIENTED_EDGE ( 'NONE', *, *, #350, .T. ) ;
#874 = AXIS2_PLACEMENT_3D ( 'NONE', #774, #467, #62 ) ;
#875 = PRESENTATION_STYLE_ASSIGNMENT (( #360 ) ) ;
#876 = EDGE_LOOP ( 'NONE', ( #576, #992, #615, #135 ) ) ;
#877 = DIRECTION ( 'NONE',  ( 0.000000000000000000, 0.000000000000000000, 1.000000000000000000 ) ) ;
#878 = CARTESIAN_POINT ( 'NONE',  ( 0.1499999999999999944, -0.8499999999999999778, 1.080320264303318067 ) ) ;
#879 = UNCERTAINTY_MEASURE_WITH_UNIT (LENGTH_MEASURE( 1.000000000000000082E-05 ), #403, 'distance_accuracy_value', 'NONE');
#880 = ORIENTED_EDGE ( 'NONE', *, *, #1024, .T. ) ;
#881 = DIRECTION ( 'NONE',  ( 0.000000000000000000, 0.000000000000000000, -1.000000000000000000 ) ) ;
#882 = SHAPE_REPRESENTATION ( 'CUS10S30,H3F', ( #752 ), #1045 ) ;
#883 = ORIENTED_EDGE ( 'NONE', *, *, #856, .F. ) ;
#884 = DIRECTION ( 'NONE',  ( 1.000000000000000000, 0.000000000000000000, 0.000000000000000000 ) ) ;
#885 = DIRECTION ( 'NONE',  ( -1.000000000000000000, 0.000000000000000000, 0.000000000000000000 ) ) ;
#886 = ADVANCED_FACE ( 'NONE', ( #900 ), #890, .T. ) ;
#887 = DIRECTION ( 'NONE',  ( 0.000000000000000000, -1.000000000000000000, 0.000000000000000000 ) ) ;
#888 = FACE_OUTER_BOUND ( 'NONE', #530, .T. ) ;
#889 = CARTESIAN_POINT ( 'NONE',  ( 0.1499999999999999944, -0.8499999999999999778, 1.250000000000000000 ) ) ;
#890 = CYLINDRICAL_SURFACE ( 'NONE', #1242, 0.2000000000000000944 ) ;
#891 = CARTESIAN_POINT ( 'NONE',  ( -0.6250000000000000000, 0.000000000000000000, 0.8499999999999999778 ) ) ;
#892 = DIRECTION ( 'NONE',  ( 1.000000000000000000, 0.000000000000000000, 0.000000000000000000 ) ) ;
#893 = FACE_OUTER_BOUND ( 'NONE', #1007, .T. ) ;
#894 = AXIS2_PLACEMENT_3D ( 'NONE', #517, #634, #337 ) ;
#895 = DIRECTION ( 'NONE',  ( 1.000000000000000000, 0.000000000000000000, 0.000000000000000000 ) ) ;
#896 = FACE_OUTER_BOUND ( 'NONE', #28, .T. ) ;
#897 = ADVANCED_FACE ( 'NONE', ( #433 ), #154, .T. ) ;
#898 = PLANE ( 'NONE',  #902 ) ;
#899 = APPLICATION_CONTEXT ( 'automotive_design' ) ;
#900 = FACE_OUTER_BOUND ( 'NONE', #978, .T. ) ;
#901 = VECTOR ( 'NONE', #60, 1000.000000000000114 ) ;
#902 = AXIS2_PLACEMENT_3D ( 'NONE', #384, #372, #393 ) ;
#903 = SURFACE_STYLE_FILL_AREA ( #230 ) ;
#904 = EDGE_CURVE ( 'NONE', #1020, #283, #862, .T. ) ;
#905 = AXIS2_PLACEMENT_3D ( 'NONE', #1313, #607, #69 ) ;
#906 = ADVANCED_FACE ( 'NONE', ( #13 ), #983, .T. ) ;
#907 =( REPRESENTATION_RELATIONSHIP ('NONE','NONE', #40, #882 ) REPRESENTATION_RELATIONSHIP_WITH_TRANSFORMATION ( #380 )SHAPE_REPRESENTATION_RELATIONSHIP( ) );
#908 = VERTEX_POINT ( 'NONE', #1308 ) ;
#909 = CARTESIAN_POINT ( 'NONE',  ( 0.000000000000000000, 0.1499999999999999944, 0.000000000000000000 ) ) ;
#910 = ORIENTED_EDGE ( 'NONE', *, *, #227, .T. ) ;
#911 = VERTEX_POINT ( 'NONE', #1088 ) ;
#912 = DIRECTION ( 'NONE',  ( 0.000000000000000000, -0.9961946980917455452, -0.08715574274765854057 ) ) ;
#913 = ORIENTED_EDGE ( 'NONE', *, *, #935, .T. ) ;
#914 = ADVANCED_FACE ( 'NONE', ( #893 ), #958, .F. ) ;
#915 = ORIENTED_EDGE ( 'NONE', *, *, #300, .F. ) ;
#916 = CARTESIAN_POINT ( 'NONE',  ( 0.5742241472994580320, 0.1499999999999999944, 0.5977054321332611053 ) ) ;
#917 = VERTEX_POINT ( 'NONE', #1102 ) ;
#918 = AXIS2_PLACEMENT_3D ( 'NONE', #847, #736, #1157 ) ;
#919 = ORIENTED_EDGE ( 'NONE', *, *, #1303, .F. ) ;
#920 = PLANE ( 'NONE',  #808 ) ;
#921 = DIRECTION ( 'NONE',  ( -1.000000000000000000, 0.000000000000000000, 0.000000000000000000 ) ) ;
#922 = EDGE_LOOP ( 'NONE', ( #956, #74, #287, #514 ) ) ;
#923 = EDGE_CURVE ( 'NONE', #305, #961, #17, .T. ) ;
#924 = ORIENTED_EDGE ( 'NONE', *, *, #158, .F. ) ;
#925 = DIRECTION ( 'NONE',  ( -1.000000000000000000, 0.000000000000000000, 0.000000000000000000 ) ) ;
#926 = ORIENTED_EDGE ( 'NONE', *, *, #1274, .T. ) ;
#927 = PLANE ( 'NONE',  #1123 ) ;
#928 = EDGE_LOOP ( 'NONE', ( #1311, #989, #969, #6 ) ) ;
#929 = DIRECTION ( 'NONE',  ( 0.000000000000000000, 0.000000000000000000, -1.000000000000000000 ) ) ;
#930 = ORIENTED_EDGE ( 'NONE', *, *, #61, .F. ) ;
#931 = EDGE_CURVE ( 'NONE', #307, #981, #454, .T. ) ;
#932 = ORIENTED_EDGE ( 'NONE', *, *, #692, .T. ) ;
#933 = AXIS2_PLACEMENT_3D ( 'NONE', #516, #203, #712 ) ;
#934 = PLANE ( 'NONE',  #223 ) ;
#935 = EDGE_CURVE ( 'NONE', #115, #305, #3, .T. ) ;
#936 = DIRECTION ( 'NONE',  ( 0.000000000000000000, 0.000000000000000000, 1.000000000000000000 ) ) ;
#937 = ORIENTED_EDGE ( 'NONE', *, *, #419, .F. ) ;
#938 = CARTESIAN_POINT ( 'NONE',  ( 0.1499999999999999944, -0.8000000000000000444, 1.080320264303318067 ) ) ;
#939 = MANIFOLD_SOLID_BREP ( 'NONE', #126 ) ;
#940 = CARTESIAN_POINT ( 'NONE',  ( -0.1499999999999999944, -0.07380047550844570647, 0.8435432950301879895 ) ) ;
#941 = FILL_AREA_STYLE ('',( #664 ) ) ;
#942 =( NAMED_UNIT ( * ) SI_UNIT ( $, .STERADIAN. ) SOLID_ANGLE_UNIT ( ) );
#943 = ADVANCED_FACE ( 'NONE', ( #888 ), #1019, .T. ) ;
#944 = DIRECTION ( 'NONE',  ( 0.000000000000000000, 0.000000000000000000, 1.000000000000000000 ) ) ;
#945 = ORIENTED_EDGE ( 'NONE', *, *, #274, .T. ) ;
#946 = EDGE_CURVE ( 'NONE', #1036, #421, #11, .T. ) ;
#947 = EDGE_LOOP ( 'NONE', ( #1181, #732, #125, #580 ) ) ;
#948 = DIRECTION ( 'NONE',  ( -0.08682659386424759762, 0.9924325091389669673, 0.08682659386424772252 ) ) ;
#949 = EDGE_CURVE ( 'NONE', #1054, #603, #231, .T. ) ;
#950 = CARTESIAN_POINT ( 'NONE',  ( -0.5418857696503720511, -0.9499999999999999556, 0.7668857696503720289 ) ) ;
#951 = EDGE_CURVE ( 'NONE', #47, #599, #215, .T. ) ;
#952 = CARTESIAN_POINT ( 'NONE',  ( -0.5742241472994580320, 0.1499999999999999944, 0.7514011146818150300 ) ) ;
#953 = SURFACE_SIDE_STYLE ('',( #812 ) ) ;
#954 = ADVANCED_FACE ( 'NONE', ( #1124 ), #235, .T. ) ;
#955 = CARTESIAN_POINT ( 'NONE',  ( -0.1499999999999999944, -0.8499999999999999778, 1.080320264303318067 ) ) ;
#956 = ORIENTED_EDGE ( 'NONE', *, *, #840, .F. ) ;
#957 = EDGE_LOOP ( 'NONE', ( #1194, #107, #80, #265 ) ) ;
#958 = PLANE ( 'NONE',  #1271 ) ;
#959 = DIRECTION ( 'NONE',  ( 0.000000000000000000, 0.9975640502598247528, 0.06975647374411737822 ) ) ;
#960 = MECHANICAL_DESIGN_GEOMETRIC_PRESENTATION_REPRESENTATION (  '', ( #824 ), #254 ) ;
#961 = VERTEX_POINT ( 'NONE', #102 ) ;
#962 = EDGE_CURVE ( 'NONE', #1000, #1183, #683, .T. ) ;
#963 = ORIENTED_EDGE ( 'NONE', *, *, #1047, .T. ) ;
#964 = EDGE_LOOP ( 'NONE', ( #924, #1043, #926, #52 ) ) ;
#965 = EDGE_CURVE ( 'NONE', #1015, #145, #1149, .T. ) ;
#966 = CARTESIAN_POINT ( 'NONE',  ( -0.5742241472994580320, 0.1000000000000000056, 0.7514011146818150300 ) ) ;
#967 = ADVANCED_FACE ( 'NONE', ( #676 ), #1182, .F. ) ;
#968 = CARTESIAN_POINT ( 'NONE',  ( -0.1499999999999999944, -1.807003620809174977E-15, 1.250000000000000000 ) ) ;
#969 = ORIENTED_EDGE ( 'NONE', *, *, #1184, .T. ) ;
#970 = ORIENTED_EDGE ( 'NONE', *, *, #1150, .F. ) ;
#971 = PLANE ( 'NONE',  #722 ) ;
#972 = ADVANCED_FACE ( 'NONE', ( #687 ), #462, .T. ) ;
#973 = DIRECTION ( 'NONE',  ( -1.000000000000000000, 0.000000000000000000, 0.000000000000000000 ) ) ;
#974 = PRESENTATION_LAYER_ASSIGNMENT (  '', '', ( #824 ) ) ;
#975 = EDGE_CURVE ( 'NONE', #1183, #262, #1119, .T. ) ;
#976 = CARTESIAN_POINT ( 'NONE',  ( 0.5742241472994580320, 0.1499999999999999944, 0.7514011146818150300 ) ) ;
#977 = AXIS2_PLACEMENT_3D ( 'NONE', #1100, #677, #196 ) ;
#978 = EDGE_LOOP ( 'NONE', ( #1005, #538, #123, #563 ) ) ;
#979 = AXIS2_PLACEMENT_3D ( 'NONE', #70, #79, #251 ) ;
#980 = PRODUCT_DEFINITION_FORMATION_WITH_SPECIFIED_SOURCE ( 'ANY', '', #193, .NOT_KNOWN. ) ;
#981 = VERTEX_POINT ( 'NONE', #38 ) ;
#982 = DIRECTION ( 'NONE',  ( 0.000000000000000000, 0.000000000000000000, 1.000000000000000000 ) ) ;
#983 = PLANE ( 'NONE',  #1134 ) ;
#984 = CLOSED_SHELL ( 'NONE', ( #452, #1101, #226, #16, #860, #1136, #148, #897, #450, #972, #10, #906, #637, #1281, #670 ) ) ;
#985 =( NAMED_UNIT ( * ) SI_UNIT ( $, .STERADIAN. ) SOLID_ANGLE_UNIT ( ) );
#986 = CARTESIAN_POINT ( 'NONE',  ( 0.000000000000000000, 0.1000000000000000056, 0.000000000000000000 ) ) ;
#987 = ORIENTED_EDGE ( 'NONE', *, *, #975, .F. ) ;
#988 = ORIENTED_EDGE ( 'NONE', *, *, #350, .F. ) ;
#989 = ORIENTED_EDGE ( 'NONE', *, *, #750, .T. ) ;
#990 = DIRECTION ( 'NONE',  ( -1.000000000000000000, 0.000000000000000000, 0.000000000000000000 ) ) ;
#991 = DIRECTION ( 'NONE',  ( 0.000000000000000000, 0.000000000000000000, 1.000000000000000000 ) ) ;
#992 = ORIENTED_EDGE ( 'NONE', *, *, #353, .F. ) ;
#993 = EDGE_CURVE ( 'NONE', #756, #486, #662, .T. ) ;
#994 = DIRECTION ( 'NONE',  ( 0.9961946980917455452, 0.08715574274765815199, 0.000000000000000000 ) ) ;
#995 = EDGE_LOOP ( 'NONE', ( #763, #1089, #547, #103 ) ) ;
#996 = VERTEX_POINT ( 'NONE', #137 ) ;
#997 = PRESENTATION_LAYER_ASSIGNMENT (  '', '', ( #188 ) ) ;
#998 = APPLICATION_PROTOCOL_DEFINITION ( 'draft international standard', 'automotive_design', 1998, #682 ) ;
#999 = DIRECTION ( 'NONE',  ( 1.000000000000000000, 0.000000000000000000, 0.000000000000000000 ) ) ;
#1000 = VERTEX_POINT ( 'NONE', #647 ) ;
#1001 = EDGE_CURVE ( 'NONE', #759, #1000, #1143, .T. ) ;
#1002 = CARTESIAN_POINT ( 'NONE',  ( -0.1499999999999999944, -0.8139512947488238837, -0.8808074542513529837 ) ) ;
#1003 = VERTEX_POINT ( 'NONE', #976 ) ;
#1004 = VERTEX_POINT ( 'NONE', #440 ) ;
#1005 = ORIENTED_EDGE ( 'NONE', *, *, #844, .F. ) ;
#1006 = ORIENTED_EDGE ( 'NONE', *, *, #935, .F. ) ;
#1007 = EDGE_LOOP ( 'NONE', ( #1173, #1189, #1215, #715 ) ) ;
#1008 = ORIENTED_EDGE ( 'NONE', *, *, #651, .T. ) ;
#1009 = VERTEX_POINT ( 'NONE', #863 ) ;
#1010 = ORIENTED_EDGE ( 'NONE', *, *, #198, .F. ) ;
#1011 = PLANE ( 'NONE',  #18 ) ;
#1012 = DIRECTION ( 'NONE',  ( -0.000000000000000000, 1.000000000000000000, 0.000000000000000000 ) ) ;
#1013 = AXIS2_PLACEMENT_3D ( 'NONE', #1070, #212, #331 ) ;
#1014 = ORIENTED_EDGE ( 'NONE', *, *, #951, .T. ) ;
#1015 = VERTEX_POINT ( 'NONE', #733 ) ;
#1016 = ORIENTED_EDGE ( 'NONE', *, *, #98, .F. ) ;
#1017 = CARTESIAN_POINT ( 'NONE',  ( -0.1499999999999999944, -0.1644761939757929947, -0.9857580157297859413 ) ) ;
#1018 = EDGE_CURVE ( 'NONE', #719, #1208, #701, .T. ) ;
#1019 = PLANE ( 'NONE',  #1073 ) ;
#1020 = VERTEX_POINT ( 'NONE', #67 ) ;
#1021 = ORIENTED_EDGE ( 'NONE', *, *, #374, .T. ) ;
#1022 = ORIENTED_EDGE ( 'NONE', *, *, #469, .T. ) ;
#1023 = ORIENTED_EDGE ( 'NONE', *, *, #437, .T. ) ;
#1024 = EDGE_CURVE ( 'NONE', #981, #461, #1148, .T. ) ;
#1025 = ORIENTED_EDGE ( 'NONE', *, *, #904, .F. ) ;
#1026 = CLOSED_SHELL ( 'NONE', ( #259, #707, #635, #943, #1107, #684, #44, #159, #1116, #954, #967 ) ) ;
#1027 = ORIENTED_EDGE ( 'NONE', *, *, #993, .F. ) ;
#1028 = CARTESIAN_POINT ( 'NONE',  ( 0.5742241472994580320, 0.1000000000000000056, 0.5977054321332611053 ) ) ;
#1029 = CARTESIAN_POINT ( 'NONE',  ( 0.1499999999999999944, -1.807003620809174977E-15, -1.250000000000000000 ) ) ;
#1030 = PRODUCT ( 'CUS10S30,H3F', 'CUS10S30,H3F', '', ( #1103 ) ) ;
#1031 = ORIENTED_EDGE ( 'NONE', *, *, #437, .F. ) ;
#1032 = ORIENTED_EDGE ( 'NONE', *, *, #1126, .T. ) ;
#1033 = DIRECTION ( 'NONE',  ( 0.000000000000000000, 0.000000000000000000, -1.000000000000000000 ) ) ;
#1034 = ORIENTED_EDGE ( 'NONE', *, *, #422, .F. ) ;
#1035 = ORIENTED_EDGE ( 'NONE', *, *, #962, .T. ) ;
#1036 = VERTEX_POINT ( 'NONE', #643 ) ;
#1037 = ORIENTED_EDGE ( 'NONE', *, *, #198, .T. ) ;
#1038 = MECHANICAL_DESIGN_GEOMETRIC_PRESENTATION_REPRESENTATION (  '', ( #496 ), #482 ) ;
#1039 = SURFACE_STYLE_USAGE ( .BOTH. , #45 ) ;
#1040 = EDGE_CURVE ( 'NONE', #520, #1003, #249, .T. ) ;
#1041 = SURFACE_SIDE_STYLE ('',( #816 ) ) ;
#1042 = VERTEX_POINT ( 'NONE', #163 ) ;
#1043 = ORIENTED_EDGE ( 'NONE', *, *, #407, .F. ) ;
#1044 = EDGE_CURVE ( 'NONE', #772, #283, #1144, .T. ) ;
#1045 =( GEOMETRIC_REPRESENTATION_CONTEXT ( 3 ) GLOBAL_UNCERTAINTY_ASSIGNED_CONTEXT ( ( #87 ) ) GLOBAL_UNIT_ASSIGNED_CONTEXT ( ( #745, #446, #861 ) ) REPRESENTATION_CONTEXT ( 'NONE', 'WORKASPACE' ) );
#1046 = ORIENTED_EDGE ( 'NONE', *, *, #422, .T. ) ;
#1047 = EDGE_CURVE ( 'NONE', #730, #603, #663, .T. ) ;
#1048 = CARTESIAN_POINT ( 'NONE',  ( 0.5742241472994580320, 0.1499999999999999944, 0.7514011146818150300 ) ) ;
#1049 = VERTEX_POINT ( 'NONE', #955 ) ;
#1050 = ORIENTED_EDGE ( 'NONE', *, *, #644, .F. ) ;
#1051 = CARTESIAN_POINT ( 'NONE',  ( 0.1499999999999999944, 0.000000000000000000, -0.8499999999999999778 ) ) ;
#1052 = CARTESIAN_POINT ( 'NONE',  ( -0.1499999999999999944, -1.000000000000000000, -1.250000000000000000 ) ) ;
#1053 = UNCERTAINTY_MEASURE_WITH_UNIT (LENGTH_MEASURE( 1.000000000000000082E-05 ), #335, 'distance_accuracy_value', 'NONE');
#1054 = VERTEX_POINT ( 'NONE', #1266 ) ;
#1055 = FILL_AREA_STYLE ('',( #1257 ) ) ;
#1056 = EDGE_LOOP ( 'NONE', ( #41, #120, #738, #567, #1192, #880, #871, #280, #1027 ) ) ;
#1057 = CARTESIAN_POINT ( 'NONE',  ( 0.5742241472994580320, 0.1000000000000000056, 0.5977054321332611053 ) ) ;
#1058 = ORIENTED_EDGE ( 'NONE', *, *, #1289, .F. ) ;
#1059 = EDGE_LOOP ( 'NONE', ( #1211, #620, #116, #627 ) ) ;
#1060 = CARTESIAN_POINT ( 'NONE',  ( -0.1499999999999999944, 0.000000000000000000, 0.000000000000000000 ) ) ;
#1061 = CARTESIAN_POINT ( 'NONE',  ( 0.6250000000000000000, 0.1499999999999999944, 0.8368767004711109569 ) ) ;
#1062 = AXIS2_PLACEMENT_3D ( 'NONE', #402, #236, #982 ) ;
#1063 = PLANE ( 'NONE',  #243 ) ;
#1064 = MECHANICAL_DESIGN_GEOMETRIC_PRESENTATION_REPRESENTATION (  '', ( #539 ), #727 ) ;
#1065 = CARTESIAN_POINT ( 'NONE',  ( 0.1499999999999999944, 0.05733169335434219749, -0.8198814125926899843 ) ) ;
#1066 = EDGE_LOOP ( 'NONE', ( #1186, #970, #724, #1023 ) ) ;
#1067 = CARTESIAN_POINT ( 'NONE',  ( 0.1499999999999999944, -0.1644761939757929947, 0.9857580157297859413 ) ) ;
#1068 = DIRECTION ( 'NONE',  ( 0.000000000000000000, 1.000000000000000000, 0.000000000000000000 ) ) ;
#1069 = DIRECTION ( 'NONE',  ( 1.000000000000000000, 0.000000000000000000, 0.000000000000000000 ) ) ;
#1070 = CARTESIAN_POINT ( 'NONE',  ( -0.1499999999999999944, -0.8000000000000000444, 1.080320264303318067 ) ) ;
#1071 = EDGE_CURVE ( 'NONE', #323, #772, #211, .T. ) ;
#1072 = DIRECTION ( 'NONE',  ( -1.000000000000000000, 0.000000000000000000, 1.734723475976804876E-16 ) ) ;
#1073 = AXIS2_PLACEMENT_3D ( 'NONE', #119, #320, #798 ) ;
#1074 = EDGE_CURVE ( 'NONE', #323, #1020, #1146, .T. ) ;
#1075 = CARTESIAN_POINT ( 'NONE',  ( -0.1499999999999999944, -0.1772741224180960085, 0.8027391122991069938 ) ) ;
#1076 = CARTESIAN_POINT ( 'NONE',  ( -0.5418857696503720511, -0.9499999999999999556, 0.000000000000000000 ) ) ;
#1077 = ORIENTED_EDGE ( 'NONE', *, *, #1074, .T. ) ;
#1078 = DIRECTION ( 'NONE',  ( -1.000000000000000000, 0.000000000000000000, 0.000000000000000000 ) ) ;
#1079 = ADVANCED_FACE ( 'NONE', ( #213 ), #349, .F. ) ;
#1080 = APPLICATION_PROTOCOL_DEFINITION ( 'draft international standard', 'automotive_design', 1998, #570 ) ;
#1081 = DIRECTION ( 'NONE',  ( -0.9961946980917455452, 0.08715574274765815199, 0.000000000000000000 ) ) ;
#1082 = EDGE_CURVE ( 'NONE', #996, #288, #252, .T. ) ;
#1083 = ORIENTED_EDGE ( 'NONE', *, *, #1084, .F. ) ;
#1084 = EDGE_CURVE ( 'NONE', #323, #1009, #652, .T. ) ;
#1085 = CARTESIAN_POINT ( 'NONE',  ( 0.000000000000000000, 0.1499999999999999944, 0.000000000000000000 ) ) ;
#1086 = DIRECTION ( 'NONE',  ( -1.000000000000000000, 0.000000000000000000, 0.000000000000000000 ) ) ;
#1087 = EDGE_CURVE ( 'NONE', #262, #432, #237, .T. ) ;
#1088 = CARTESIAN_POINT ( 'NONE',  ( 0.1499999999999999944, -0.1658640282339259864, 0.8354887778427870781 ) ) ;
#1089 = ORIENTED_EDGE ( 'NONE', *, *, #602, .F. ) ;
#1090 = DIRECTION ( 'NONE',  ( -1.000000000000000000, 0.000000000000000000, 0.000000000000000000 ) ) ;
#1091 = ORIENTED_EDGE ( 'NONE', *, *, #497, .F. ) ;
#1092 = CARTESIAN_POINT ( 'NONE',  ( -0.5742241472994580320, 0.1499999999999999944, 0.7514011146818150300 ) ) ;
#1093 = ORIENTED_EDGE ( 'NONE', *, *, #167, .F. ) ;
#1094 = CARTESIAN_POINT ( 'NONE',  ( 0.6250000000000000000, 0.000000000000000000, 0.8499999999999999778 ) ) ;
#1095 = PRODUCT_CONTEXT ( 'NONE', #570, 'mechanical' ) ;
#1096 = AXIS2_PLACEMENT_3D ( 'NONE', #1169, #994, #881 ) ;
#1097 = CARTESIAN_POINT ( 'NONE',  ( 0.5742241472994580320, 0.1000000000000000056, 0.7514011146818150300 ) ) ;
#1098 =( GEOMETRIC_REPRESENTATION_CONTEXT ( 3 ) GLOBAL_UNCERTAINTY_ASSIGNED_CONTEXT ( ( #183 ) ) GLOBAL_UNIT_ASSIGNED_CONTEXT ( ( #633, #848, #35 ) ) REPRESENTATION_CONTEXT ( 'NONE', 'WORKASPACE' ) );
#1099 =( GEOMETRIC_REPRESENTATION_CONTEXT ( 3 ) GLOBAL_UNCERTAINTY_ASSIGNED_CONTEXT ( ( #626 ) ) GLOBAL_UNIT_ASSIGNED_CONTEXT ( ( #362, #494, #985 ) ) REPRESENTATION_CONTEXT ( 'NONE', 'WORKASPACE' ) );
#1100 = CARTESIAN_POINT ( 'NONE',  ( 0.1499999999999999944, -0.8000000000000000444, 1.080320264303318067 ) ) ;
#1101 = ADVANCED_FACE ( 'NONE', ( #669 ), #1105, .F. ) ;
#1102 = CARTESIAN_POINT ( 'NONE',  ( 0.5418857696503720511, -0.9499999999999999556, -0.7668857696503720289 ) ) ;
#1103 = PRODUCT_CONTEXT ( 'NONE', #682, 'mechanical' ) ;
#1104 = DIRECTION ( 'NONE',  ( -1.000000000000000000, 0.000000000000000000, 0.000000000000000000 ) ) ;
#1105 = PLANE ( 'NONE',  #1295 ) ;
#1106 = DIRECTION ( 'NONE',  ( -0.08682659386424759762, -0.9924325091389669673, -0.08682659386424759762 ) ) ;
#1107 = ADVANCED_FACE ( 'NONE', ( #656 ), #649, .F. ) ;
#1108 = DIRECTION ( 'NONE',  ( 0.000000000000000000, 0.000000000000000000, 1.000000000000000000 ) ) ;
#1109 = AXIS2_PLACEMENT_3D ( 'NONE', #526, #224, #723 ) ;
#1110 = AXIS2_PLACEMENT_3D ( 'NONE', #379, #186, #991 ) ;
#1111 = DIRECTION ( 'NONE',  ( 1.000000000000000000, 0.000000000000000000, 0.000000000000000000 ) ) ;
#1112 = CARTESIAN_POINT ( 'NONE',  ( 0.1499999999999999944, 0.000000000000000000, -0.8499999999999999778 ) ) ;
#1113 = FACE_OUTER_BOUND ( 'NONE', #947, .T. ) ;
#1114 = CARTESIAN_POINT ( 'NONE',  ( -0.5742241472994580320, 0.1000000000000000056, 0.7514011146818150300 ) ) ;
#1115 = CARTESIAN_POINT ( 'NONE',  ( 0.1499999999999999944, -0.8499999999999999778, -1.250000000000000000 ) ) ;
#1116 = ADVANCED_FACE ( 'NONE', ( #1113 ), #474, .F. ) ;
#1117 = VECTOR ( 'NONE', #260, 1000.000000000000000 ) ;
#1118 = UNCERTAINTY_MEASURE_WITH_UNIT (LENGTH_MEASURE( 1.000000000000000082E-05 ), #493, 'distance_accuracy_value', 'NONE');
#1119 = LINE ( 'NONE', #748, #689 ) ;
#1120 = FILL_AREA_STYLE_COLOUR ( '', #829 ) ;
#1121 = VECTOR ( 'NONE', #409, 1000.000000000000000 ) ;
#1122 = CARTESIAN_POINT ( 'NONE',  ( -0.1499999999999999944, -1.000000000000000000, 0.000000000000000000 ) ) ;
#1123 = AXIS2_PLACEMENT_3D ( 'NONE', #199, #217, #327 ) ;
#1124 = FACE_OUTER_BOUND ( 'NONE', #876, .T. ) ;
#1125 = VECTOR ( 'NONE', #720, 1000.000000000000000 ) ;
#1126 = EDGE_CURVE ( 'NONE', #551, #160, #208, .T. ) ;
#1127 = ADVANCED_FACE ( 'NONE', ( #693 ), #503, .F. ) ;
#1128 = LINE ( 'NONE', #1112, #648 ) ;
#1129 = DIRECTION ( 'NONE',  ( 0.000000000000000000, 0.000000000000000000, 1.000000000000000000 ) ) ;
#1130 = VECTOR ( 'NONE', #518, 1000.000000000000000 ) ;
#1131 = VECTOR ( 'NONE', #91, 1000.000000000000114 ) ;
#1132 = CARTESIAN_POINT ( 'NONE',  ( 0.1499999999999999944, -0.8139512947488238837, -0.8808074542513529837 ) ) ;
#1133 = VECTOR ( 'NONE', #1176, 1000.000000000000000 ) ;
#1134 = AXIS2_PLACEMENT_3D ( 'NONE', #1094, #767, #238 ) ;
#1135 = CARTESIAN_POINT ( 'NONE',  ( 0.1499999999999999944, 0.05733169335434219749, 0.8198814125926899843 ) ) ;
#1136 = ADVANCED_FACE ( 'NONE', ( #666, #248 ), #678, .T. ) ;
#1137 = CARTESIAN_POINT ( 'NONE',  ( 0.5742241472994580320, 0.1000000000000000056, 0.5977054321332611053 ) ) ;
#1138 = VECTOR ( 'NONE', #887, 1000.000000000000000 ) ;
#1139 = SURFACE_STYLE_USAGE ( .BOTH. , #953 ) ;
#1140 = AXIS2_PLACEMENT_3D ( 'NONE', #428, #334, #418 ) ;
#1141 = CARTESIAN_POINT ( 'NONE',  ( -0.5742241472994580320, 0.1499999999999999944, 0.5977054321332611053 ) ) ;
#1142 = VECTOR ( 'NONE', #555, 1000.000000000000000 ) ;
#1143 = LINE ( 'NONE', #636, #216 ) ;
#1144 = LINE ( 'NONE', #232, #694 ) ;
#1145 = DIRECTION ( 'NONE',  ( 0.9961946980917455452, -0.08715574274765815199, 0.000000000000000000 ) ) ;
#1146 = LINE ( 'NONE', #49, #1125 ) ;
#1147 = VECTOR ( 'NONE', #1108, 1000.000000000000000 ) ;
#1148 = CIRCLE ( 'NONE', #508, 0.1834658169397844485 ) ;
#1149 = LINE ( 'NONE', #512, #685 ) ;
#1150 = EDGE_CURVE ( 'NONE', #582, #499, #1128, .T. ) ;
#1151 = CARTESIAN_POINT ( 'NONE',  ( 0.1499999999999999944, -0.8499999999999999778, -1.080320264303318067 ) ) ;
#1152 = VECTOR ( 'NONE', #171, 1000.000000000000000 ) ;
#1153 = AXIS2_PLACEMENT_3D ( 'NONE', #1230, #825, #794 ) ;
#1154 = LINE ( 'NONE', #197, #714 ) ;
#1155 = EDGE_CURVE ( 'NONE', #468, #759, #210, .T. ) ;
#1156 = LINE ( 'NONE', #671, #255 ) ;
#1157 = DIRECTION ( 'NONE',  ( 0.000000000000000000, 8.864339340456144530E-16, 1.000000000000000000 ) ) ;
#1158 = VECTOR ( 'NONE', #791, 1000.000000000000114 ) ;
#1159 = CARTESIAN_POINT ( 'NONE',  ( -0.5418857696503720511, -0.9499999999999999556, -0.7668857696503720289 ) ) ;
#1160 = FACE_OUTER_BOUND ( 'NONE', #1216, .T. ) ;
#1161 = DIRECTION ( 'NONE',  ( 0.000000000000000000, -1.000000000000000000, 1.445602896647340100E-15 ) ) ;
#1162 = CARTESIAN_POINT ( 'NONE',  ( 0.1499999999999999944, -1.000000000000000000, 0.000000000000000000 ) ) ;
#1163 = LINE ( 'NONE', #5, #1170 ) ;
#1164 = CLOSED_SHELL ( 'NONE', ( #204, #351, #201, #1259, #1127, #914 ) ) ;
#1165 = ORIENTED_EDGE ( 'NONE', *, *, #463, .T. ) ;
#1166 = DIRECTION ( 'NONE',  ( -1.000000000000000000, 0.000000000000000000, 0.000000000000000000 ) ) ;
#1167 = PRESENTATION_LAYER_ASSIGNMENT (  '', '', ( #496 ) ) ;
#1168 = LINE ( 'NONE', #1122, #721 ) ;
#1169 = CARTESIAN_POINT ( 'NONE',  ( 0.6250000000000000000, 0.000000000000000000, 0.8499999999999999778 ) ) ;
#1170 = VECTOR ( 'NONE', #170, 1000.000000000000000 ) ;
#1171 = ADVANCED_BREP_SHAPE_REPRESENTATION ( '', ( #835, #939, #543, #691, #752 ), #1045 ) ;
#1172 = CARTESIAN_POINT ( 'NONE',  ( 0.1499999999999999944, -1.807003620809174977E-15, 1.250000000000000000 ) ) ;
#1173 = ORIENTED_EDGE ( 'NONE', *, *, #741, .T. ) ;
#1174 = CIRCLE ( 'NONE', #207, 0.04999999999999991257 ) ;
#1175 = DIRECTION ( 'NONE',  ( -0.000000000000000000, 1.000000000000000000, 0.000000000000000000 ) ) ;
#1176 = DIRECTION ( 'NONE',  ( 0.000000000000000000, 0.000000000000000000, -1.000000000000000000 ) ) ;
#1177 = LINE ( 'NONE', #272, #754 ) ;
#1178 = ORIENTED_EDGE ( 'NONE', *, *, #654, .F. ) ;
#1179 = SURFACE_SIDE_STYLE ('',( #903 ) ) ;
#1180 = FACE_OUTER_BOUND ( 'NONE', #166, .T. ) ;
#1181 = ORIENTED_EDGE ( 'NONE', *, *, #509, .T. ) ;
#1182 = PLANE ( 'NONE',  #616 ) ;
#1183 = VERTEX_POINT ( 'NONE', #9 ) ;
#1184 = EDGE_CURVE ( 'NONE', #95, #268, #222, .T. ) ;
#1185 = ORIENTED_EDGE ( 'NONE', *, *, #1024, .F. ) ;
#1186 = ORIENTED_EDGE ( 'NONE', *, *, #392, .T. ) ;
#1187 = EDGE_CURVE ( 'NONE', #1020, #756, #673, .T. ) ;
#1188 = CARTESIAN_POINT ( 'NONE',  ( -0.6121839424164859933, 0.1464882084947650154, -0.8371839424164858601 ) ) ;
#1189 = ORIENTED_EDGE ( 'NONE', *, *, #180, .F. ) ;
#1190 = LINE ( 'NONE', #940, #1158 ) ;
#1191 = EDGE_CURVE ( 'NONE', #582, #996, #229, .T. ) ;
#1192 = ORIENTED_EDGE ( 'NONE', *, *, #931, .T. ) ;
#1193 = AXIS2_PLACEMENT_3D ( 'NONE', #4, #592, #264 ) ;
#1194 = ORIENTED_EDGE ( 'NONE', *, *, #153, .T. ) ;
#1195 = ORIENTED_EDGE ( 'NONE', *, *, #242, .T. ) ;
#1196 = CARTESIAN_POINT ( 'NONE',  ( -0.5742241472994580320, 0.1499999999999999944, 0.5977054321332611053 ) ) ;
#1197 = LINE ( 'NONE', #782, #796 ) ;
#1198 = ORIENTED_EDGE ( 'NONE', *, *, #205, .F. ) ;
#1199 = ORIENTED_EDGE ( 'NONE', *, *, #1191, .F. ) ;
#1200 = CARTESIAN_POINT ( 'NONE',  ( 0.5742241472994580320, 0.1499999999999999944, 0.7514011146818150300 ) ) ;
#1201 = VERTEX_POINT ( 'NONE', #764 ) ;
#1202 = EDGE_LOOP ( 'NONE', ( #575, #57, #913, #133 ) ) ;
#1203 = DIRECTION ( 'NONE',  ( 0.000000000000000000, 0.9975640502598247528, -0.06975647374411757251 ) ) ;
#1204 = LINE ( 'NONE', #788, #1207 ) ;
#1205 = ORIENTED_EDGE ( 'NONE', *, *, #1044, .T. ) ;
#1206 = PLANE ( 'NONE',  #466 ) ;
#1207 = VECTOR ( 'NONE', #1033, 1000.000000000000000 ) ;
#1208 = VERTEX_POINT ( 'NONE', #1306 ) ;
#1209 = AXIS2_PLACEMENT_3D ( 'NONE', #986, #395, #659 ) ;
#1210 = CARTESIAN_POINT ( 'NONE',  ( -0.1499999999999999944, 0.05733169335434219749, 0.8198814125926899843 ) ) ;
#1211 = ORIENTED_EDGE ( 'NONE', *, *, #931, .F. ) ;
#1212 = EDGE_LOOP ( 'NONE', ( #546, #779, #105, #129 ) ) ;
#1213 = EDGE_CURVE ( 'NONE', #115, #1049, #679, .T. ) ;
#1214 = LINE ( 'NONE', #1188, #1219 ) ;
#1215 = ORIENTED_EDGE ( 'NONE', *, *, #1001, .F. ) ;
#1216 = EDGE_LOOP ( 'NONE', ( #427, #39, #937, #1037 ) ) ;
#1217 = DIRECTION ( 'NONE',  ( 0.000000000000000000, 0.9975640502598247528, 0.06975647374411757251 ) ) ;
#1218 = VECTOR ( 'NONE', #622, 1000.000000000000000 ) ;
#1219 = VECTOR ( 'NONE', #1106, 1000.000000000000114 ) ;
#1220 = FACE_OUTER_BOUND ( 'NONE', #121, .T. ) ;
#1221 = CARTESIAN_POINT ( 'NONE',  ( 0.6250000000000000000, 0.1499999999999999944, -0.8368767004711119561 ) ) ;
#1222 = FACE_OUTER_BOUND ( 'NONE', #303, .T. ) ;
#1223 = DIRECTION ( 'NONE',  ( 0.000000000000000000, 0.000000000000000000, 1.000000000000000000 ) ) ;
#1224 = ORIENTED_EDGE ( 'NONE', *, *, #227, .F. ) ;
#1225 = LINE ( 'NONE', #234, #361 ) ;
#1226 = EDGE_LOOP ( 'NONE', ( #1025, #55, #1, #1205 ) ) ;
#1227 = VECTOR ( 'NONE', #1297, 1000.000000000000000 ) ;
#1228 = ORIENTED_EDGE ( 'NONE', *, *, #271, .T. ) ;
#1229 = PRESENTATION_LAYER_ASSIGNMENT (  '', '', ( #539 ) ) ;
#1230 = CARTESIAN_POINT ( 'NONE',  ( 0.1499999999999999944, 0.06779516441595999365, -0.9695160201316640469 ) ) ;
#1231 = AXIS2_PLACEMENT_3D ( 'NONE', #256, #388, #672 ) ;
#1232 = DIRECTION ( 'NONE',  ( 0.000000000000000000, 1.000000000000000000, -1.445602896647340100E-15 ) ) ;
#1233 = LINE ( 'NONE', #258, #802 ) ;
#1234 = CARTESIAN_POINT ( 'NONE',  ( -0.6250000000000000000, 0.000000000000000000, -0.8499999999999999778 ) ) ;
#1235 = LINE ( 'NONE', #891, #793 ) ;
#1236 = VECTOR ( 'NONE', #293, 1000.000000000000114 ) ;
#1237 = CIRCLE ( 'NONE', #190, 0.1834658169397844485 ) ;
#1238 = PLANE ( 'NONE',  #789 ) ;
#1239 = EDGE_CURVE ( 'NONE', #468, #432, #681, .T. ) ;
#1240 = VECTOR ( 'NONE', #1166, 1000.000000000000000 ) ;
#1241 = CARTESIAN_POINT ( 'NONE',  ( 0.5742241472994580320, 0.1499999999999999944, 0.5977054321332611053 ) ) ;
#1242 = AXIS2_PLACEMENT_3D ( 'NONE', #459, #973, #868 ) ;
#1243 = VECTOR ( 'NONE', #885, 1000.000000000000000 ) ;
#1244 = EDGE_CURVE ( 'NONE', #160, #77, #801, .T. ) ;
#1245 = FACE_OUTER_BOUND ( 'NONE', #710, .T. ) ;
#1246 = VECTOR ( 'NONE', #58, 1000.000000000000114 ) ;
#1247 = DIRECTION ( 'NONE',  ( 0.000000000000000000, 0.000000000000000000, -1.000000000000000000 ) ) ;
#1248 = CIRCLE ( 'NONE', #1292, 0.04999999999999991257 ) ;
#1249 =( LENGTH_UNIT ( ) NAMED_UNIT ( * ) SI_UNIT ( .MILLI., .METRE. ) );
#1250 = FACE_OUTER_BOUND ( 'NONE', #101, .T. ) ;
#1251 = CIRCLE ( 'NONE', #1110, 0.1999999999999999833 ) ;
#1252 = CARTESIAN_POINT ( 'NONE',  ( 0.1499999999999999944, -1.000000000000000000, -1.250000000000000000 ) ) ;
#1253 = CIRCLE ( 'NONE', #977, 0.1999999999999999833 ) ;
#1254 = DIRECTION ( 'NONE',  ( 0.000000000000000000, 0.000000000000000000, -1.000000000000000000 ) ) ;
#1255 = DIRECTION ( 'NONE',  ( 1.000000000000000000, 0.000000000000000000, -1.734723475976804876E-16 ) ) ;
#1256 = VECTOR ( 'NONE', #390, 1000.000000000000000 ) ;
#1257 = FILL_AREA_STYLE_COLOUR ( '', #415 ) ;
#1258 = DIRECTION ( 'NONE',  ( 0.000000000000000000, -1.000000000000000000, 0.000000000000000000 ) ) ;
#1259 = ADVANCED_FACE ( 'NONE', ( #842 ), #86, .F. ) ;
#1260 = EDGE_CURVE ( 'NONE', #47, #605, #1251, .T. ) ;
#1261 = CARTESIAN_POINT ( 'NONE',  ( 0.6118767004711110902, 0.1499999999999999944, -0.8368767004711119561 ) ) ;
#1262 = VECTOR ( 'NONE', #1232, 1000.000000000000000 ) ;
#1263 = DIRECTION ( 'NONE',  ( 0.000000000000000000, -1.445602896647340100E-15, 1.000000000000000000 ) ) ;
#1264 = SURFACE_STYLE_USAGE ( .BOTH. , #1041 ) ;
#1265 = SHAPE_DEFINITION_REPRESENTATION ( #638, #882 ) ;
#1266 = CARTESIAN_POINT ( 'NONE',  ( 0.1499999999999999944, -0.8499999999999999778, -1.250000000000000000 ) ) ;
#1267 = FACE_OUTER_BOUND ( 'NONE', #585, .T. ) ;
#1268 = ADVANCED_FACE ( 'NONE', ( #363 ), #1063, .T. ) ;
#1269 = DIRECTION ( 'NONE',  ( 1.000000000000000000, 0.000000000000000000, 0.000000000000000000 ) ) ;
#1270 = LINE ( 'NONE', #1151, #385 ) ;
#1271 = AXIS2_PLACEMENT_3D ( 'NONE', #65, #168, #246 ) ;
#1272 = EDGE_CURVE ( 'NONE', #911, #108, #807, .T. ) ;
#1273 = PLANE ( 'NONE',  #1140 ) ;
#1274 = EDGE_CURVE ( 'NONE', #68, #917, #404, .T. ) ;
#1275 = VECTOR ( 'NONE', #828, 1000.000000000000000 ) ;
#1276 = DIRECTION ( 'NONE',  ( -1.000000000000000000, 0.000000000000000000, 0.000000000000000000 ) ) ;
#1277 = EDGE_CURVE ( 'NONE', #605, #996, #827, .T. ) ;
#1278 = VECTOR ( 'NONE', #29, 1000.000000000000000 ) ;
#1279 = CARTESIAN_POINT ( 'NONE',  ( -0.1499999999999999944, -0.8000000000000000444, 1.080320264303318067 ) ) ;
#1280 = PRESENTATION_STYLE_ASSIGNMENT (( #1264 ) ) ;
#1281 = ADVANCED_FACE ( 'NONE', ( #803 ), #329, .T. ) ;
#1282 = CYLINDRICAL_SURFACE ( 'NONE', #746, 0.04999999999999991257 ) ;
#1283 = ORIENTED_EDGE ( 'NONE', *, *, #425, .F. ) ;
#1284 = VECTOR ( 'NONE', #228, 1000.000000000000114 ) ;
#1285 = CARTESIAN_POINT ( 'NONE',  ( -0.6118767004711110902, 0.1499999999999999944, 0.8499999999999999778 ) ) ;
#1286 = CARTESIAN_POINT ( 'NONE',  ( 0.1499999999999999944, -0.8499999999999999778, 0.000000000000000000 ) ) ;
#1287 = LINE ( 'NONE', #202, #1300 ) ;
#1288 = AXIS2_PLACEMENT_3D ( 'NONE', #15, #830, #929 ) ;
#1289 = EDGE_CURVE ( 'NONE', #50, #262, #1290, .T. ) ;
#1290 = LINE ( 'NONE', #836, #358 ) ;
#1291 = LINE ( 'NONE', #757, #819 ) ;
#1292 = AXIS2_PLACEMENT_3D ( 'NONE', #1279, #1269, #544 ) ;
#1293 = VECTOR ( 'NONE', #527, 1000.000000000000000 ) ;
#1294 = DIRECTION ( 'NONE',  ( 0.000000000000000000, 0.000000000000000000, 1.000000000000000000 ) ) ;
#1295 = AXIS2_PLACEMENT_3D ( 'NONE', #1097, #177, #792 ) ;
#1296 = VECTOR ( 'NONE', #711, 1000.000000000000000 ) ;
#1297 = DIRECTION ( 'NONE',  ( 1.000000000000000000, 0.000000000000000000, 0.000000000000000000 ) ) ;
#1298 = SURFACE_STYLE_FILL_AREA ( #941 ) ;
#1299 = CARTESIAN_POINT ( 'NONE',  ( 0.1499999999999999944, 0.06779516441595999365, 0.9695160201316640469 ) ) ;
#1300 = VECTOR ( 'NONE', #344, 1000.000000000000000 ) ;
#1301 = APPLICATION_PROTOCOL_DEFINITION ( 'draft international standard', 'automotive_design', 1998, #373 ) ;
#1302 = DIRECTION ( 'NONE',  ( 0.000000000000000000, 0.000000000000000000, 1.000000000000000000 ) ) ;
#1303 = EDGE_CURVE ( 'NONE', #542, #160, #832, .T. ) ;
#1304 = FACE_OUTER_BOUND ( 'NONE', #162, .T. ) ;
#1305 = CARTESIAN_POINT ( 'NONE',  ( 0.1499999999999999944, -0.8034878236872060597, -1.030442061790326047 ) ) ;
#1306 = CARTESIAN_POINT ( 'NONE',  ( -0.6118767004711110902, 0.1499999999999999944, 0.8368767004711109569 ) ) ;
#1307 = VECTOR ( 'NONE', #858, 1000.000000000000114 ) ;
#1308 = CARTESIAN_POINT ( 'NONE',  ( 0.1499999999999999944, -0.1644761939757929947, -0.9857580157297859413 ) ) ;
#1309 = COLOUR_RGB ( '',0.7921568627450980005, 0.8196078431372548767, 0.9333333333333333481 ) ;
#1310 = DIRECTION ( 'NONE',  ( 0.000000000000000000, 1.000000000000000000, 0.000000000000000000 ) ) ;
#1311 = ORIENTED_EDGE ( 'NONE', *, *, #1018, .T. ) ;
#1312 = FACE_OUTER_BOUND ( 'NONE', #611, .T. ) ;
#1313 = CARTESIAN_POINT ( 'NONE',  ( 0.1499999999999999944, -0.1772741224180960085, 0.8027391122991069938 ) ) ;
#1314 = NEXT_ASSEMBLY_USAGE_OCCURRENCE ( 'NAUO1', ' ', ' ', #501, #725, $ ) ;
ENDSEC;
END-ISO-10303-21;
